<svg width="128" height="128" viewBox="0 0 128 128" fill="none" xmlns="http://www.w3.org/2000/svg">
<g opacity="0.36">
<path d="M88.05 69.345C88.2046 69.6898 88.3568 70.0369 88.5066 70.3841C88.6683 70.7574 88.5993 70.6504 88.4899 70.3389C88.5589 70.5315 88.6492 70.7218 88.7277 70.912C89.0012 71.5801 89.2651 72.2531 89.5195 72.9284C90.0403 74.3123 90.523 75.7104 90.9652 77.1205C91.8498 79.9429 92.5679 82.8153 93.1267 85.7186C93.3621 86.9408 94.7697 87.9562 95.9919 87.9015C97.3425 87.842 98.4435 87.0122 98.8572 85.7186C99.2115 84.6106 99.0665 83.3836 98.6955 82.3017C98.5814 81.9688 98.4482 81.6407 98.3436 81.3054C98.2984 81.1604 98.2794 80.9939 98.2247 80.8536C98.5338 81.6431 98.2628 81.5194 98.2842 81.2698C98.327 80.768 98.1344 81.9355 98.2128 81.6407C98.2984 81.3149 97.8585 82.3017 98.0416 82.0093C98.2176 81.7263 97.5756 82.5348 97.83 82.278C98.0773 82.0283 97.2688 82.6061 97.5946 82.4729C97.6588 82.4468 97.742 82.404 97.8015 82.3659C97.2736 82.7107 97.2807 82.5752 97.528 82.492C97.6421 82.4539 97.7563 82.4135 97.8704 82.3731C98.1629 82.2708 98.4577 82.1686 98.7502 82.0639C99.7608 81.7073 100.767 81.3387 101.768 80.9606C106.017 79.3604 110.207 77.5937 114.318 75.67C116.57 74.6142 118.8 73.5086 121.002 72.3553C122.381 71.6325 122.909 69.5947 122.067 68.2892C121.658 67.6544 121.049 67.0956 120.291 66.9244C119.461 66.7342 118.774 66.8887 118.001 67.224C116.698 67.7899 115.385 68.3416 114.09 68.9217C112.687 69.5495 111.326 70.7313 111.046 72.3125C110.699 74.2647 111.569 75.8888 113.205 76.9326C113.547 77.1514 113.918 77.3154 114.27 77.5128C114.401 77.5865 115.003 78.0074 114.527 77.6412C113.947 77.1966 114.482 77.6412 114.487 77.6388C114.408 77.6507 113.999 76.8969 114.284 77.4058C114.439 76.205 114.594 75.0042 114.748 73.8034C115.362 73.3231 115.944 73.1115 116.698 73.2422C116.203 73.1566 117 73.3706 116.962 73.3802C116.921 73.3897 116.772 73.2827 116.736 73.2636C116.386 73.0734 116.068 72.8356 115.733 72.6216C114.934 72.1104 113.987 71.7323 113.055 71.5564C111.072 71.1783 109.163 71.3614 107.189 71.7038C103.423 72.3553 99.6776 73.159 95.9277 73.8914C95.4617 73.9817 94.998 74.0721 94.532 74.1648C94.318 74.2076 94.1016 74.2481 93.8876 74.2909C93.7806 74.3123 93.6736 74.3337 93.5666 74.3527C93.4524 74.3741 92.8675 74.4692 93.412 74.3955C93.9042 74.3289 93.5618 74.386 93.4691 74.3717C93.7092 74.4098 93.9137 74.4335 94.1396 74.5286C94.5011 74.6808 94.8744 75.0732 95.1169 75.3799C94.9338 75.1469 95.2429 75.1326 95.2453 75.6938C95.2453 75.6343 95.212 75.5345 95.1954 75.475C95.1193 75.2063 95.2786 75.8911 95.2548 75.8983C95.2596 75.8959 95.231 75.3751 95.231 75.3252C95.231 75.2586 95.2477 74.2814 95.2905 74.2814C95.3119 74.2814 95.1763 74.9638 95.2429 74.6761C95.2667 74.5738 95.281 74.4668 95.3024 74.3646C95.3404 74.1839 95.3856 74.0031 95.4332 73.8248C95.5259 73.4919 95.6472 73.1709 95.766 72.8451C95.873 72.5598 95.6329 73.2137 95.6234 73.1876C95.6139 73.1566 95.7114 72.9997 95.7256 72.9688C95.8184 72.7738 95.9182 72.5836 96.0205 72.3957C96.1917 72.0866 96.3771 71.787 96.5745 71.4945C96.6672 71.359 96.7647 71.2259 96.8598 71.0927C96.9145 71.0142 97.1024 70.7717 96.8266 71.1307C96.5055 71.5469 96.8575 71.0998 96.905 71.0428C97.3711 70.4816 97.8799 69.9585 98.4173 69.4663C98.6884 69.219 98.969 68.9788 99.2543 68.7482C99.7679 68.3321 98.8525 69.0383 99.2567 68.7434C99.416 68.6269 99.5753 68.5104 99.737 68.3963C100.362 67.9564 101.014 67.5569 101.682 67.1859C104.564 65.5833 107.672 64.4277 110.537 62.7894C112.071 61.9119 113.647 60.8824 114.888 59.6221C116.727 57.7555 117.525 55.0163 116.065 52.6551C115.088 51.0739 113.49 49.8326 111.916 48.8886C110.459 48.0136 108.861 47.3716 107.282 46.7557C106.597 46.4894 105.91 46.2326 105.223 45.9663C104.88 45.8331 104.538 45.7 104.198 45.5597C104.119 45.5288 104.041 45.4955 103.962 45.4622C103.61 45.3195 104.552 45.719 104.205 45.5644C104.024 45.4836 103.843 45.4075 103.665 45.3243C102.961 45.0033 102.274 44.649 101.611 44.2495C101.273 44.045 100.943 43.8286 100.617 43.6027C100.467 43.4981 100.32 43.3935 100.172 43.2841C100.098 43.2294 100.027 43.1747 99.9534 43.1201C99.6538 42.9013 100.538 43.5932 100.053 43.1938C97.5351 41.1203 95.4593 38.626 93.4191 36.096C91.0199 33.1166 88.6207 30.1348 86.2215 27.1554C85.6056 26.3921 84.9922 25.6288 84.3763 24.8656C83.5916 23.8883 81.7916 23.7456 80.7739 24.4019C79.6968 25.0962 78.9953 26.473 79.409 27.7594C80.4957 31.1525 83.2159 33.4542 86.5068 34.6194C89.8334 35.7988 93.5475 35.3731 96.8337 34.2722C98.8762 33.5874 100.838 32.6743 102.785 31.7612C103.92 31.2286 104.528 29.5665 104.15 28.4037C103.758 27.1911 102.624 26.1638 101.285 26.2209C99.8226 26.2827 98.3412 26.4848 96.9264 26.8677C95.5045 27.2505 93.9756 27.7617 92.8033 28.6677C90.9201 30.1229 90.7536 32.5388 92.0376 34.4577C92.8865 35.725 93.8305 36.9377 94.8244 38.0957C95.7875 39.2181 97.6374 39.1705 98.7264 38.3288C99.9772 37.3634 100.108 35.8701 99.4921 34.4933C98.2152 31.6352 96.2987 29.0053 92.9816 28.5607C91.2363 28.3253 89.4434 28.7961 88.1594 30.0468C86.9515 31.2238 86.4165 32.981 86.5472 34.6384C86.6043 35.3612 86.7232 36.0793 86.8516 36.7927C86.8968 37.0495 86.942 37.3087 86.9871 37.5679C87.0894 38.1623 86.9182 36.7998 86.9657 37.3967C86.9776 37.5488 86.9943 37.7034 87.0014 37.8556C87.0085 38.0077 87.0085 38.1576 87.0038 38.3097C86.999 38.4215 86.942 38.9303 87.0133 38.3597C87.0846 37.7985 87.0085 38.286 86.9753 38.4001C86.961 38.4476 86.9467 38.4952 86.9301 38.5428C86.8231 38.8328 86.8659 38.7306 87.0585 38.2432C87.0181 38.286 86.9491 38.4334 86.9158 38.4952C86.6709 38.9803 87.4175 37.9673 87.0347 38.3549C86.9491 38.4405 86.8706 38.5309 86.7827 38.6141C86.7303 38.664 86.6757 38.714 86.6186 38.7615C86.3856 38.9517 86.4688 38.8899 86.8706 38.5713C86.4165 38.7805 85.9932 39.0968 85.5367 39.3179C85.0041 39.5747 86.2262 39.0516 85.6746 39.2609C85.5533 39.306 85.4344 39.3536 85.3132 39.3988C84.9779 39.5248 84.6379 39.6413 84.3002 39.7602C82.8379 40.2738 81.3755 40.7874 79.9108 41.301C79.5065 41.4437 79.1023 41.5911 78.6957 41.7267C78.6529 41.7409 78.1155 41.9264 78.1012 41.8979C78.5245 41.8598 78.6196 41.8455 78.389 41.8551C78.1559 41.8551 78.2558 41.8741 78.6814 41.9074C78.8122 41.9668 78.9406 42.0239 79.0714 42.0833C78.8075 41.924 78.8645 41.9835 79.245 42.2617C79.1308 42.1356 78.9834 42.0239 78.8621 41.9002C78.5816 41.6101 78.3176 41.3034 78.0466 41.0038C76.8434 39.6746 75.6378 38.3478 74.4346 37.0186C73.0341 38.4191 71.6312 39.822 70.2307 41.2226C70.34 41.3224 70.4447 41.4247 70.5445 41.5317C70.6111 41.603 70.6753 41.6767 70.7371 41.7528C70.4423 41.3605 70.3614 41.2558 70.4922 41.4437C70.623 41.691 70.7847 41.9644 70.9345 42.1998C71.0344 42.4091 70.9821 42.2854 70.7823 41.8241C70.818 41.9145 70.8513 42.0072 70.8846 42.1C70.9321 42.2403 70.9725 42.3806 71.0082 42.5232C71.0439 42.6659 71.07 42.8109 71.1009 42.956C71.2103 43.4696 71.0415 42.1927 71.0677 42.7515C71.0819 43.0463 71.0795 43.3388 71.0677 43.6337C71.0439 44.1948 71.2246 42.8799 71.0986 43.4268C71.0653 43.5695 71.0415 43.7145 71.0035 43.8572C70.9654 43.9998 70.9155 44.1354 70.8751 44.2757C70.7229 44.7964 71.1937 43.6574 70.9511 44.1045C70.8703 44.2543 70.7942 44.4065 70.7038 44.5515C70.5826 44.7465 70.1902 45.2244 70.7823 44.4873C72.3374 45.6881 73.8949 46.8889 75.45 48.0897C77.2215 45.1008 78.9929 42.1119 80.762 39.1253C81.5562 37.7866 81.1092 35.8059 79.6968 35.0593C78.2582 34.2984 76.4867 34.7002 75.6307 36.1245C74.4489 38.0933 73.2648 40.0622 72.083 42.031C71.8024 42.4994 71.5218 42.9703 71.2389 43.4363C71.1247 43.6265 71.0011 43.8096 70.8822 43.9975C70.6801 44.3137 70.8061 43.8619 71.0439 43.7882C70.9868 43.8049 70.5374 44.2329 70.9916 43.8881C71.353 43.6123 71.12 43.7906 71.032 43.8382C71.6859 43.5005 71.5147 43.6646 71.3007 43.7098C72.228 43.5076 71.869 43.6765 71.6645 43.6503C71.6669 43.6503 72.4872 43.812 72.0426 43.6979C71.7358 43.617 72.0307 43.5481 72.3564 43.8477C72.3017 43.7977 72.1567 43.7359 72.102 43.7026C72.014 43.6527 71.7881 43.472 72.1543 43.7573C72.5657 44.0783 72.1829 43.7692 72.0949 43.686C71.7953 43.4054 71.5242 43.0915 71.265 42.7729C71.1961 42.6873 71.1295 42.6017 71.0605 42.5161C70.8275 42.226 71.4552 43.0249 71.2317 42.7396C70.9535 42.3829 70.6848 42.0191 70.3947 41.672C69.7551 40.9111 69.0156 40.2691 68.2309 39.6627C66.5451 38.3597 64.6571 37.4085 62.6264 36.7594C58.237 35.3565 53.5098 35.6751 49.0538 36.5597C46.9162 36.9853 44.8261 37.6106 42.6955 38.0672C42.1914 38.1742 41.685 38.2622 41.1761 38.3525C40.6292 38.45 41.3069 38.3549 41.3544 38.3335C41.2617 38.3739 41.0334 38.3716 40.9455 38.3811C40.672 38.4096 40.3986 38.4334 40.1251 38.45C39.0717 38.5118 38.0184 38.4643 36.9698 38.3478C36.8414 38.3335 36.7058 38.305 36.5774 38.3026C36.8699 38.3121 37.1386 38.3834 36.682 38.3145C36.3872 38.2717 36.0947 38.2241 35.8022 38.1742C35.2482 38.0815 34.6942 37.9768 34.1425 37.8698C33.0083 37.6535 31.8765 37.4228 30.7351 37.2468C27.9982 36.8212 25.3303 36.6476 22.6054 37.2682C23.1332 39.18 23.6587 41.0894 24.1866 43.0012C28.0529 41.905 31.9169 40.8112 35.7832 39.715C37.8757 39.1229 38.7555 36.2981 37.0958 34.7478C36.8318 34.5028 36.5917 34.2437 36.3515 33.975C35.9306 33.5018 36.732 34.5361 36.3777 34.013C36.2778 33.8656 36.1756 33.7182 36.0805 33.566C35.8902 33.2616 35.7309 32.943 35.5716 32.622C35.3362 32.1488 35.7404 33.1023 35.631 32.7551C35.5668 32.5554 35.4931 32.3604 35.4337 32.1607C33.7787 33.1237 32.1214 34.0891 30.4664 35.0521C30.9848 35.5324 31.4604 36.0484 31.9074 36.5929C32.3116 37.0852 31.5055 36.0294 31.8693 36.5501C31.9692 36.6952 32.0738 36.8379 32.1713 36.9829C32.3663 37.2754 32.5518 37.575 32.7253 37.8817C32.8989 38.1885 33.0606 38.5 33.2128 38.8186C33.3127 39.0302 33.4268 39.5438 33.1985 38.752C33.2461 38.9184 33.3317 39.0801 33.3911 39.2442C33.6361 39.9052 33.8287 40.5829 33.9761 41.2725C34.668 40.0527 35.36 38.8352 36.0519 37.6154C33.6004 37.9673 31.1821 38.538 28.84 39.3393C26.6643 40.0836 24.4743 40.961 22.5435 42.226C20.6555 43.4648 18.8841 45.0342 17.7689 47.0268C16.4373 49.4094 15.7049 53.0451 17.8045 55.2208C18.6962 56.1457 19.9684 56.7235 21.0978 57.3085C22.1559 57.8554 23.2331 58.369 24.3245 58.8446C26.6857 59.8718 29.092 60.7825 31.5697 61.4935C32.6825 61.8121 33.8073 62.0974 34.9391 62.3423C35.4812 62.4612 36.0305 62.5492 36.5703 62.6776C36.7558 62.7204 36.9412 62.7727 37.1243 62.8322C37.2408 62.8702 37.355 62.9154 37.4715 62.9558C37.8067 63.0723 36.8057 62.6277 37.2337 62.8607C37.4215 62.9629 37.6046 63.0795 37.7901 63.1769C38.1063 63.3434 37.2123 62.6396 37.5618 62.9986C37.6189 63.0581 37.6831 63.1199 37.7449 63.1769C37.909 63.3315 37.9494 63.6121 37.5024 62.8631C37.7164 63.2197 37.3478 62.447 37.3526 62.4636C37.481 62.8536 37.3098 61.9833 37.3122 62.0047C37.3478 62.4874 37.5048 61.2295 37.3573 61.6861C37.4215 61.5363 37.4857 61.3841 37.5476 61.2343C37.4263 61.4245 37.4477 61.4031 37.6118 61.1701C38.0089 60.6327 37.3074 61.346 37.8258 60.937C38.2443 60.6065 37.8353 60.8895 37.7449 60.9465C37.5547 61.0654 37.3003 61.0369 38.0326 60.8372C37.4691 60.9894 36.9103 61.2366 36.3563 61.4269C30.7613 63.3648 25.1639 65.3051 19.5689 67.243C18.1588 67.7305 17.2362 68.9836 17.4407 70.503C17.6286 71.8964 18.8769 73.1519 20.3607 73.0806C24.2199 72.8903 28.0648 72.2079 31.7267 70.9714C30.4736 70.0155 29.2181 69.0597 27.965 68.1062C27.9554 68.3677 27.9412 68.6317 27.915 68.8932C27.9031 69.024 27.8889 69.1548 27.8722 69.2856C27.9364 68.8219 27.9459 68.7529 27.8936 69.0811C27.8104 69.5329 27.72 69.9823 27.6012 70.4269C27.4799 70.8716 27.3253 71.3019 27.1731 71.7371C27.0543 72.0367 27.078 71.982 27.2492 71.573C27.1969 71.6943 27.1422 71.8132 27.0875 71.9321C26.9758 72.1698 26.8569 72.4029 26.7332 72.6359C28.5451 73.3992 30.3547 74.1625 32.1666 74.9257C32.4471 74.0578 32.7539 73.1994 33.0963 72.3529C33.1462 72.2317 33.1938 72.1128 33.2461 71.9915C33.1962 72.108 33.1486 72.2245 33.0987 72.3411C33.063 72.215 33.3578 71.7514 33.4149 71.6253C33.5909 71.2401 33.774 70.8573 33.9642 70.4792C34.7655 68.8766 35.6905 67.3381 36.7177 65.8686C35.3623 66.2229 34.007 66.5796 32.6516 66.9339C36.7391 68.8552 40.8242 70.7764 44.9117 72.6977C45.411 70.8525 45.9127 69.005 46.4121 67.1598C45.8652 67.1907 45.3325 67.1503 44.788 67.1146C45.8129 67.1812 44.8807 67.117 44.6263 67.0623C44.3101 66.9957 43.9986 66.9125 43.6895 66.8221C43.1925 66.6747 42.7122 66.4916 42.2295 66.3038C41.8538 66.1587 42.9476 66.6224 42.4078 66.3799C42.2818 66.3228 42.1558 66.2681 42.0297 66.211C41.7515 66.085 41.4733 65.9542 41.1975 65.8211C38.9529 64.7344 36.7676 63.4908 34.3779 62.737C31.4746 61.8216 28.5119 62.0071 25.561 62.5635C24.2437 62.8108 22.943 63.1294 21.6281 63.3862C21.2999 63.4504 20.9694 63.5098 20.6413 63.5645C20.5937 63.5717 20.0635 63.6834 20.0468 63.6549C20.0444 63.6478 20.8267 63.5693 20.2418 63.624C19.5356 63.6882 18.8341 63.7429 18.1232 63.7286C17.7784 63.7215 17.436 63.7048 17.0936 63.6739C16.9366 63.6596 16.7821 63.643 16.6275 63.6264C15.9594 63.5598 17.3337 63.7547 16.6751 63.6287C15.9356 63.4861 15.2056 63.3339 14.4875 63.108C14.1903 63.0153 13.893 62.913 13.6006 62.8013C13.4127 62.7299 12.8777 62.4327 13.6148 62.8179C13.4508 62.7323 13.27 62.6633 13.1036 62.5849C12.4259 62.2615 11.7768 61.8858 11.1514 61.4697C10.6521 63.3149 10.1503 65.1624 9.65101 67.0076C15.2484 67.5331 20.8482 68.061 26.4289 68.741C27.1089 68.8243 27.789 68.9099 28.4667 68.9978C28.7877 69.0406 29.1087 69.0882 29.4321 69.1239C28.6759 69.0383 29.2038 69.093 29.3916 69.1191C29.6057 69.1476 29.8197 69.1786 30.0337 69.2071C31.3248 69.3878 32.616 69.5709 33.9024 69.7825C36.0472 70.1344 38.1919 70.5767 40.2488 71.2924C40.4818 71.3733 40.7148 71.4589 40.9478 71.5492C41.0762 71.5992 41.2023 71.6515 41.3307 71.7014C41.7825 71.8798 41.1048 71.6039 41.0739 71.592C41.5756 71.7561 42.0725 72.0533 42.5338 72.3078C43.0047 72.5669 43.4612 72.8475 43.9011 73.1566C43.9891 73.2185 44.0747 73.2827 44.1603 73.3445C44.5479 73.6227 43.9653 73.1876 43.9415 73.1709C44.2031 73.335 44.4456 73.587 44.6715 73.7987C45.0282 74.1292 45.3634 74.4811 45.6749 74.852C45.7273 74.9162 46.0768 75.3442 45.7534 74.94C45.4229 74.5263 45.7915 75.0018 45.8366 75.066C46.0102 75.3109 46.179 75.5606 46.3455 75.8103C47.2514 77.1561 48.1764 78.3736 49.4794 79.3509C50.5756 80.1736 51.8478 80.6801 53.1151 81.1818C54.4015 81.693 55.6903 82.1923 56.9791 82.6964C59.5947 83.7213 62.2079 84.7461 64.8235 85.771C66.5546 86.4486 68.2761 86.8101 70.126 86.3654C71.6479 86.0016 73.0222 85.1123 74.4346 84.4679C74.9364 84.2397 74.2872 84.5107 74.2682 84.5345C74.3538 84.418 74.7699 84.3348 74.9102 84.2825C75.2479 84.1564 75.5903 84.0375 75.9351 83.9282C76.6246 83.7094 77.3261 83.5239 78.0323 83.3765C78.3533 83.3099 78.6767 83.2481 79.0024 83.1958C79.088 83.1815 79.7063 83.1506 79.1927 83.1625C78.6624 83.1744 79.4827 83.1316 79.5802 83.1221C80.3007 83.0507 81.0236 83.0198 81.7464 83.0198C81.4825 81.0748 81.2186 79.1273 80.957 77.1823C78.8598 77.7078 76.7602 78.2333 74.6629 78.7588C73.6833 79.0037 72.7036 79.2486 71.7263 79.4959C71.1842 79.6314 70.6444 79.7741 70.0975 79.893C69.9334 79.9287 69.6433 79.9406 69.4935 80.0095C69.9477 79.9548 70.0071 79.9477 69.6766 79.9834C69.5411 79.9952 69.4056 80.0048 69.27 80.0095C69.0418 80.0166 68.7208 80.0571 68.502 79.9834C68.6613 80.0048 68.823 80.0262 68.9823 80.0476C68.8801 80.0309 68.7802 80.0119 68.6803 79.9881C68.4806 79.9429 68.2904 79.8764 68.093 79.8217C67.6079 79.6814 68.8016 80.1736 68.1049 79.8264C67.7839 79.6671 67.489 79.4721 67.1894 79.2748C66.7686 78.9989 67.7768 79.7717 67.1799 79.2605C67.061 79.1583 66.9421 79.0513 66.828 78.9442C66.5165 78.6494 66.224 78.3355 65.9435 78.0121C65.8365 77.8885 65.7366 77.7601 65.632 77.6364C65.3014 77.2417 66.0742 78.2357 65.5963 77.5889C65.1136 76.935 64.6713 76.2549 64.2386 75.5654C63.5633 74.4882 62.1532 73.7891 60.8811 74.2005C59.5757 74.6238 58.7862 75.7057 58.6982 77.0658C58.4414 81.0819 61.6444 84.292 65.0423 85.8375C65.9839 86.2655 66.9469 86.646 67.9099 87.0169C68.3023 87.1691 68.6946 87.3237 69.0846 87.4782C69.6077 87.6875 68.5971 87.2619 69.1131 87.4877C69.358 87.5947 69.6005 87.7017 69.8431 87.8135C71.4172 88.5364 72.9438 89.3638 74.4275 90.2579C76.1443 91.2899 77.8064 92.4098 79.4471 93.5607C80.4481 91.8487 81.4468 90.139 82.4479 88.427C79.3377 86.6817 76.1633 85.0552 72.9295 83.5501C71.9403 83.0888 70.9131 82.9746 69.9287 83.5501C68.9419 84.1279 68.5852 85.0386 68.4568 86.1158C67.8766 90.9617 67.5247 95.8315 67.4011 100.711C69.3461 100.447 71.2936 100.183 73.2386 99.9214C73.3623 100.775 73.2576 100.045 73.241 99.8881C73.222 99.7169 73.2077 99.5433 73.1934 99.3721C73.1673 99.0273 73.1506 98.6825 73.1435 98.3377C73.1268 97.6125 73.153 96.8849 73.222 96.1644C73.2386 95.9932 73.26 95.822 73.279 95.6484C73.3195 95.2656 73.1744 96.2833 73.2743 95.7197C73.3361 95.3678 73.3932 95.0159 73.4811 94.6688C73.4978 94.6022 73.6405 94.3002 73.6095 94.2384C73.5549 94.3668 73.5025 94.4928 73.4478 94.6212C73.5739 94.4119 73.5596 94.4143 73.4027 94.6212C73.0436 94.8828 73.4098 94.6878 73.4764 94.5713C73.0698 94.8637 72.9652 94.9493 73.1601 94.8304C73.2196 94.7924 73.2814 94.7591 73.3456 94.7306C73.3076 94.7163 72.5681 95.0112 73.1031 94.8732C73.4455 94.7853 72.3208 94.9137 72.813 94.9113C72.9366 94.9113 73.0603 94.916 73.1839 94.916C73.543 94.9137 72.4302 94.7663 72.92 94.878C73.0698 94.9113 73.2172 94.9446 73.367 94.9898C73.4859 95.0254 73.9282 95.2038 73.4431 94.9969C72.958 94.79 73.3884 94.9802 73.4978 95.0349C73.6309 95.1039 73.7617 95.18 73.8901 95.2561C75.1884 96.0241 76.3488 96.9015 77.8325 97.3105C78.0965 95.3655 78.3604 93.418 78.622 91.473C78.4246 91.4825 78.2296 91.473 78.0323 91.4706C77.5662 91.4658 78.8075 91.6513 78.1868 91.4849C78.0299 91.4421 77.8706 91.3945 77.7113 91.3541C77.2571 91.2376 78.0489 91.5015 78.0299 91.5015C77.9467 91.4967 77.7921 91.3898 77.7137 91.347C77.5662 91.2685 77.4236 91.1853 77.2857 91.0949C77.2119 91.0473 77.1287 90.9736 77.0479 90.9332C77.6209 91.2233 77.4973 91.3018 77.3047 91.1306C77.0051 90.8666 76.7174 90.6003 76.4534 90.3007C76.2846 90.1105 75.9232 89.5541 76.4344 90.3078C76.3321 90.158 76.2204 90.0154 76.1205 89.8656C75.8851 89.5184 75.6711 89.1594 75.4714 88.7908C75.2859 88.446 75.1171 88.0917 74.9554 87.7327C74.7485 87.2714 75.2169 88.3842 74.9887 87.7992C74.9055 87.5852 74.8294 87.3712 74.7533 87.1549C73.493 83.5382 72.3541 79.7931 69.037 77.5152C68.4283 77.0967 67.734 76.8304 67.111 76.4357C67.0967 76.4261 66.8922 76.3168 66.8756 76.2787C66.8589 76.2383 67.4605 76.8375 67.1609 76.4856C67.1395 76.4594 66.9707 76.3096 66.9802 76.2954C66.9873 76.2859 67.4011 76.8399 67.2655 76.6378C67.0753 76.3548 67.5128 77.3297 67.4272 76.9992C67.3511 76.7043 67.4962 77.5342 67.4938 77.4629C67.5318 78.2024 67.3559 78.1239 67.4415 77.8719C67.2085 78.3641 67.1466 78.5091 67.2631 78.3022C67.3369 78.1762 67.2941 78.2262 67.1347 78.452C66.8209 78.8539 67.0111 78.6137 67.1086 78.521C67.3488 78.2903 66.5022 78.8705 66.8161 78.7493C66.9398 78.7017 67.1038 78.5139 67.2394 78.5234C67.2679 78.5258 66.4618 78.7849 66.9279 78.6708C67.0206 78.6494 67.1133 78.6137 67.2037 78.59C67.3059 78.5638 67.6864 78.4188 67.7625 78.4711C67.7625 78.4711 66.8661 78.5733 67.4201 78.5186C67.539 78.5067 67.6555 78.4925 67.772 78.4806C67.9789 78.4592 68.1857 78.4402 68.3926 78.4211C68.8682 78.3783 69.3437 78.3427 69.8193 78.3117C73.5121 78.0787 77.2167 78.1715 80.9047 77.8671C85.3512 77.5009 89.831 76.5902 93.6094 74.0887C94.9029 73.2304 95.5782 71.4232 94.6746 70.0227C93.8424 68.7315 91.9948 68.0372 90.6086 68.9574C89.8072 69.4877 88.9702 69.9537 88.0928 70.3461C87.4366 70.6409 88.6778 70.1178 88.0096 70.3794C87.7956 70.4626 87.5816 70.5434 87.3652 70.6195C86.9063 70.7812 86.4402 70.9286 85.9718 71.057C85.054 71.3115 84.1195 71.5088 83.1779 71.6634C82.9472 71.7014 82.7166 71.7347 82.4859 71.768C82.0984 71.8251 83.1446 71.6872 82.7546 71.7323C82.6666 71.7418 82.5787 71.7537 82.4931 71.7656C81.9652 71.8274 81.4373 71.8798 80.9071 71.9249C76.9813 72.2483 73.0341 72.1199 69.106 72.4195C66.8851 72.5883 64.336 72.7263 62.7334 74.5049C61.485 75.8911 61.233 77.8029 62.0557 79.4769C62.5574 80.497 63.5133 81.2579 64.493 81.7976C64.8306 81.9831 65.1826 82.1472 65.5202 82.335C65.6985 82.4349 65.8674 82.549 66.0409 82.656C66.4404 82.8986 65.796 82.5015 65.8032 82.461C65.8008 82.4777 66.0528 82.6727 66.0885 82.7036C66.2359 82.8367 66.3762 82.977 66.5118 83.1221C66.5878 83.2029 67.0587 83.7831 66.7139 83.3361C66.3667 82.8867 66.8161 83.4954 66.8756 83.5881C67.0016 83.7784 67.1205 83.9757 67.2322 84.1754C67.4367 84.5369 67.6222 84.9078 67.791 85.2859C67.8219 85.3525 67.9194 85.5142 67.9194 85.5736C67.9194 85.5617 67.627 84.846 67.8029 85.3025C67.8885 85.5261 67.9789 85.7472 68.0621 85.9707C68.3688 86.791 68.6399 87.6233 68.9229 88.4508C70.3876 92.7237 73.4597 97.6577 78.6244 97.4294C80.1105 97.3628 81.3422 96.3475 81.5443 94.8519C81.7393 93.4061 80.8524 91.9866 79.4162 91.5919C79.3068 91.561 79.0191 91.4064 78.9049 91.4278C79.3401 91.618 79.4138 91.6442 79.1261 91.511C79.0452 91.4706 78.9668 91.4302 78.8883 91.3874C78.5435 91.1995 78.2154 90.9879 77.8872 90.7739C77.3047 90.3934 76.7292 90.0082 76.092 89.7277C74.2016 88.8954 71.9546 88.5982 70.1046 89.7491C67.9741 91.0735 67.5937 93.4798 67.3273 95.7673C67.1015 97.7005 67.237 99.598 67.5128 101.519C67.6079 102.176 68.3118 102.996 68.8777 103.295C69.4769 103.612 70.0975 103.74 70.7728 103.647C72.2447 103.45 73.3123 102.221 73.3504 100.727C73.4716 95.8482 73.8236 90.9784 74.4061 86.1324C72.9152 86.9884 71.4243 87.8444 69.9334 88.6981C73.1673 90.2032 76.3417 91.8297 79.4518 93.575C80.8072 94.3359 82.7594 93.9459 83.5179 92.5097C84.3216 90.9879 83.8151 89.3995 82.4527 88.4436C78.8122 85.8922 75.0624 83.5834 70.9464 81.8761C70.4946 81.6883 70.0404 81.5123 69.5839 81.3363C69.3414 81.2436 69.0988 81.1509 68.8587 81.0558C68.7683 81.0201 68.1572 80.8465 68.1358 80.7657C68.5472 80.9416 68.6042 80.9654 68.3094 80.837C68.1905 80.7847 68.074 80.7324 67.9551 80.6777C67.7221 80.5707 67.489 80.4565 67.2608 80.3377C66.8018 80.0975 66.3738 79.8193 65.9411 79.5387C65.6914 79.3556 65.758 79.4103 66.1408 79.7004C66.0528 79.6291 65.9672 79.5577 65.884 79.4816C65.7152 79.3318 65.5511 79.1749 65.3966 79.0108C65.3181 78.9276 65.2444 78.8444 65.1707 78.7588C64.9733 78.521 65.0232 78.5876 65.3181 78.9656C65.2349 78.773 65.0541 78.59 64.9471 78.4069C64.8378 78.2214 64.7641 77.9931 64.6428 77.8172C64.8306 78.2761 64.8711 78.3593 64.7641 78.0668C64.7284 77.9622 64.6975 77.86 64.6713 77.753C64.6428 77.6483 64.619 77.5413 64.6 77.4343C64.6594 77.9551 64.6737 78.0573 64.6428 77.7387C64.638 77.5176 64.6309 77.3012 64.6452 77.0777C62.8 77.577 60.9524 78.0787 59.1072 78.5781C60.1249 80.1974 61.2282 81.8404 62.624 83.1601C64.317 84.758 66.3215 85.7781 68.6589 85.9564C69.9358 86.0539 71.2484 85.7543 72.4801 85.45C73.5953 85.1741 74.7105 84.8912 75.8257 84.6106C78.0632 84.0494 80.3031 83.4883 82.5406 82.9271C83.9768 82.568 84.8614 81.0843 84.6688 79.6671C84.4738 78.2238 83.2397 77.0872 81.7488 77.0896C79.0001 77.0919 76.199 77.5366 73.6072 78.4639C72.2043 78.9657 70.8774 79.6172 69.5459 80.2758C69.4341 80.3305 69.3223 80.3828 69.2106 80.4375C68.7469 80.6682 69.3604 80.3543 69.4127 80.3614C69.2153 80.3305 68.7683 80.5945 68.5448 80.6468C68.4806 80.661 68.2571 80.6777 68.1881 80.7181C68.3308 80.6967 68.4735 80.6753 68.6161 80.6539C68.4877 80.6634 68.3593 80.6634 68.2309 80.6587C67.9266 80.6753 67.9813 80.4803 68.4235 80.6991C68.2785 80.6277 67.9955 80.6063 67.8362 80.5635C66.5237 80.1974 65.2539 79.6029 63.9865 79.1059C62.6787 78.5947 61.3709 78.0811 60.0655 77.5699C58.7577 77.0586 57.4499 76.545 56.1445 76.0338C55.5453 75.7984 54.9484 75.563 54.3516 75.3276C54.0401 75.2039 54.2969 75.1588 54.549 75.4132C54.4634 75.3276 54.2422 75.2777 54.1281 75.223C53.8237 75.0779 53.5217 74.9257 53.234 74.7522C53.1294 74.6903 53.0248 74.6238 52.9249 74.5572C52.875 74.5239 52.825 74.4882 52.7727 74.4549C52.573 74.3075 52.5754 74.3123 52.7822 74.4668C52.8345 74.5072 52.8869 74.5453 52.9392 74.5857C52.8464 74.5072 52.7561 74.4264 52.6681 74.3432C52.5825 74.26 52.4969 74.1767 52.4161 74.0887C52.3138 73.9794 52.2163 73.8676 52.1188 73.7535C51.969 73.5751 51.8168 73.2327 52.1973 73.8629C52.0451 73.6084 51.8478 73.373 51.6789 73.1257C50.9252 72.0153 50.1666 70.8977 49.2179 69.9442C47.425 68.1395 45.2398 66.9339 42.9072 65.9828C40.9193 65.1719 38.8197 64.6678 36.7129 64.2803C33.9808 63.7762 31.2154 63.4242 28.4619 63.0676C22.2059 62.2567 15.9237 61.667 9.64387 61.0773C8.40979 60.9608 7.0473 62.0784 6.7786 63.2602C6.47186 64.6013 7.0045 65.8591 8.14347 66.6176C10.6925 68.3106 13.5982 69.238 16.6204 69.5852C19.5689 69.9252 22.4984 69.2927 25.3684 68.6721C26.0223 68.5318 26.6762 68.3915 27.3325 68.2702C27.4442 68.2488 28.3097 68.1442 28.3145 68.1085C28.3121 68.1252 27.5369 68.1965 28.1124 68.1371C28.3407 68.1133 28.5713 68.0871 28.7996 68.0681C29.4202 68.0182 30.0455 68.0039 30.6685 68.0396C30.709 68.042 31.2582 68.0919 31.2606 68.0871C31.2487 68.1323 30.6138 67.9801 31.0276 68.0562C31.3533 68.1157 31.6767 68.1775 31.9977 68.256C32.5327 68.3891 33.0606 68.5603 33.5766 68.7505C33.8049 68.8361 34.6609 69.2475 33.7954 68.8243C34.095 68.9717 34.4112 69.0953 34.7156 69.238C35.7856 69.7397 36.8295 70.2961 37.89 70.8169C40.546 72.1247 43.3827 73.2827 46.4049 73.1162C47.6699 73.0473 48.973 72.2483 49.2702 70.9334C49.546 69.7278 49.118 68.1466 47.9053 67.5759C43.8179 65.6546 39.7328 63.7334 35.6453 61.8121C34.0974 61.0845 32.5708 61.4625 31.5792 62.8773C29.3393 66.0779 27.6249 69.6375 26.4289 73.3516C25.9747 74.764 26.8474 76.3073 28.1504 76.8589C29.4582 77.4106 31.1631 76.954 31.8622 75.6438C33.1129 73.3017 33.7977 70.7693 33.9047 68.1157C33.9785 66.2586 31.9359 64.6464 30.143 65.2504C28.4691 65.8139 26.7618 66.2705 25.0284 66.6034C24.5861 66.689 24.1438 66.7651 23.6992 66.834C23.5018 66.8649 23.2807 66.9315 23.0833 66.9244C23.2093 66.9077 23.3353 66.8911 23.4614 66.8745C23.3235 66.8911 23.1855 66.9101 23.05 66.9244C22.156 67.029 21.2595 67.1003 20.3607 67.1455C20.6246 69.0906 20.8886 71.038 21.1501 72.9831C26.1245 71.2591 31.0989 69.5376 36.0733 67.8137C38.6984 66.903 42.3056 66.261 43.1259 63.1508C43.9558 60.0097 41.1143 57.7698 38.4321 57.0232C37.3954 56.7354 36.3159 56.5833 35.2696 56.3288C34.1116 56.0482 32.9631 55.7272 31.8265 55.3682C30.6899 55.0091 29.5652 54.612 28.4572 54.1793C28.179 54.0699 27.9031 53.9605 27.6273 53.8464C27.506 53.7965 27.3824 53.7418 27.2611 53.6942C27.9459 53.9677 27.5726 53.8274 27.4228 53.7608C26.8474 53.5087 26.2743 53.2519 25.706 52.9809C24.6598 52.4839 23.6302 51.9513 22.6196 51.3853C22.5269 51.333 21.9087 50.8884 21.8159 50.9098C21.8611 50.9003 22.3747 51.3877 22.0157 51.0287C22.2273 51.2427 22.3676 51.4638 22.4556 51.7587C22.301 51.2522 22.4865 52.0773 22.4674 52.0583C22.4413 52.0345 22.4532 51.7801 22.4532 51.723C22.4532 51.5898 22.4603 51.4567 22.4674 51.3235C22.5031 50.8052 22.4032 51.4353 22.4199 51.5803C22.3747 51.1951 22.6386 50.6316 22.767 50.2773C22.8408 50.0704 23.0143 49.8849 22.6386 50.5745C22.6862 50.4889 22.7242 50.3938 22.767 50.3058C22.8812 50.0823 23.0048 49.8659 23.138 49.6543C23.1998 49.5568 23.6849 48.8934 23.3425 49.3357C23.0001 49.7779 23.5066 49.1502 23.6017 49.0456C23.9155 48.696 24.2556 48.3703 24.6122 48.0612C24.6931 47.9922 24.7739 47.9232 24.8548 47.8567C24.938 47.7901 25.0212 47.7235 25.1044 47.6569C24.9879 47.7473 24.8738 47.8376 24.7573 47.9256C24.8738 47.7402 25.2376 47.5785 25.4159 47.4596C25.8653 47.16 26.329 46.8794 26.8022 46.6226C27.273 46.3658 27.7533 46.128 28.2432 45.9092C28.3288 45.8712 28.8281 45.6572 28.3216 45.8712C27.8056 46.0876 28.3787 45.8498 28.4928 45.8046C28.8115 45.6762 29.1325 45.5526 29.4558 45.4313C32.1 44.4469 34.8464 43.7597 37.6403 43.3602C38.2966 43.2675 39.1169 42.5613 39.4165 41.9953C39.8017 41.2654 39.8897 40.5187 39.7161 39.7055C39.0004 36.3528 37.1861 33.1927 34.6752 30.86C33.7407 29.9921 32.2022 29.6664 31.0728 30.3964C29.9813 31.1002 29.3156 32.4579 29.7079 33.7538C30.3047 35.7298 31.3866 37.5512 32.8989 38.9636C33.3364 37.3087 33.774 35.6513 34.2115 33.9964C30.3452 35.0925 26.4812 36.1863 22.6149 37.2825C21.1192 37.7058 20.0421 39.4035 20.539 40.9396C21.0526 42.528 22.5697 43.3864 24.1961 43.0154C24.4505 42.9584 24.705 42.9132 24.9594 42.8609C25.347 42.7824 24.976 42.9964 24.743 42.8846C24.7906 42.9084 25.1021 42.8466 25.1258 42.8442C25.6371 42.7991 26.1507 42.7824 26.6643 42.7895C27.1803 42.7967 27.6963 42.8276 28.2099 42.8775C28.4667 42.9013 28.7282 42.9512 28.985 42.9631C28.9993 42.9631 28.3407 42.8704 28.6807 42.9227C28.8424 42.9465 29.0041 42.9702 29.1658 42.994C31.2535 43.3198 33.315 43.8096 35.4075 44.1021C36.6464 44.2757 37.8852 44.4302 39.1359 44.435C40.4533 44.4397 41.7729 44.2685 43.0689 44.0474C45.2469 43.6765 47.3632 43.0249 49.5151 42.5422C50.6042 42.2973 51.7003 42.1 52.8036 41.9335C53.2198 41.8717 52.2163 42.0001 52.6348 41.9573C52.7394 41.9478 52.8417 41.9335 52.9463 41.9216C53.2221 41.8907 53.5003 41.8646 53.7762 41.8408C54.3635 41.7909 54.9532 41.7599 55.5429 41.7504C56.0612 41.7409 56.582 41.7481 57.1004 41.7742C57.3762 41.7885 57.6544 41.8075 57.9302 41.8313C58.0681 41.8432 58.206 41.8598 58.344 41.8717C58.9027 41.9264 57.935 41.8027 58.2584 41.8551C59.1762 42.0025 60.0821 42.1951 60.9691 42.4733C61.3638 42.5969 61.7942 42.8395 62.1984 42.9132C61.642 42.8109 61.7276 42.7063 61.9677 42.8157C62.0724 42.8632 62.1794 42.9108 62.284 42.9607C62.5194 43.0725 62.7524 43.189 62.9807 43.3103C63.3611 43.5148 63.7345 43.7335 64.0935 43.9713C64.2861 44.0973 64.4716 44.2329 64.6594 44.3637C65.0565 44.6395 64.5025 44.2448 64.4668 44.2115C64.5691 44.309 64.6903 44.3922 64.7974 44.4849C65.1255 44.7631 65.437 45.058 65.7342 45.3695C65.8935 45.5359 66.0457 45.7071 66.1931 45.8831C66.2573 45.9592 66.3334 46.0828 66.4119 46.1494C66.1337 45.788 66.0623 45.6952 66.1979 45.8712C66.2906 45.9925 66.3857 46.1137 66.4785 46.235C67.2108 47.1837 67.9313 48.0112 68.9157 48.7127C70.2663 49.6757 72.0212 49.8374 73.5335 49.1978C75.0077 48.5748 75.859 47.2955 76.6555 45.9734C78.0252 43.6931 79.3972 41.4104 80.7668 39.1301C79.0547 38.129 77.3451 37.1303 75.6331 36.1293C73.8616 39.1182 72.0901 42.1071 70.321 45.0936C69.5625 46.3729 69.9334 48.0374 71.0867 48.9291C72.1543 49.7542 74.059 49.8517 74.9887 48.696C76.3464 47.0078 77.1786 44.9605 77.0146 42.7539C76.8553 40.6019 76.0492 38.5142 74.437 37.0233C73.2957 35.9676 71.3482 35.8083 70.233 37.0233C69.0988 38.2574 69.1155 39.9956 70.233 41.2273C71.2935 42.3972 72.3517 43.5647 73.4122 44.7346C74.7247 46.1827 75.9826 47.6641 78.0917 47.7925C79.7705 47.8923 81.4682 47.0482 83.0209 46.5037C84.3834 46.0257 85.7602 45.5787 87.106 45.058C88.5113 44.5158 89.8072 43.9071 90.9296 42.8799C92.216 41.7053 92.8746 40.0408 92.9436 38.3216C92.9959 37.0352 92.6749 35.7227 92.4514 34.46C92.6345 35.4896 92.4799 34.6336 92.4728 34.3578C92.468 34.2128 92.4775 34.0725 92.4799 33.9274C92.4847 33.3972 92.3039 34.5647 92.4395 34.2341C92.4752 34.1485 92.5227 33.9916 92.5298 33.9013C92.487 34.4149 92.2421 34.4981 92.4347 34.1676C92.6416 33.8133 92.6345 34.1557 92.2659 34.3626C92.3277 34.2936 92.3943 34.2294 92.4656 34.17C92.0543 34.4696 91.9449 34.5575 92.1399 34.4339C92.4157 34.2579 92.4966 34.3935 91.8569 34.5219C91.9996 34.4933 92.1827 34.441 92.3206 34.3911C92.6559 34.2698 91.4907 34.422 92.0186 34.441C92.147 34.4458 92.789 34.5005 92.1946 34.4172C91.6215 34.3364 92.1137 34.4125 92.2255 34.441C92.3444 34.4696 92.9483 34.7002 92.4205 34.4719C91.9116 34.2532 92.3634 34.4553 92.4585 34.5076C92.5441 34.5552 93.0767 34.9118 92.6559 34.6122C92.2397 34.3174 92.6796 34.6526 92.7462 34.7168C92.8913 34.8571 93.0173 35.0093 93.1528 35.1567C93.4215 35.4492 92.7319 34.529 93.053 35.0355C93.1623 35.2067 93.2765 35.3731 93.3811 35.5467C93.7568 36.1745 94.0611 36.8402 94.3584 37.5084C95.9135 36.3076 97.4709 35.1068 99.026 33.906C98.6694 33.4899 98.296 33.0738 97.9774 32.6267C98.4411 33.2759 98.025 32.6814 97.9417 32.5697C97.7777 32.3485 97.6184 32.1227 97.4591 31.8968C97.3069 31.6804 97.1737 31.4378 97.0097 31.2333C96.9787 31.181 96.9478 31.1287 96.9145 31.0764C97.0548 31.3332 97.1166 31.6114 97.0976 31.9039C97.0881 32.4413 96.8836 32.9145 96.4841 33.3187C96.6982 33.1094 96.6102 33.1665 96.2202 33.4923C96.3724 33.4495 96.5412 33.302 96.6886 33.2307C97.3735 32.9026 96.1941 33.4043 96.7861 33.1832C97.0382 33.0904 97.2855 32.9929 97.5399 32.905C97.9846 32.7551 98.434 32.6244 98.8905 32.5126C98.9809 32.4912 100.227 32.1607 100.27 32.2415C99.8107 32.2986 99.7465 32.3081 100.077 32.2677C100.21 32.2534 100.343 32.2392 100.477 32.2273C100.743 32.2035 101.012 32.1892 101.278 32.1773C100.778 30.3322 100.277 28.4846 99.7774 26.6394C99.2947 26.8653 98.8144 27.0912 98.3293 27.3123C97.9394 27.4907 97.4709 27.7926 97.0477 27.8806C97.4495 27.7118 97.5019 27.6904 97.2046 27.814C97.081 27.864 96.9573 27.9163 96.8337 27.9638C96.5864 28.0637 96.3391 28.1588 96.0894 28.2516C95.6543 28.4133 95.2168 28.5654 94.7721 28.7034C94.268 28.8603 93.7592 29.0006 93.2456 29.1171C93.053 29.1599 92.8604 29.2003 92.6678 29.2384C92.5394 29.2621 92.4086 29.2859 92.2802 29.3073C91.952 29.3572 92.021 29.3501 92.487 29.2859C92.3848 29.2193 91.8379 29.3549 91.7024 29.3644C91.4717 29.381 91.2411 29.3905 91.0104 29.3953C90.6205 29.4024 90.2305 29.3882 89.8429 29.3525C89.0416 29.2788 90.3922 29.4619 89.8691 29.3596C89.7169 29.3311 89.5647 29.3049 89.4149 29.274C89.013 29.1884 88.6136 29.079 88.2236 28.9483C88.0381 28.8864 87.817 28.8317 87.6458 28.7343C87.7885 28.7937 87.9311 28.8531 88.0738 28.915C87.9811 28.8745 87.8883 28.8317 87.7956 28.7866C87.4294 28.6106 87.0751 28.4133 86.7375 28.1921C86.6138 28.1113 86.4949 28.0043 86.3665 27.9353C86.7684 28.2516 86.8492 28.3158 86.6138 28.1255C86.5377 28.0637 86.4616 27.9995 86.3856 27.9329C86.0883 27.6714 85.8529 27.348 85.5628 27.0841C86.0931 27.5668 85.8505 27.4716 85.6746 27.2148C85.5628 27.0531 85.4582 26.8867 85.3631 26.7155C85.2656 26.5443 85.1966 26.3541 85.0968 26.1852C85.5509 26.9652 85.2228 26.473 85.1324 26.1924C83.4775 27.1554 81.8201 28.1208 80.1652 29.0838C82.6476 32.1678 85.1301 35.2495 87.6101 38.3335C89.7716 41.0181 91.8736 43.7954 94.3964 46.1565C95.728 47.4025 97.1856 48.5605 98.7573 49.4902C100.27 50.3843 101.917 51.0453 103.551 51.6802C104.262 51.956 104.978 52.2223 105.689 52.5005C106.029 52.6337 106.364 52.7811 106.706 52.9095C106.671 52.8953 106.014 52.6099 106.459 52.8049C106.535 52.8382 106.614 52.8715 106.69 52.9048C106.868 52.9832 107.046 53.0641 107.222 53.1473C107.921 53.4754 108.604 53.8345 109.253 54.2506C109.391 54.3386 109.529 54.429 109.664 54.5241C109.75 54.5835 110.309 55.002 109.893 54.681C109.477 54.36 110.023 54.7975 110.102 54.8665C110.247 54.9925 110.39 55.1257 110.53 55.2588C110.675 55.4015 110.811 55.5513 110.953 55.6987C111.015 55.7605 111.224 56.0197 110.946 55.6797C110.675 55.3444 110.879 55.587 110.92 55.6726C110.96 55.7582 111.036 55.9198 111.089 55.984C111.101 55.9983 110.834 55.3848 110.934 55.6868C111.036 55.9959 110.887 55.304 110.889 55.3254C110.956 55.801 110.891 54.9949 110.951 55.0258C110.998 55.0496 110.849 55.2897 110.86 55.342C110.853 55.3088 111.155 54.788 110.989 55.0115C110.941 55.0757 110.901 55.1613 110.86 55.2303C110.744 55.4395 110.558 55.4633 111.02 55.0472C110.72 55.3183 110.468 55.6416 110.157 55.9056C110.019 56.0221 109.857 56.1267 109.731 56.2551C109.771 56.2147 110.299 55.8319 109.897 56.1267C109.824 56.1814 109.75 56.2361 109.676 56.2908C109.331 56.5428 108.977 56.7806 108.616 57.0113C107.919 57.4559 107.201 57.8625 106.471 58.2477C103.508 59.8076 100.32 60.9632 97.4876 62.7656C94.6627 64.5632 91.9259 67.0409 90.5039 70.1321C89.7145 71.8488 89.1985 73.6774 89.2675 75.5868C89.315 76.8874 89.6075 78.2071 90.5563 79.163C91.757 80.3709 93.3359 80.4328 94.9077 80.1427C98.8524 79.4174 102.781 78.6066 106.718 77.8386C107.57 77.6721 108.418 77.4962 109.274 77.3654C109.362 77.3511 109.453 77.3416 109.541 77.325C109.569 77.3202 108.861 77.4034 109.194 77.3749C109.4 77.3559 109.607 77.3297 109.814 77.3131C110.223 77.2822 110.635 77.2679 111.046 77.2822C111.248 77.2893 111.448 77.3107 111.65 77.325C111.98 77.344 111.25 77.2917 111.284 77.275C111.322 77.256 111.491 77.3131 111.536 77.3226C111.728 77.363 111.921 77.4082 112.111 77.4676C112.192 77.4914 112.27 77.5271 112.351 77.5485C112.67 77.6293 111.678 77.2061 112.187 77.4771C112.958 77.8885 113.633 78.4045 114.444 78.7445C115.045 78.9989 115.645 79.1583 116.315 79.1297C117.357 79.0845 118.127 78.6542 118.931 78.0217C119.423 77.6341 119.67 76.8993 119.749 76.3144C119.839 75.651 119.73 75.0137 119.397 74.4193C118.852 73.4467 117.949 72.7548 116.979 72.2459C116.686 72.0938 116.389 71.875 116.089 71.749C115.837 71.642 116.622 72.1912 116.429 72.0129C116.329 71.9202 116.168 71.7086 116.484 72.1247C116.867 72.6264 116.463 71.9297 116.705 72.5218C116.81 72.8024 116.841 72.8737 116.798 72.7334C116.731 72.498 116.753 72.6716 116.86 73.2565C116.855 73.3064 116.677 74.0079 116.807 73.6393C116.746 73.7939 116.681 73.9508 116.62 74.1054C116.517 74.2314 116.417 74.3574 116.315 74.4858C116.313 74.4668 116.498 74.2814 116.515 74.2837C116.52 74.2837 115.885 74.6903 116.27 74.4811C116.693 74.2504 117.112 74.0459 117.556 73.8533C118.698 73.3588 119.839 72.8642 120.98 72.3672C119.979 70.6552 118.981 68.9455 117.98 67.2335C113.968 69.3331 109.874 71.2615 105.71 73.0378C105.332 73.1994 106.226 72.8214 105.848 72.9807C105.72 73.033 105.594 73.0877 105.465 73.14C105.211 73.247 104.954 73.3516 104.7 73.4562C104.157 73.6798 103.613 73.8985 103.066 74.1173C102.039 74.5263 101.007 74.9257 99.9724 75.3133C98.9048 75.7128 97.8324 76.1028 96.7576 76.4808C95.2976 76.9944 93.8662 77.4795 92.9911 78.8563C92.2065 80.088 92.1779 81.6027 92.6131 82.9628C92.751 83.3884 92.9269 83.7998 93.053 84.2301C93.072 84.2967 93.091 84.3633 93.11 84.4299C93.2099 84.8341 93.0173 84.7485 93.0958 84.1707C93.091 84.2016 93.1124 84.4346 93.1005 84.4323C93.0411 84.4204 93.3098 83.5192 93.1077 84.1517C95.0194 84.1517 96.9288 84.1517 98.8406 84.1517C97.6564 78.0074 95.7114 72.07 93.1671 66.3585C92.8841 65.7212 92.0329 65.1696 91.3909 64.9936C90.6799 64.7986 89.7311 64.8866 89.101 65.2932C88.4661 65.7022 87.9074 66.3109 87.7362 67.0694C87.5602 67.8803 87.7052 68.5746 88.05 69.345Z" fill="#424242"/>
</g>
<g opacity="0.36">
<path d="M90.7251 70.3889C89.8643 72.6145 90.6632 75.0256 91.4907 77.13C92.3729 79.3723 93.2598 81.6145 94.1444 83.8568C94.3726 84.4323 94.9505 84.9007 95.6067 84.6867C96.1655 84.506 96.6815 83.8426 96.4366 83.2243C95.5806 81.0557 94.7246 78.8872 93.8709 76.7186C93.4833 75.7342 93.0934 74.7426 92.8699 73.7059C92.839 73.5656 92.8176 73.4253 92.789 73.2827C92.7676 73.1424 92.7676 73.1424 92.7843 73.2827C92.7747 73.2137 92.7676 73.1424 92.7605 73.071C92.7367 72.8261 92.7272 72.5812 92.7343 72.3363C92.7367 72.215 92.7534 72.0938 92.7557 71.9725C92.7652 71.8845 92.7605 71.9035 92.7438 72.0296C92.7534 71.9606 92.7652 71.8916 92.7795 71.8251C92.8342 71.5492 92.915 71.2805 93.0173 71.019C93.2432 70.4388 92.77 69.6898 92.1874 69.5566C91.5074 69.4044 90.9652 69.7659 90.7251 70.3889Z" fill="#424242"/>
</g>
<g opacity="0.36">
<path d="M94.5676 81.2959C96.4485 81.819 98.3246 81.227 99.9867 80.3305C101.511 79.5102 102.919 78.4853 104.428 77.6388C105.991 76.7638 107.605 75.9839 109.248 75.2729C109.348 75.2301 109.446 75.1873 109.546 75.1445C109.569 75.135 109.897 74.9971 109.657 75.0969C109.857 75.0137 110.054 74.9305 110.254 74.8496C110.654 74.6856 111.053 74.5263 111.455 74.3693C112.292 74.0412 113.136 73.7273 113.98 73.423C115.875 72.7405 117.787 72.1033 119.699 71.4684C120.289 71.2734 120.733 70.6385 120.529 70.006C120.338 69.4187 119.699 68.9645 119.066 69.1762C115.723 70.2866 112.375 71.4018 109.122 72.7619C107.474 73.4515 105.846 74.1886 104.264 75.0208C102.721 75.8341 101.273 76.7828 99.7893 77.6959C99.3708 77.9527 98.9452 78.2 98.5077 78.4235C98.3222 78.5186 98.1344 78.6066 97.9465 78.6922C97.6374 78.8325 98.17 78.6161 97.8538 78.7302C97.7278 78.7754 97.6017 78.8254 97.4733 78.8682C97.2522 78.9419 97.0287 79.0037 96.8028 79.0536C96.7172 79.0727 96.6007 79.1131 96.5127 79.1083C96.8171 79.1226 96.4128 79.1155 96.3439 79.1202C96.1156 79.1345 95.8921 79.1226 95.6638 79.1107C95.3476 79.0941 95.9016 79.1749 95.5901 79.0988C95.4593 79.0679 95.3286 79.0417 95.2001 79.0061C94.6009 78.8396 93.8805 79.2106 93.7378 79.8359C93.5927 80.4613 93.9256 81.1176 94.5676 81.2959Z" fill="#424242"/>
</g>
<g opacity="0.36">
<path d="M113.067 74.8496C113.191 74.9685 113.305 75.0946 113.412 75.2301C113.35 75.1492 113.288 75.0708 113.226 74.9899C113.395 75.2134 113.538 75.4536 113.647 75.7128C113.607 75.6177 113.566 75.5226 113.528 75.4298C113.604 75.6129 113.666 75.8008 113.709 75.9957C113.745 76.1503 113.816 76.2858 113.921 76.4C114.004 76.5284 114.116 76.6306 114.254 76.7067C114.389 76.7947 114.537 76.8399 114.696 76.847C114.853 76.8827 115.012 76.8755 115.169 76.8256C115.457 76.7329 115.735 76.5545 115.88 76.2787C116.035 75.9886 116.073 75.6866 115.999 75.3632C115.963 75.2016 115.916 75.0399 115.854 74.8853C115.759 74.6428 115.659 74.4002 115.53 74.1743C115.404 73.9508 115.247 73.7535 115.091 73.5514C114.986 73.4158 114.872 73.2898 114.746 73.1709C114.522 72.9569 114.218 72.8237 113.904 72.8237C113.74 72.8166 113.588 72.8523 113.445 72.926C113.298 72.9735 113.169 73.0568 113.062 73.1709C112.855 73.3968 112.701 73.694 112.715 74.0126C112.732 74.3194 112.836 74.6285 113.067 74.8496Z" fill="#424242"/>
</g>
<g opacity="0.36">
<path d="M59.9014 78.6756C59.9918 78.6732 60.0821 78.6732 60.1701 78.6779C60.2153 78.6803 60.2581 78.6874 60.3033 78.6874C60.4388 78.6922 60.2129 78.6827 60.2058 78.6732C60.2272 78.7041 60.4198 78.716 60.4626 78.7255C60.5624 78.7493 60.6599 78.7802 60.755 78.8111C60.8002 78.8254 61.038 78.9347 60.8977 78.8634C60.7527 78.7897 60.9976 78.9157 61.0356 78.9347C61.2092 79.0251 61.3757 79.125 61.5373 79.232C61.6253 79.2914 61.7109 79.3556 61.7989 79.4151C61.9107 79.4911 61.749 79.3723 61.7418 79.3699C61.7799 79.3913 61.8156 79.4293 61.8512 79.4579C62.0082 79.5863 62.1603 79.7194 62.3101 79.855C62.5979 80.1165 62.8737 80.3923 63.1448 80.6705C64.3313 81.8809 65.5559 83.0507 66.8518 84.1493C69.5054 86.3987 72.3802 88.3937 75.4309 90.0653C77.181 91.0236 78.9905 91.8677 80.8357 92.6238C80.8357 91.8606 80.8357 91.0949 80.8357 90.3316C81.171 90.2745 80.781 90.353 80.7168 90.3102C80.8048 90.372 80.9213 90.3554 80.781 90.3055C80.7596 90.2983 80.6407 90.2769 80.617 90.2531C80.7121 90.353 80.7715 90.3292 80.6621 90.265C80.6098 90.2341 80.5575 90.208 80.5076 90.1771C80.4553 90.1461 80.4077 90.1105 80.3554 90.0772C80.1057 89.9131 80.5266 90.2365 80.3031 90.0344C79.9274 89.6944 79.5897 89.3234 79.2402 88.9572C78.5078 88.1844 77.716 87.4663 76.8814 86.8077C75.0719 85.381 73.1126 84.2373 70.982 83.3575C69.8621 82.8962 68.7065 82.5276 67.5271 82.2518C67.703 82.9152 67.8766 83.5762 68.0526 84.2396C68.2713 84.0637 67.9004 84.3466 68.0454 84.2444C68.0906 84.2111 68.1358 84.1778 68.181 84.1445C68.2832 84.0708 68.3878 83.9995 68.4925 83.9329C68.7136 83.7902 68.9419 83.6571 69.1749 83.5358C69.3651 83.4359 69.6005 83.2766 69.8122 83.2315C69.553 83.2861 69.7099 83.2743 69.7979 83.2386C69.8621 83.2124 69.9263 83.1863 69.9929 83.1625C70.1236 83.1126 70.2544 83.065 70.3852 83.0222C71.3673 82.6869 72.3873 82.4753 73.4098 82.3017C75.4785 81.9522 77.5948 81.7739 79.604 81.139C80.7763 80.7704 81.9224 80.252 82.902 79.5054C83.3776 79.1416 83.6392 78.6114 83.3895 78.0217C83.1707 77.5033 82.5525 77.1442 81.9866 77.3345C80.0273 77.9931 78.0679 78.6518 76.1086 79.3104C74.1564 79.9667 72.2114 80.661 70.2425 81.2698C69.7789 81.4124 69.3104 81.5456 68.8373 81.655C68.6018 81.7097 68.3664 81.7572 68.1287 81.7976C68.0193 81.8166 67.9099 81.8333 67.8005 81.8499C67.8219 81.8476 67.9836 81.8309 67.8409 81.8428C67.7672 81.8476 67.6935 81.8595 67.6198 81.8666C67.13 81.9118 66.6354 81.9165 66.1456 81.8713C66.1004 81.8666 66.0552 81.8618 66.01 81.8571C65.8721 81.8476 66.0956 81.8666 66.1028 81.8713C66.0481 81.8357 65.9054 81.8404 65.8388 81.8285C65.6343 81.7929 65.4322 81.7477 65.2301 81.6978C64.8568 81.6026 64.4906 81.4838 64.1315 81.3458C64.0911 81.3316 63.8985 81.284 63.8843 81.246C63.9057 81.2935 64.0792 81.3316 63.9223 81.2626C63.8819 81.2436 63.8415 81.227 63.7987 81.2079C63.6203 81.1295 63.4444 81.0462 63.2708 80.9606C62.5479 80.604 61.8512 80.1997 61.1593 79.7931C59.54 78.8396 57.9064 77.8647 56.085 77.3487C55.8734 78.112 55.6641 78.8777 55.4525 79.641C57.6425 79.9762 59.8039 80.4898 61.9083 81.1865C62.4338 81.3601 62.9569 81.5456 63.4753 81.7406C63.7249 81.8357 63.9746 81.9332 64.2243 82.033C64.3408 82.0806 64.4573 82.1258 64.5714 82.1733C64.638 82.1995 64.7022 82.228 64.7688 82.2566C64.9519 82.3326 64.5144 82.1472 64.8306 82.2827C65.846 82.7226 66.847 83.2005 67.8243 83.7213C68.269 83.9591 68.7088 84.1992 69.1392 84.4632C69.3413 84.5868 69.5435 84.7152 69.7384 84.8507C69.8288 84.9149 69.9168 84.9815 70.0071 85.0457C69.8098 84.9054 69.9501 85.0006 69.9905 85.0338C70.0499 85.0838 70.1118 85.1337 70.1712 85.1836C70.3472 85.3358 70.516 85.4975 70.6753 85.6711C70.7276 85.7282 70.9464 86.0087 70.7871 85.7876C70.8608 85.8875 70.9321 85.9897 70.9987 86.0943C71.0676 86.2037 71.1318 86.3179 71.1889 86.4344C71.2103 86.4795 71.2317 86.5247 71.2531 86.5699C71.3363 86.7268 71.196 86.394 71.2484 86.5628C71.3292 86.8172 71.4148 87.0645 71.4719 87.3261C71.4956 87.4402 71.5123 87.5567 71.5337 87.6708C71.4814 87.3879 71.5432 87.7945 71.5503 87.8563C71.5717 88.1274 71.5813 88.3985 71.5813 88.6719C71.5813 89.2022 71.5456 89.73 71.5028 90.2579C71.41 91.4468 71.3126 92.6357 71.2174 93.8246C70.9963 96.5734 70.7752 99.3198 70.5564 102.069C71.3482 102.069 72.1424 102.069 72.9342 102.069C72.9628 100.861 72.9913 99.655 73.0198 98.4471C73.046 97.3153 73.027 96.1692 73.1054 95.0397C73.1102 94.9826 73.1506 94.8352 73.1292 94.7781C73.1696 94.8899 73.0912 95.0159 73.1173 94.8685C73.1268 94.8186 73.134 94.7686 73.1435 94.7187C73.1815 94.519 73.2291 94.324 73.2957 94.1314C73.3028 94.1076 73.3503 94.003 73.3456 93.9935C73.348 93.9982 73.2386 94.217 73.2957 94.11C73.3408 94.0291 73.3789 93.9435 73.4264 93.8627C73.4431 93.8341 73.4645 93.8056 73.4811 93.7771C73.5786 93.613 73.4383 93.8508 73.4146 93.8603C73.4407 93.8508 73.707 93.5845 73.5263 93.7367C73.3908 93.8508 73.4692 93.7818 73.5097 93.7604C73.669 93.6677 73.4098 93.7985 73.3932 93.7985C73.4193 93.7985 73.4954 93.7676 73.5144 93.7604C73.6452 93.7129 73.5453 93.8389 73.3932 93.7723C73.4169 93.7842 73.4692 93.7652 73.4954 93.7699C73.6357 93.7913 73.2861 93.701 73.4455 93.7604C73.4574 93.7652 73.5762 93.7866 73.5786 93.7985C73.4526 93.739 73.4312 93.7295 73.5097 93.7676C73.5525 93.7866 73.5929 93.8104 73.6357 93.8341C74.0661 94.0743 74.4465 94.3953 74.884 94.6307C76.0634 95.268 77.3784 95.608 78.7195 95.6294C79.3424 95.6389 79.9369 95.0754 79.9084 94.4405C79.8798 93.789 79.3852 93.2611 78.7195 93.2516C78.5839 93.2492 78.446 93.2444 78.3105 93.2349C78.2391 93.2302 77.8539 93.185 78.1179 93.223C77.8135 93.1779 77.5139 93.116 77.2191 93.0328C77.1049 92.9995 76.9908 92.9639 76.8767 92.9258C76.8125 92.9044 76.7482 92.8806 76.684 92.8569C76.6508 92.845 76.4486 92.7689 76.5889 92.8236C76.7269 92.8783 76.5271 92.7974 76.4962 92.7808C76.4344 92.7522 76.3726 92.7237 76.3107 92.6928C76.1728 92.6238 76.0373 92.5525 75.9065 92.4764C75.3644 92.1602 74.8983 91.7536 74.3015 91.5372C73.6785 91.3089 73.0175 91.3707 72.4254 91.6513C71.5052 92.0888 71.0201 93.1802 70.8489 94.129C70.6373 95.2965 70.6919 96.5116 70.6634 97.6933C70.6277 99.1533 70.5945 100.613 70.5588 102.073C70.5445 102.696 71.1152 103.291 71.7477 103.262C72.4349 103.231 72.8843 102.739 72.9366 102.073C73.1387 99.5599 73.3408 97.049 73.543 94.5356C73.6428 93.2801 73.7451 92.0222 73.8449 90.7668C73.9329 89.6825 74.0304 88.5934 73.8949 87.5091C73.7356 86.2275 73.3028 85.0862 72.4515 84.0994C71.7525 83.2861 70.8156 82.6774 69.893 82.1495C67.8766 80.9987 65.7437 80.0357 63.5585 79.2486C61.1379 78.3759 58.634 77.7411 56.0898 77.3535C55.4787 77.2608 54.782 77.508 54.6274 78.1833C54.4824 78.8158 54.8176 79.465 55.4573 79.6457C55.8496 79.7575 56.2348 79.8882 56.6129 80.0428C56.6533 80.0594 56.7009 80.0713 56.7389 80.0951C56.7342 80.0904 56.5392 80.0071 56.6628 80.0642C56.7579 80.1094 56.8554 80.1498 56.9529 80.195C57.1455 80.2853 57.3357 80.3781 57.526 80.4732C58.2488 80.8417 58.9479 81.2531 59.647 81.6645C61.0927 82.5181 62.5622 83.3813 64.1767 83.8782C66.1028 84.4703 68.0882 84.3348 70.0143 83.8212C71.9855 83.2957 73.9139 82.5657 75.8471 81.9141C78.106 81.1556 80.3625 80.3971 82.6215 79.6386C82.3171 78.9133 82.0104 78.1905 81.706 77.4652C81.2827 77.7886 80.8333 78.0716 80.3578 78.3117C80.2579 78.3617 80.158 78.4092 80.0582 78.4568C79.9963 78.4853 79.9321 78.5139 79.8679 78.5424C79.7181 78.6114 80.0748 78.4592 79.9226 78.521C79.6753 78.6185 79.4281 78.7136 79.176 78.7968C78.1749 79.1297 77.1358 79.3413 76.0967 79.5125C74.0042 79.8597 71.8595 80.0428 69.8359 80.7157C68.5686 81.139 67.4201 81.7382 66.3762 82.5728C65.6748 83.134 66.0909 84.3704 66.9017 84.5606C67.9717 84.8103 69.0203 85.1361 70.0404 85.5403C70.1593 85.5879 70.2806 85.6378 70.3995 85.6854C70.1498 85.5855 70.4922 85.7258 70.5612 85.7567C70.8275 85.8732 71.0914 85.9969 71.3506 86.1229C71.8428 86.363 72.3279 86.6222 72.8034 86.898C73.279 87.1739 73.7427 87.4663 74.1969 87.7755C74.4109 87.9205 74.6201 88.0703 74.8294 88.2225C74.934 88.2986 75.0362 88.377 75.1385 88.4531C75.3144 88.5863 75.1622 88.4698 75.129 88.4436C75.205 88.5031 75.2811 88.5625 75.3572 88.6243C76.2014 89.2996 76.9955 90.0391 77.7303 90.831C78.1845 91.3208 78.641 91.794 79.1974 92.172C79.887 92.6405 80.6598 92.7784 81.4706 92.6428C81.9604 92.5596 82.3647 91.9771 82.3433 91.4968C82.3171 90.9285 81.9794 90.5575 81.4706 90.3506C81.3779 90.3126 81.2828 90.2745 81.19 90.2341C81.1139 90.2032 80.9094 90.1152 81.0997 90.1961C80.8975 90.1105 80.6954 90.0225 80.4957 89.9345C80.0938 89.7586 79.6944 89.5755 79.2973 89.3876C78.5173 89.0191 77.7493 88.6315 76.9908 88.2225C75.4737 87.4069 73.9971 86.5128 72.5704 85.5451C71.8713 85.0719 71.1842 84.5797 70.5112 84.0708C70.4161 83.9995 70.3234 83.9282 70.2283 83.8568C70.1879 83.8259 70.1474 83.795 70.107 83.7641C70.1213 83.7736 70.2544 83.8782 70.1474 83.795C69.9762 83.6595 69.8026 83.5239 69.6291 83.386C69.2985 83.1221 68.9728 82.8534 68.6494 82.5823C67.3368 81.4766 66.0909 80.2996 64.8925 79.0726C63.5466 77.6959 61.9558 76.2644 59.9038 76.3144C59.2832 76.3286 58.6863 76.8494 58.7149 77.5033C58.741 78.1191 59.2356 78.6922 59.9014 78.6756Z" fill="#424242"/>
</g>
<g opacity="0.36">
<path d="M91.6572 39.0183C89.8405 34.9618 87.3605 31.2072 84.3716 27.9187C83.5346 26.9961 82.6524 26.1139 81.7369 25.2722C81.6561 25.8951 81.5776 26.5181 81.4968 27.1387C81.1567 27.3028 81.5087 27.1102 81.5301 27.1435C81.4801 27.1483 81.4302 27.153 81.3779 27.1601C81.4326 27.1554 81.4896 27.153 81.5443 27.153C81.6846 27.1364 81.5871 27.0959 81.4801 27.134C81.5372 27.115 81.6727 27.1815 81.7298 27.1934C81.9914 27.2457 81.5871 27.1055 81.7274 27.1863C81.7916 27.222 81.8582 27.2529 81.92 27.2909C81.9438 27.3076 81.97 27.3218 81.9937 27.3385C82.1007 27.4146 82.0912 27.4051 81.9628 27.3099C82.027 27.3266 82.1174 27.4526 82.1578 27.4954C82.1887 27.5287 82.3861 27.776 82.2196 27.5501C82.2577 27.6024 82.2957 27.6547 82.3314 27.707C82.4384 27.8687 82.5359 28.0376 82.6262 28.2088C82.7951 28.5298 82.9401 28.8627 83.0947 29.1908C83.7557 30.5937 84.519 32.0751 85.57 33.2283C86.0693 33.7752 86.7399 34.2698 87.4746 34.4244C88.4448 34.6289 89.2841 34.3269 90.1473 33.9036C91.7095 33.1356 93.2717 32.3628 94.834 31.5924C96.5721 30.734 98.3127 29.878 100.051 29.0196C99.6514 28.3348 99.2519 27.65 98.8501 26.9675C96.5008 28.3134 94.1515 29.6568 91.8022 31.0027C91.2363 31.3285 91.0675 32.0703 91.3766 32.6291C92.2041 34.1271 93.6308 35.2447 95.2715 35.7179C95.8683 35.8891 96.5935 35.5087 96.7338 34.888C96.8789 34.2532 96.5436 33.6112 95.904 33.4257C95.7423 33.3781 95.5877 33.3211 95.4308 33.2664C95.2929 33.2188 95.6258 33.3615 95.4213 33.2616C95.3404 33.2212 95.2572 33.1831 95.1764 33.1403C95.0432 33.069 94.91 32.9929 94.784 32.9121C94.7079 32.8621 94.6342 32.8098 94.5581 32.7575C94.375 32.6315 94.6532 32.8455 94.5462 32.7504C94.3061 32.5388 94.0731 32.3295 93.8614 32.0846C93.84 32.0584 93.6807 31.8563 93.783 31.9919C93.8876 32.1274 93.733 31.9205 93.714 31.892C93.6118 31.7422 93.5166 31.5853 93.4287 31.4259C93.286 31.9681 93.1433 32.5102 93.003 33.0524C95.3523 31.7065 97.7016 30.3631 100.051 29.0172C100.591 28.7081 100.824 27.9258 100.477 27.3908C100.108 26.8177 99.4469 26.6703 98.8501 26.9652C95.7447 28.4965 92.6392 30.0278 89.5314 31.5591C89.3364 31.6542 89.1415 31.7517 88.9465 31.8468C88.8847 31.8777 88.8252 31.9063 88.7634 31.9372C88.7301 31.9538 88.4186 32.0822 88.6754 31.9824C88.5161 32.0442 88.3568 32.087 88.1927 32.1298C88.4566 32.0608 88.188 32.1155 88.1237 32.1226C87.8788 32.1536 88.3235 32.1892 88.1047 32.1274C88.0714 32.1179 87.8788 32.0917 87.8646 32.0584C87.8979 32.1369 88.0691 32.1583 87.8812 32.0608C87.8194 32.0275 87.7576 31.9942 87.6981 31.9562C87.6743 31.9396 87.6506 31.9253 87.6268 31.9086C87.5222 31.8326 87.5341 31.8421 87.6601 31.9396C87.6387 31.9657 87.0418 31.3142 86.9848 31.2333C87.1607 31.4783 86.9848 31.2262 86.9562 31.1858C86.923 31.1382 86.8897 31.0883 86.8564 31.0384C86.7399 30.8672 86.6305 30.6936 86.5211 30.5176C86.3071 30.1728 86.1002 29.8209 85.9029 29.4666C85.52 28.7771 85.1895 28.0661 84.8495 27.3527C84.4619 26.5371 83.9554 25.7834 83.1898 25.2793C82.31 24.6991 81.2328 24.6349 80.2912 25.0843C79.6135 25.4101 79.5184 26.4634 80.0511 26.9509C81.6513 28.4204 83.1351 30.0135 84.4833 31.716C84.557 31.8088 84.6284 31.9015 84.7021 31.9942C84.5523 31.804 84.7805 32.0965 84.8233 32.1536C84.9969 32.3818 85.1658 32.6125 85.3346 32.8431C85.6508 33.2783 85.9599 33.7205 86.2595 34.1699C86.8588 35.0664 87.4223 35.9842 87.9478 36.9258C88.5494 37.9982 89.0987 39.0968 89.6004 40.2191C89.8548 40.7898 90.7275 40.9681 91.2268 40.6447C91.8213 40.2643 91.9306 39.627 91.6572 39.0183Z" fill="#424242"/>
</g>
<g opacity="0.36">
<path d="M71.3197 39.8434C71.4457 39.8862 71.6122 39.9195 71.7239 39.9932C71.4838 39.8315 71.6788 39.9742 71.7548 40.0099C71.819 40.0384 71.8832 40.0693 71.9474 40.1002C72.2161 40.231 72.4777 40.3761 72.7297 40.533C72.9842 40.6899 73.2339 40.8588 73.4764 41.0347C73.5335 41.0775 73.5929 41.1203 73.65 41.1631C73.6619 41.1726 73.8877 41.3462 73.7356 41.2273C73.5834 41.1084 73.8093 41.2868 73.8188 41.2939C73.8878 41.3486 73.9543 41.4033 74.0209 41.458C74.9697 42.2331 75.8542 43.082 76.8053 43.8524C77.3308 44.2781 77.8706 44.6918 78.446 45.0532C78.7005 45.2125 78.962 45.3623 79.2307 45.4955C79.3591 45.5597 79.4875 45.6215 79.6207 45.6786C79.7538 45.738 79.8894 45.7951 80.0225 45.8498C79.8608 45.7761 79.8347 45.7689 79.944 45.826C79.9654 45.8403 79.9845 45.8522 80.0059 45.8664C79.9654 45.8355 79.925 45.8046 79.8846 45.7737C79.9226 45.807 79.9583 45.8427 79.9916 45.8783C79.9583 45.8355 79.9274 45.7927 79.8941 45.7499C79.9417 45.8355 79.9417 45.826 79.8941 45.7214C79.8394 45.3338 79.7348 44.2543 80.6764 44.4516C80.6503 44.4469 80.3887 44.3969 80.5861 44.4516C80.7858 44.5063 80.5242 44.4326 80.5005 44.4279C80.4339 44.4112 80.3673 44.3922 80.3031 44.3684C80.2912 44.3637 80.2769 44.3589 80.2651 44.3541C80.1438 44.3066 80.1628 44.3161 80.3197 44.3779C80.2769 44.3922 80.1057 44.2638 80.0653 44.2376C80.0154 44.2067 79.9274 44.1687 79.8941 44.1211C80.0368 44.3137 79.9869 44.1925 79.9108 44.1211C79.8584 44.0736 79.8109 44.026 79.7633 43.9761C79.7514 43.9642 79.5612 43.7645 79.6944 43.9071C79.8228 44.0427 79.6563 43.8477 79.6421 43.8263C79.604 43.7692 79.5684 43.7098 79.5374 43.6479C79.5089 43.5956 79.4518 43.5195 79.4447 43.4625C79.5089 43.6194 79.5208 43.6384 79.4756 43.5148C79.4613 43.4767 79.4495 43.4363 79.44 43.3959C79.4328 43.3697 79.3781 43.208 79.3924 43.1938C79.4138 43.3745 79.4162 43.3959 79.4043 43.2627C79.4019 43.2342 79.4019 43.208 79.3995 43.1795C79.3972 43.0963 79.4019 43.0131 79.4043 42.9298C79.4138 42.6659 79.3353 43.17 79.4114 42.9179C79.4352 42.8395 79.459 42.7586 79.478 42.6802C79.5351 42.4543 79.3615 42.8799 79.4851 42.6588C79.5565 42.5304 79.6302 42.3354 79.7443 42.2355C79.5422 42.4138 79.6872 42.314 79.7443 42.2522C79.8109 42.1808 79.8822 42.1166 79.9536 42.0477C80.1153 41.8907 79.9131 42.0667 79.9084 42.0786C79.9488 42.0096 80.12 41.9383 80.189 41.9002C80.2175 41.886 80.3269 41.8432 80.3364 41.8242C80.1771 41.8884 80.1604 41.8955 80.2817 41.8479C80.334 41.8289 80.3863 41.8123 80.4386 41.798C80.4909 41.7837 80.5456 41.7718 80.5979 41.7576C80.7287 41.7338 80.705 41.7362 80.5266 41.7623C80.5813 41.7576 80.6384 41.7528 80.6931 41.7528C81.2875 41.729 81.7797 41.3177 81.8606 40.7208C81.939 40.1407 81.5824 39.5795 81.0093 39.4154C79.3306 38.9399 78.0537 40.0836 76.7197 40.8825C76.5794 40.9658 76.4391 41.0442 76.2917 41.1156C76.2537 41.1346 76.2014 41.1489 76.1681 41.1726C76.1681 41.1726 76.4106 41.0894 76.2965 41.1156C76.2133 41.1346 76.13 41.175 76.0468 41.1988C75.9826 41.2154 75.8851 41.2202 75.8257 41.2487C75.8447 41.2392 76.1372 41.2273 75.9493 41.2297C75.916 41.2297 75.8851 41.2345 75.8518 41.2345C75.7805 41.2368 75.6925 41.213 75.6236 41.2249C75.6545 41.2202 75.9208 41.2939 75.7424 41.2345C75.6782 41.213 75.6117 41.2012 75.5475 41.1821C74.9197 40.9895 74.3942 40.766 73.7142 40.892C73.0745 41.0109 72.5752 41.4913 72.2471 42.0286C71.9474 42.5161 71.7334 43.0677 71.4885 43.5837C71.2032 44.1853 70.9155 44.7869 70.6301 45.3885C70.3638 45.9497 70.4566 46.6987 71.0558 47.0149C71.586 47.2955 72.3969 47.1885 72.6822 46.5893C73.1364 45.6334 73.5905 44.6775 74.0471 43.724C74.1327 43.5433 74.2183 43.3626 74.3253 43.1938C74.33 43.1866 74.399 43.0868 74.399 43.0844C74.4465 43.1391 74.2349 43.2437 74.38 43.132C74.3728 43.1367 74.1897 43.2485 74.3039 43.189C74.4489 43.1153 74.0827 43.2722 74.2563 43.2057C74.3823 43.1581 74.1992 43.2175 74.1778 43.2175C73.9567 43.2175 74.0661 43.189 74.1493 43.2128C74.2468 43.239 74.3419 43.2675 74.437 43.3008C74.6629 43.3792 74.8817 43.4767 75.1147 43.5267C76.7126 43.8762 77.9253 42.8989 79.1903 42.1047C79.3472 42.0049 79.5089 41.9121 79.673 41.8265C79.7205 41.8028 79.9631 41.6934 79.7752 41.7718C79.5874 41.8503 79.8513 41.7481 79.9084 41.729C79.9797 41.7076 80.0534 41.6934 80.1248 41.672C80.227 41.6434 80.2722 41.7005 79.9964 41.6839C80.0368 41.6862 80.082 41.6767 80.1224 41.6743C80.1961 41.672 80.2698 41.6815 80.3435 41.6791C80.4886 41.6767 80.0843 41.6078 80.2199 41.6648C80.2674 41.6839 80.334 41.691 80.3816 41.7053C80.4862 40.9277 80.5932 40.1478 80.6978 39.3702C78.7623 39.4487 77.181 40.999 77.0336 42.9251C76.8957 44.7013 78.3771 46.4918 80.1224 46.7605C80.831 46.8699 81.6323 46.8128 82.0294 46.1114C82.3552 45.5335 82.2101 44.8701 81.8225 44.3684C81.6513 44.1449 81.454 43.9666 81.2162 43.8096C81.1567 43.7692 81.0949 43.7383 81.0283 43.7074C81.045 43.7145 80.5813 43.5148 80.8072 43.6146C80.9594 43.6812 80.781 43.6028 80.7501 43.5885C80.4244 43.4411 80.1081 43.2722 79.8014 43.0868C79.4827 42.8942 79.1736 42.6825 78.8717 42.4614C78.8526 42.4471 78.6719 42.2997 78.6648 42.3045C78.6672 42.3021 78.8407 42.4424 78.7337 42.3568C78.7004 42.3306 78.6648 42.3021 78.6315 42.2759C78.4722 42.1499 78.3152 42.0215 78.1583 41.8907C77.5876 41.4128 77.036 40.9111 76.4748 40.4212C75.1123 39.2347 73.6856 38.1409 71.9593 37.5465C71.3696 37.3443 70.6325 37.7771 70.497 38.3763C70.34 39.0421 70.6896 39.627 71.3197 39.8434Z" fill="#424242"/>
</g>
<g opacity="0.36">
<path d="M22.1274 43.4125C23.7229 43.277 25.2923 42.9417 26.7808 42.3425C27.5346 42.0382 28.2717 41.6981 28.9755 41.2915C29.6033 40.9277 30.2072 40.5235 30.8588 40.2025C30.9515 40.1573 31.0442 40.1145 31.137 40.0717C31.0942 40.0907 30.9253 40.1502 31.137 40.0741C31.2987 40.0146 31.458 39.9599 31.6244 39.9148C31.729 39.8862 31.836 39.8625 31.943 39.8411C31.9288 39.8434 32.2902 39.7864 32.119 39.8078C31.9454 39.8315 32.3116 39.7911 32.2973 39.7911C32.4091 39.7816 32.5232 39.7745 32.635 39.7697C33.4886 39.7317 34.3494 39.7531 35.203 39.7531C36.8675 39.7507 38.532 39.7483 40.1965 39.7459C41.0477 39.7436 41.9037 39.734 42.7526 39.8149C42.8216 39.822 42.8905 39.8292 42.9595 39.8363C43.0998 39.8529 43.0974 39.8529 42.9523 39.8339C43.0213 39.8434 43.0903 39.8553 43.1568 39.8648C43.3613 39.8981 43.5634 39.9409 43.7632 39.9909C43.9463 40.036 44.127 40.0907 44.3053 40.1502C44.3862 40.1787 44.467 40.2096 44.5479 40.2381C44.2958 40.143 44.6905 40.3071 44.7357 40.3309C44.9354 39.5914 45.1352 38.8543 45.3349 38.1148C43.2282 37.8342 41.119 37.5536 39.0123 37.2754C37.9589 37.1351 36.9056 36.9948 35.8498 36.8545C35.7143 36.8355 35.5764 36.8188 35.4408 36.7998C35.2863 36.7808 35.4717 36.8046 35.4931 36.807C35.4479 36.7998 35.4051 36.7927 35.36 36.7856C35.3528 36.7832 35.0532 36.7214 35.0556 36.7118C35.058 36.7071 35.2625 36.807 35.1412 36.7404C35.0461 36.6881 35.2221 36.826 35.2435 36.8474C35.3552 36.952 35.2411 36.826 35.2125 36.7879C35.1222 36.6714 35.2625 36.8759 35.2387 36.8688C35.2078 36.8616 35.1626 36.6429 35.1507 36.6096C35.0865 36.4051 35.0271 36.203 34.9486 36.0032C34.504 34.8904 33.7977 34.0035 32.8323 33.2973C32.4543 33.0215 31.8527 33.1261 31.5127 33.39C31.1322 33.6849 30.9681 34.17 31.087 34.6408C31.4699 36.1673 32.3544 37.594 33.5885 38.576C33.7645 37.9126 33.938 37.2516 34.114 36.5882C33.3697 36.7689 32.6231 36.9258 31.867 37.0519C31.6791 37.0828 31.4889 37.1137 31.301 37.1422C31.1869 37.1589 31.0751 37.1755 30.961 37.1898C31.087 37.1731 31.0276 37.1803 30.9349 37.1922C30.5354 37.2397 30.1383 37.2849 29.7364 37.3182C28.1932 37.449 26.6405 37.4608 25.0949 37.361C25.1996 38.1385 25.3066 38.9185 25.4112 39.696C26.543 39.2395 27.7129 38.8852 28.9113 38.6402C29.2014 38.5808 29.4915 38.5285 29.784 38.4809C29.8577 38.469 29.929 38.4595 30.0027 38.4476C30.105 38.431 30.1383 38.4286 30.017 38.4453C30.1644 38.4262 30.3095 38.4096 30.4569 38.393C31.0823 38.3264 31.71 38.2883 32.3378 38.2788C32.9584 38.2693 33.5552 37.7391 33.5267 37.0899C33.4981 36.455 33.0036 35.8915 32.3378 35.901C29.7555 35.9414 27.1755 36.4384 24.7787 37.4038C24.2223 37.6273 23.8418 38.0767 23.9274 38.7092C24.0083 39.3155 24.4981 39.7008 25.0949 39.7412C28.3288 39.9528 31.5983 39.6532 34.7465 38.8852C35.5502 38.6878 35.9806 37.4632 35.272 36.8973C35.0152 36.6928 34.7726 36.4717 34.5491 36.2291C34.4968 36.1721 34.4445 36.1126 34.3922 36.0532C34.3898 36.0508 34.202 35.8225 34.3066 35.9557C34.4112 36.0865 34.2495 35.8772 34.2305 35.8511C34.1758 35.775 34.1235 35.6965 34.0736 35.618C33.9047 35.3541 33.7573 35.0783 33.6265 34.7929C33.4958 34.51 33.705 35.0236 33.6028 34.7311C33.5766 34.6574 33.5481 34.5837 33.5243 34.51C33.4696 34.3459 33.422 34.1818 33.3816 34.013C32.7991 34.46 32.2165 34.9071 31.6363 35.3565C31.7457 35.435 31.7267 35.3565 31.6149 35.3375C31.6434 35.3422 31.6981 35.4088 31.7195 35.4254C31.8004 35.4968 31.8788 35.5681 31.9549 35.6442C32.0191 35.7084 32.0833 35.775 32.1428 35.8439C32.1666 35.8701 32.2593 35.9581 32.2617 35.9842C32.2545 35.9272 32.1499 35.8273 32.245 35.9628C32.3592 36.1269 32.4685 36.2933 32.5637 36.4669C32.5827 36.5026 32.7206 36.7071 32.7063 36.7546C32.7063 36.7546 32.6279 36.5478 32.6754 36.6833C32.7016 36.7546 32.7301 36.826 32.7539 36.8997C32.9346 37.4371 33.0701 37.984 33.4648 38.4144C33.8405 38.8257 34.3637 39.0326 34.9034 39.1087C37.1481 39.4273 39.3975 39.7055 41.6445 40.0051C42.8739 40.1692 44.1032 40.3309 45.3325 40.4949C45.8224 40.5592 46.374 40.0812 46.4786 39.6223C46.5904 39.1325 46.4144 38.519 45.9317 38.2788C44.4266 37.5346 42.7788 37.38 41.1214 37.3681C39.4237 37.3562 37.7259 37.3705 36.0281 37.3729C35.1959 37.3753 34.3637 37.3752 33.5314 37.3776C32.6469 37.38 31.7409 37.3967 30.8849 37.6487C29.3774 38.0934 28.1338 39.1111 26.7309 39.7816C26.5383 39.8743 26.3457 39.9623 26.1483 40.0455C26.3908 39.9433 26.0651 40.0764 26.0389 40.0883C25.9391 40.1264 25.8392 40.1644 25.7393 40.2025C25.3398 40.3499 24.9332 40.4807 24.5219 40.5924C24.1105 40.7066 23.6944 40.8017 23.2759 40.8778C23.1713 40.8968 23.0667 40.9158 22.962 40.9325C22.8931 40.9444 22.8217 40.9539 22.7504 40.9658C22.6268 40.9824 22.6101 40.9848 22.6981 40.9729C22.8788 40.9491 22.534 40.9919 22.5388 40.9919C22.3985 41.0086 22.2558 41.0204 22.1155 41.0323C21.4973 41.0846 20.8957 41.5412 20.9266 42.2212C20.967 42.8228 21.464 43.4696 22.1274 43.4125Z" fill="#424242"/>
</g>
<g opacity="0.36">
<path d="M32.5161 45.864C33.8738 44.9533 34.8915 43.5647 35.2625 41.962C35.3338 41.6529 35.3053 41.3224 35.1436 41.0466C34.9985 40.7993 34.7156 40.5639 34.4326 40.4997C33.8263 40.3618 33.12 40.6828 32.9702 41.3295C32.9037 41.6196 32.8133 41.9026 32.6992 42.1784C32.7396 42.0833 32.78 41.9882 32.8181 41.8955C32.6373 42.3235 32.4019 42.7229 32.119 43.0915C32.1808 43.0107 32.2426 42.9322 32.3045 42.8514C32.0286 43.2033 31.7124 43.5195 31.3581 43.7953C31.4389 43.7335 31.5174 43.6717 31.5982 43.6099C31.5055 43.6812 31.4128 43.7478 31.3153 43.812C31.0561 43.9856 30.854 44.2162 30.7684 44.523C30.6899 44.8083 30.7256 45.1864 30.8873 45.4384C31.2202 45.9496 31.9644 46.235 32.5161 45.864Z" fill="#424242"/>
</g>
<g opacity="0.36">
<path d="M37.6831 62.2496C37.0197 62.9653 36.3182 63.6501 35.5835 64.2921C35.2149 64.6131 34.8392 64.9246 34.4564 65.2266C34.4398 65.2385 34.3114 65.3408 34.4231 65.2528C34.542 65.16 34.3779 65.2861 34.3494 65.3075C34.259 65.3764 34.1687 65.4454 34.076 65.512C33.8786 65.657 33.6812 65.7997 33.4815 65.94C31.8955 67.0528 30.193 67.9968 28.412 68.7648C28.2051 68.8528 28.3858 68.7743 28.4263 68.7601C28.3502 68.791 28.2765 68.8219 28.2004 68.8528C28.0791 68.9027 27.9578 68.9503 27.8366 68.9978C27.5798 69.0977 27.3182 69.1952 27.059 69.2879C26.5383 69.4734 26.0104 69.6422 25.4778 69.7968C24.9071 69.9632 24.548 70.5173 24.6265 71.1022C24.7097 71.7276 25.1972 72.0676 25.794 72.1342C27.5132 72.322 29.3251 71.856 30.7565 70.8858C30.2144 70.3437 29.6722 69.8016 29.1301 69.2594C28.2146 70.8573 27.7724 72.7382 27.9436 74.5786C27.9983 75.173 28.3549 75.6629 28.9755 75.7461C29.5201 75.8198 30.1668 75.4774 30.281 74.8948C30.4022 74.2718 30.5687 73.6584 30.7827 73.0615C30.835 72.9189 30.8897 72.7786 30.9444 72.6383C31.0561 72.3506 30.8374 72.8689 30.9658 72.5884C30.9896 72.5337 31.0157 72.479 31.0395 72.4219C31.1774 72.1199 31.3272 71.8227 31.4889 71.5326C31.6363 71.2687 31.7909 71.0095 31.9573 70.7574C32.0405 70.6314 32.1238 70.5054 32.2118 70.3817C32.2546 70.3199 32.2997 70.2581 32.3449 70.1986C32.3853 70.144 32.5565 69.8634 32.4044 70.113C32.5542 69.8634 32.7919 69.6351 32.9869 69.4187C33.2104 69.1714 33.4435 68.9336 33.6836 68.7078C33.9024 68.5009 34.1306 68.3011 34.3637 68.1109C34.4041 68.0776 34.4612 68.0158 34.504 67.9968C34.2662 68.1014 34.4826 68.0134 34.5515 67.9635C34.6847 67.8636 34.8202 67.7685 34.9581 67.6758C35.1959 67.5141 35.4384 67.3619 35.6881 67.2192C35.8355 67.1336 35.983 67.0575 36.1351 66.9815C35.8926 67.1003 36.1827 66.9648 36.2255 66.9505C36.323 66.9196 36.4181 66.8982 36.5156 66.8768C36.1256 66.9601 36.9769 66.8602 36.5441 66.8721C36.6868 66.8673 36.8532 66.9458 36.9888 66.991C37.2741 67.0861 36.7843 66.8697 37.0482 67.0195C37.1029 67.0504 37.1624 67.0766 37.2171 67.1075C37.3859 67.2002 37.55 67.3025 37.7116 67.4095C38.3013 67.7971 38.872 68.1965 39.5021 68.5152C41.0763 69.3165 42.7669 69.7754 44.5288 69.9038C45.1185 69.9466 45.6226 69.4187 45.6964 68.8718C45.7653 68.3511 45.43 67.6472 44.8451 67.5664C44.2292 67.4832 43.6277 67.3262 43.0427 67.1217C42.7479 67.0195 42.4578 66.9054 42.1701 66.7865C42.1296 66.7698 41.9608 66.6961 42.1653 66.7841C42.1011 66.7556 42.0369 66.7294 41.9727 66.7009C41.8134 66.6319 41.6541 66.5606 41.4947 66.4916C40.3296 65.9756 39.1597 65.4264 37.9066 65.16C36.6678 64.8961 35.3053 64.82 34.095 65.2623C33.4292 65.5048 32.8847 65.8425 32.3378 66.2848C31.9383 66.6081 31.565 66.9648 31.1703 67.2929C31.0014 67.4332 31.2012 67.2787 31.2131 67.2597C31.1822 67.3048 31.0918 67.3476 31.0442 67.3786C30.9444 67.4475 30.8398 67.5093 30.7327 67.5664C30.6995 67.5854 30.6115 67.614 30.5901 67.6377C30.6115 67.614 30.8516 67.5498 30.6543 67.6068C30.6043 67.6211 30.5544 67.6401 30.5021 67.6544C30.3594 67.6924 30.2715 67.6449 30.5045 67.671C30.4569 67.6663 30.3903 67.6805 30.3404 67.6829C30.338 67.6829 30.0075 67.671 30.1977 67.6877C30.3571 67.6996 30.1502 67.6758 30.1098 67.6663C30.0289 67.6472 29.9481 67.6235 29.8672 67.5973C29.803 67.5759 29.7412 67.5521 29.677 67.5284C29.7222 67.545 29.8815 67.6258 29.6794 67.526C29.5248 67.4499 29.3726 67.3714 29.2228 67.2906C28.0625 66.6581 26.8783 66.0921 25.6514 65.5976C23.3211 64.6607 20.8838 64.0187 18.4252 63.536C15.5623 62.9725 12.6637 62.6158 9.76991 62.2639C9.1493 62.1878 8.55485 62.8655 8.581 63.4528C8.61191 64.1614 9.1065 64.5608 9.76991 64.6417C10.3953 64.7178 11.023 64.7939 11.6484 64.8747C11.9623 64.9151 12.2761 64.9556 12.59 64.996C12.6661 65.0055 13.0513 65.0578 12.7969 65.0221C12.9705 65.0459 13.1464 65.0697 13.32 65.0935C14.5731 65.267 15.8262 65.462 17.0698 65.6903C19.5047 66.1397 21.9206 66.7294 24.2437 67.5902C24.5362 67.6996 24.8286 67.8113 25.1163 67.9302C25.1901 67.9587 25.5301 68.1038 25.3137 68.0111C25.473 68.08 25.6323 68.149 25.7916 68.2203C26.3623 68.4771 26.9259 68.7506 27.4799 69.0478C28.6902 69.6945 29.96 70.4008 31.3629 69.8776C31.9787 69.647 32.4828 69.2903 32.9822 68.8694C33.1581 68.722 33.3269 68.5698 33.4981 68.4177C33.5956 68.3321 33.6908 68.2465 33.7906 68.1609C33.8453 68.1133 33.9 68.0681 33.9547 68.0229C33.9832 67.9992 34.183 67.8565 34.0355 67.9564C33.8762 68.0657 34.1069 67.9088 34.1188 67.8993C34.1639 67.8684 34.2115 67.8375 34.2591 67.8066C34.3661 67.74 34.4754 67.6758 34.5872 67.6211C34.6347 67.5973 34.7013 67.5569 34.756 67.5402C34.504 67.6116 34.7085 67.564 34.775 67.5402C34.9201 67.4879 35.0699 67.4451 35.2197 67.4095C35.2791 67.3952 35.7309 67.2953 35.4075 67.3619C35.5288 67.3381 35.6572 67.3358 35.7809 67.3286C36.0828 67.3144 36.3848 67.3239 36.6844 67.35C36.7248 67.3548 36.9293 67.3714 36.7653 67.3548C36.5917 67.3381 36.9056 67.3762 36.9412 67.3833C37.1005 67.4118 37.2599 67.4428 37.4168 67.4784C37.733 67.5521 38.0445 67.6401 38.3513 67.7447C38.6675 67.8494 38.9743 67.9754 39.2834 68.0967C39.4546 68.1632 39.1193 68.0253 39.2881 68.099C39.3832 68.1395 39.4807 68.1823 39.5759 68.2227C39.7352 68.2916 39.8945 68.363 40.0538 68.4343C41.3925 69.0288 42.7479 69.6541 44.2102 69.8539C44.3148 69.0763 44.4218 68.2964 44.5265 67.5188C44.322 67.5046 44.1175 67.4832 43.913 67.4594C43.9582 67.4642 44.1531 67.4974 43.9225 67.4594C43.8203 67.4428 43.7204 67.4285 43.6181 67.4095C43.2472 67.3429 42.8786 67.2573 42.5172 67.155C42.1558 67.0528 41.7967 66.9315 41.4472 66.796C41.383 66.7722 41.3188 66.746 41.257 66.7199C41.5114 66.8221 41.1951 66.6914 41.1642 66.6771C40.9764 66.5915 40.7933 66.5011 40.6102 66.406C39.281 65.7141 38.0493 64.4229 36.4443 64.5038C35.5811 64.5466 34.8155 64.9365 34.0974 65.3883C33.4767 65.7783 32.8847 66.2277 32.333 66.7104C31.2844 67.6306 30.3785 68.7363 29.658 69.9299C28.859 71.2544 28.2788 72.7334 27.984 74.2504C28.7615 74.3551 29.5415 74.4621 30.319 74.5667C30.2833 74.1767 30.2715 73.7844 30.2929 73.3921C30.3024 73.2042 30.3214 73.0187 30.3428 72.8333C30.3095 73.1186 30.3547 72.781 30.3618 72.7453C30.3785 72.6454 30.3999 72.5432 30.4213 72.4433C30.4997 72.0771 30.6067 71.7157 30.7375 71.3638C30.747 71.3352 30.8754 71.0214 30.7708 71.2687C30.8112 71.1759 30.854 71.0808 30.8968 70.9905C30.9848 70.805 31.0823 70.6267 31.1845 70.4483C31.4366 70.006 31.3866 69.364 30.9991 69.0074C30.6281 68.665 30.0051 68.5175 29.5581 68.8219C29.2537 69.0288 28.9375 69.2047 28.6046 69.364C28.3098 69.5043 28.8281 69.2879 28.5214 69.3997C28.4429 69.4282 28.3644 69.4568 28.286 69.4853C28.1124 69.5447 27.9364 69.5971 27.7605 69.6399C27.5988 69.6803 27.4347 69.7112 27.273 69.7421C26.9496 69.8039 27.5203 69.7255 27.1946 69.754C27.0947 69.7635 26.9948 69.773 26.8973 69.7778C26.5311 69.7992 26.165 69.7873 25.8012 69.7469C25.9058 70.5244 26.0128 71.3043 26.1174 72.0819C30.0788 70.9334 33.7526 68.9408 36.9008 66.2824C37.7711 65.5476 38.5962 64.7582 39.3714 63.9212C39.7946 63.4647 39.8564 62.6847 39.3714 62.2401C38.9053 61.8263 38.1349 61.7621 37.6831 62.2496Z" fill="#424242"/>
</g>
<path d="M34.4849 42.8632C28.4691 46.5607 18.4941 49.3737 18.7913 51.1856C19.7139 56.7949 33.3365 55.0234 41.6184 65.4525C46.9352 72.146 50.9418 77.4486 53.983 77.8171C57.7566 78.2737 84.2241 75.1469 93.4548 69.257C100.196 64.9555 94.3346 63.3362 110.1 57.9433C118.614 55.0329 114.185 53.0878 114.142 52.3745C113.983 49.7779 105.261 51.0572 97.7349 44.2899C94.7317 41.5887 93.5737 39.0944 90.8392 39.0587C88.226 39.0254 87.515 41.282 83.7058 43.3388C82.8593 43.7953 76.9123 46.9103 71.3411 45.241C65.5939 43.5171 64.2077 37.8888 60.6409 38.5832C58.6317 38.9755 49.9194 37.2064 47.0874 38.5237C43.8821 40.017 36.965 41.339 34.4849 42.8632Z" fill="url(#paint0_linear_10_209)" stroke="black" stroke-miterlimit="10"/>
<path d="M39.3381 62.9867L25.4492 70.6837" stroke="black" stroke-miterlimit="10"/>
<path d="M30.5806 67.8398L29.4606 74.0507" stroke="black" stroke-miterlimit="10"/>
<path d="M5 64.977H5.23778" stroke="black" stroke-miterlimit="10"/>
<path d="M27.6915 69.4401H27.9293" stroke="black" stroke-miterlimit="10"/>
<path d="M29.1872 68.6126L9.51785 62.5991" stroke="black" stroke-miterlimit="10"/>
<path d="M43.7418 68.1299H43.9795" stroke="black" stroke-miterlimit="10"/>
<path d="M43.9796 68.1299L35.7476 64.977" stroke="black" stroke-miterlimit="10"/>
<path d="M60.4031 77.86L80.3768 90.8952" stroke="black" stroke-miterlimit="10"/>
<path d="M72.5372 85.7805L71.0177 101.833" stroke="black" stroke-miterlimit="10"/>
<path d="M67.042 82.1923L81.0901 77.86" stroke="black" stroke-miterlimit="10"/>
<path d="M71.8761 92.757L78.4745 93.8056" stroke="black" stroke-miterlimit="10"/>
<path d="M53.983 77.8172L67.042 82.1924" stroke="black" stroke-miterlimit="10"/>
<path d="M91.7903 70.9453L95.3571 82.8106" stroke="black" stroke-miterlimit="10"/>
<path d="M94.5129 80.0048L118.422 69.4401" stroke="black" stroke-miterlimit="10"/>
<path d="M113.058 71.8108L115.331 76.8779" stroke="black" stroke-miterlimit="10"/>
<path d="M90.8392 39.0587L80.3768 25.0296" stroke="black" stroke-miterlimit="10"/>
<path d="M87.1417 34.101L99.6371 27.6452" stroke="black" stroke-miterlimit="10"/>
<path d="M91.9829 31.5995L95.8326 33.8275" stroke="black" stroke-miterlimit="10"/>
<path d="M79.6254 44.9938L71.0177 38.0291" stroke="black" stroke-miterlimit="10"/>
<path d="M72.7535 45.5621L74.0661 40.4949" stroke="black" stroke-miterlimit="10"/>
<path d="M77.1977 43.0297L81.8035 40.4854" stroke="black" stroke-miterlimit="10"/>
<path d="M43.7418 40.0099L24.7359 38.0291" stroke="black" stroke-miterlimit="10"/>
<path d="M30.0194 39.0183L22.3581 42.1499" stroke="black" stroke-miterlimit="10"/>
<path d="M33.5814 41.2558L32.8871 43.529" stroke="black" stroke-miterlimit="10"/>
<path d="M37.4596 39.2989L32.1666 34.8215" stroke="black" stroke-miterlimit="10"/>
<defs>
<linearGradient id="paint0_linear_10_209" x1="67.0582" y1="38.0279" x2="67.0582" y2="77.861" gradientUnits="userSpaceOnUse">
<stop stop-color="#606060"/>
<stop offset="1"/>
</linearGradient>
</defs>
</svg>
