<svg width="512" height="192" viewBox="0 0 512 192" fill="none" xmlns="http://www.w3.org/2000/svg">
<g filter="url(#filter0_dii_1_4)">
<path d="M70 115L95 148L120 115C128.5 103 133 96 133 82C133 62 117 44 95 44C73 44 57 62 57 82C57 96 61.5 103 70 115Z" fill="url(#paint0_linear_1_4)"/>
</g>
<g filter="url(#filter1_i_1_4)">
<circle cx="95" cy="83" r="18" fill="#FCFCFC"/>
</g>
<g filter="url(#filter2_d_1_4)">
<mask id="path-3-outside-1_1_4" maskUnits="userSpaceOnUse" x="149" y="75" width="300" height="54" fill="black">
<rect fill="white" x="149" y="75" width="300" height="54"/>
<path d="M150.5 127V76.6H161.28V127H150.5ZM155.54 107.47V99.21H184.45V107.47H155.54ZM155.54 84.86V76.6H186.06V84.86H155.54ZM192.489 127V91.3H202.779V99.7H202.989V127H192.489ZM202.989 108.38L202.079 99.91C202.919 96.8767 204.296 94.5667 206.209 92.98C208.122 91.3933 210.502 90.6 213.349 90.6C214.236 90.6 214.889 90.6933 215.309 90.88V100.68C215.076 100.587 214.749 100.54 214.329 100.54C213.909 100.493 213.396 100.47 212.789 100.47C209.429 100.47 206.956 101.077 205.369 102.29C203.782 103.457 202.989 105.487 202.989 108.38ZM236.633 127.7C232.666 127.7 229.213 126.93 226.273 125.39C223.333 123.803 221.046 121.61 219.413 118.81C217.826 116.01 217.033 112.79 217.033 109.15C217.033 105.463 217.826 102.243 219.413 99.49C221.046 96.69 223.309 94.52 226.203 92.98C229.096 91.3933 232.456 90.6 236.283 90.6C239.969 90.6 243.166 91.3467 245.873 92.84C248.579 94.3333 250.679 96.41 252.173 99.07C253.666 101.73 254.413 104.857 254.413 108.45C254.413 109.197 254.389 109.897 254.343 110.55C254.296 111.157 254.226 111.74 254.133 112.3H223.193V105.37H245.663L243.843 106.63C243.843 103.737 243.143 101.613 241.743 100.26C240.389 98.86 238.523 98.16 236.143 98.16C233.389 98.16 231.243 99.0933 229.703 100.96C228.209 102.827 227.463 105.627 227.463 109.36C227.463 113 228.209 115.707 229.703 117.48C231.243 119.253 233.529 120.14 236.563 120.14C238.243 120.14 239.689 119.86 240.903 119.3C242.116 118.74 243.026 117.83 243.633 116.57H253.503C252.336 120.023 250.329 122.753 247.483 124.76C244.683 126.72 241.066 127.7 236.633 127.7ZM277.512 127.7C273.545 127.7 270.092 126.93 267.152 125.39C264.212 123.803 261.925 121.61 260.292 118.81C258.705 116.01 257.912 112.79 257.912 109.15C257.912 105.463 258.705 102.243 260.292 99.49C261.925 96.69 264.188 94.52 267.082 92.98C269.975 91.3933 273.335 90.6 277.162 90.6C280.848 90.6 284.045 91.3467 286.752 92.84C289.458 94.3333 291.558 96.41 293.052 99.07C294.545 101.73 295.292 104.857 295.292 108.45C295.292 109.197 295.268 109.897 295.222 110.55C295.175 111.157 295.105 111.74 295.012 112.3H264.072V105.37H286.542L284.722 106.63C284.722 103.737 284.022 101.613 282.622 100.26C281.268 98.86 279.402 98.16 277.022 98.16C274.268 98.16 272.122 99.0933 270.582 100.96C269.088 102.827 268.342 105.627 268.342 109.36C268.342 113 269.088 115.707 270.582 117.48C272.122 119.253 274.408 120.14 277.442 120.14C279.122 120.14 280.568 119.86 281.782 119.3C282.995 118.74 283.905 117.83 284.512 116.57H294.382C293.215 120.023 291.208 122.753 288.362 124.76C285.562 126.72 281.945 127.7 277.512 127.7ZM300.207 127V76.6H324.147C327.88 76.6 331.077 77.2533 333.737 78.56C336.444 79.8667 338.52 81.6867 339.967 84.02C341.46 86.3533 342.207 89.0833 342.207 92.21C342.207 95.3367 341.46 98.09 339.967 100.47C338.474 102.85 336.374 104.717 333.667 106.07C331.007 107.377 327.834 108.03 324.147 108.03H308.747V99.77H323.587C326.06 99.77 327.974 99.0933 329.327 97.74C330.727 96.34 331.427 94.52 331.427 92.28C331.427 90.04 330.727 88.2433 329.327 86.89C327.974 85.5367 326.06 84.86 323.587 84.86H310.987V127H300.207ZM368.084 127C367.804 125.973 367.594 124.877 367.454 123.71C367.361 122.543 367.314 121.19 367.314 119.65H367.034V102.78C367.034 101.333 366.544 100.213 365.564 99.42C364.631 98.58 363.231 98.16 361.364 98.16C359.591 98.16 358.167 98.4633 357.094 99.07C356.067 99.6767 355.391 100.563 355.064 101.73H345.054C345.521 98.51 347.177 95.85 350.024 93.75C352.871 91.65 356.767 90.6 361.714 90.6C366.847 90.6 370.767 91.7433 373.474 94.03C376.181 96.3167 377.534 99.6067 377.534 103.9V119.65C377.534 120.817 377.604 122.007 377.744 123.22C377.931 124.387 378.211 125.647 378.584 127H368.084ZM355.624 127.7C352.077 127.7 349.254 126.813 347.154 125.04C345.054 123.22 344.004 120.817 344.004 117.83C344.004 114.517 345.241 111.857 347.714 109.85C350.234 107.797 353.734 106.467 358.214 105.86L368.644 104.39V110.48L359.964 111.81C358.097 112.09 356.721 112.603 355.834 113.35C354.947 114.097 354.504 115.123 354.504 116.43C354.504 117.597 354.924 118.483 355.764 119.09C356.604 119.697 357.724 120 359.124 120C361.317 120 363.184 119.417 364.724 118.25C366.264 117.037 367.034 115.637 367.034 114.05L368.014 119.65C366.987 122.31 365.424 124.317 363.324 125.67C361.224 127.023 358.657 127.7 355.624 127.7ZM400.083 127.77C395.51 127.77 392.103 126.673 389.863 124.48C387.67 122.24 386.573 118.857 386.573 114.33V83.32L397.073 79.4V114.68C397.073 116.267 397.517 117.457 398.403 118.25C399.29 119.043 400.667 119.44 402.533 119.44C403.233 119.44 403.887 119.37 404.493 119.23C405.1 119.09 405.707 118.927 406.313 118.74V126.72C405.707 127.047 404.843 127.303 403.723 127.49C402.65 127.677 401.437 127.77 400.083 127.77ZM379.923 99.28V91.3H406.313V99.28H379.923ZM412.606 127V76.6H423.106V127H412.606ZM437.456 127V104.88C437.456 102.92 436.943 101.45 435.916 100.47C434.936 99.49 433.49 99 431.576 99C429.943 99 428.473 99.3733 427.166 100.12C425.906 100.867 424.903 101.893 424.156 103.2C423.456 104.507 423.106 106.047 423.106 107.82L422.196 99.21C423.363 96.5967 425.066 94.52 427.306 92.98C429.593 91.3933 432.393 90.6 435.706 90.6C439.673 90.6 442.706 91.72 444.806 93.96C446.906 96.1533 447.956 99.1167 447.956 102.85V127H437.456Z"/>
</mask>
<path d="M150.5 127V76.6H161.28V127H150.5ZM155.54 107.47V99.21H184.45V107.47H155.54ZM155.54 84.86V76.6H186.06V84.86H155.54ZM192.489 127V91.3H202.779V99.7H202.989V127H192.489ZM202.989 108.38L202.079 99.91C202.919 96.8767 204.296 94.5667 206.209 92.98C208.122 91.3933 210.502 90.6 213.349 90.6C214.236 90.6 214.889 90.6933 215.309 90.88V100.68C215.076 100.587 214.749 100.54 214.329 100.54C213.909 100.493 213.396 100.47 212.789 100.47C209.429 100.47 206.956 101.077 205.369 102.29C203.782 103.457 202.989 105.487 202.989 108.38ZM236.633 127.7C232.666 127.7 229.213 126.93 226.273 125.39C223.333 123.803 221.046 121.61 219.413 118.81C217.826 116.01 217.033 112.79 217.033 109.15C217.033 105.463 217.826 102.243 219.413 99.49C221.046 96.69 223.309 94.52 226.203 92.98C229.096 91.3933 232.456 90.6 236.283 90.6C239.969 90.6 243.166 91.3467 245.873 92.84C248.579 94.3333 250.679 96.41 252.173 99.07C253.666 101.73 254.413 104.857 254.413 108.45C254.413 109.197 254.389 109.897 254.343 110.55C254.296 111.157 254.226 111.74 254.133 112.3H223.193V105.37H245.663L243.843 106.63C243.843 103.737 243.143 101.613 241.743 100.26C240.389 98.86 238.523 98.16 236.143 98.16C233.389 98.16 231.243 99.0933 229.703 100.96C228.209 102.827 227.463 105.627 227.463 109.36C227.463 113 228.209 115.707 229.703 117.48C231.243 119.253 233.529 120.14 236.563 120.14C238.243 120.14 239.689 119.86 240.903 119.3C242.116 118.74 243.026 117.83 243.633 116.57H253.503C252.336 120.023 250.329 122.753 247.483 124.76C244.683 126.72 241.066 127.7 236.633 127.7ZM277.512 127.7C273.545 127.7 270.092 126.93 267.152 125.39C264.212 123.803 261.925 121.61 260.292 118.81C258.705 116.01 257.912 112.79 257.912 109.15C257.912 105.463 258.705 102.243 260.292 99.49C261.925 96.69 264.188 94.52 267.082 92.98C269.975 91.3933 273.335 90.6 277.162 90.6C280.848 90.6 284.045 91.3467 286.752 92.84C289.458 94.3333 291.558 96.41 293.052 99.07C294.545 101.73 295.292 104.857 295.292 108.45C295.292 109.197 295.268 109.897 295.222 110.55C295.175 111.157 295.105 111.74 295.012 112.3H264.072V105.37H286.542L284.722 106.63C284.722 103.737 284.022 101.613 282.622 100.26C281.268 98.86 279.402 98.16 277.022 98.16C274.268 98.16 272.122 99.0933 270.582 100.96C269.088 102.827 268.342 105.627 268.342 109.36C268.342 113 269.088 115.707 270.582 117.48C272.122 119.253 274.408 120.14 277.442 120.14C279.122 120.14 280.568 119.86 281.782 119.3C282.995 118.74 283.905 117.83 284.512 116.57H294.382C293.215 120.023 291.208 122.753 288.362 124.76C285.562 126.72 281.945 127.7 277.512 127.7ZM300.207 127V76.6H324.147C327.88 76.6 331.077 77.2533 333.737 78.56C336.444 79.8667 338.52 81.6867 339.967 84.02C341.46 86.3533 342.207 89.0833 342.207 92.21C342.207 95.3367 341.46 98.09 339.967 100.47C338.474 102.85 336.374 104.717 333.667 106.07C331.007 107.377 327.834 108.03 324.147 108.03H308.747V99.77H323.587C326.06 99.77 327.974 99.0933 329.327 97.74C330.727 96.34 331.427 94.52 331.427 92.28C331.427 90.04 330.727 88.2433 329.327 86.89C327.974 85.5367 326.06 84.86 323.587 84.86H310.987V127H300.207ZM368.084 127C367.804 125.973 367.594 124.877 367.454 123.71C367.361 122.543 367.314 121.19 367.314 119.65H367.034V102.78C367.034 101.333 366.544 100.213 365.564 99.42C364.631 98.58 363.231 98.16 361.364 98.16C359.591 98.16 358.167 98.4633 357.094 99.07C356.067 99.6767 355.391 100.563 355.064 101.73H345.054C345.521 98.51 347.177 95.85 350.024 93.75C352.871 91.65 356.767 90.6 361.714 90.6C366.847 90.6 370.767 91.7433 373.474 94.03C376.181 96.3167 377.534 99.6067 377.534 103.9V119.65C377.534 120.817 377.604 122.007 377.744 123.22C377.931 124.387 378.211 125.647 378.584 127H368.084ZM355.624 127.7C352.077 127.7 349.254 126.813 347.154 125.04C345.054 123.22 344.004 120.817 344.004 117.83C344.004 114.517 345.241 111.857 347.714 109.85C350.234 107.797 353.734 106.467 358.214 105.86L368.644 104.39V110.48L359.964 111.81C358.097 112.09 356.721 112.603 355.834 113.35C354.947 114.097 354.504 115.123 354.504 116.43C354.504 117.597 354.924 118.483 355.764 119.09C356.604 119.697 357.724 120 359.124 120C361.317 120 363.184 119.417 364.724 118.25C366.264 117.037 367.034 115.637 367.034 114.05L368.014 119.65C366.987 122.31 365.424 124.317 363.324 125.67C361.224 127.023 358.657 127.7 355.624 127.7ZM400.083 127.77C395.51 127.77 392.103 126.673 389.863 124.48C387.67 122.24 386.573 118.857 386.573 114.33V83.32L397.073 79.4V114.68C397.073 116.267 397.517 117.457 398.403 118.25C399.29 119.043 400.667 119.44 402.533 119.44C403.233 119.44 403.887 119.37 404.493 119.23C405.1 119.09 405.707 118.927 406.313 118.74V126.72C405.707 127.047 404.843 127.303 403.723 127.49C402.65 127.677 401.437 127.77 400.083 127.77ZM379.923 99.28V91.3H406.313V99.28H379.923ZM412.606 127V76.6H423.106V127H412.606ZM437.456 127V104.88C437.456 102.92 436.943 101.45 435.916 100.47C434.936 99.49 433.49 99 431.576 99C429.943 99 428.473 99.3733 427.166 100.12C425.906 100.867 424.903 101.893 424.156 103.2C423.456 104.507 423.106 106.047 423.106 107.82L422.196 99.21C423.363 96.5967 425.066 94.52 427.306 92.98C429.593 91.3933 432.393 90.6 435.706 90.6C439.673 90.6 442.706 91.72 444.806 93.96C446.906 96.1533 447.956 99.1167 447.956 102.85V127H437.456Z" fill="white"/>
<path d="M150.5 127H149.5V128H150.5V127ZM150.5 76.6V75.6H149.5V76.6H150.5ZM161.28 76.6H162.28V75.6H161.28V76.6ZM161.28 127V128H162.28V127H161.28ZM155.54 107.47H154.54V108.47H155.54V107.47ZM155.54 99.21V98.21H154.54V99.21H155.54ZM184.45 99.21H185.45V98.21H184.45V99.21ZM184.45 107.47V108.47H185.45V107.47H184.45ZM155.54 84.86H154.54V85.86H155.54V84.86ZM155.54 76.6V75.6H154.54V76.6H155.54ZM186.06 76.6H187.06V75.6H186.06V76.6ZM186.06 84.86V85.86H187.06V84.86H186.06ZM150.5 127H151.5V76.6H150.5H149.5V127H150.5ZM150.5 76.6V77.6H161.28V76.6V75.6H150.5V76.6ZM161.28 76.6H160.28V127H161.28H162.28V76.6H161.28ZM161.28 127V126H150.5V127V128H161.28V127ZM155.54 107.47H156.54V99.21H155.54H154.54V107.47H155.54ZM155.54 99.21V100.21H184.45V99.21V98.21H155.54V99.21ZM184.45 99.21H183.45V107.47H184.45H185.45V99.21H184.45ZM184.45 107.47V106.47H155.54V107.47V108.47H184.45V107.47ZM155.54 84.86H156.54V76.6H155.54H154.54V84.86H155.54ZM155.54 76.6V77.6H186.06V76.6V75.6H155.54V76.6ZM186.06 76.6H185.06V84.86H186.06H187.06V76.6H186.06ZM186.06 84.86V83.86H155.54V84.86V85.86H186.06V84.86ZM192.489 127H191.489V128H192.489V127ZM192.489 91.3V90.3H191.489V91.3H192.489ZM202.779 91.3H203.779V90.3H202.779V91.3ZM202.779 99.7H201.779V100.7H202.779V99.7ZM202.989 99.7H203.989V98.7H202.989V99.7ZM202.989 127V128H203.989V127H202.989ZM202.989 108.38L201.995 108.487L203.989 108.38H202.989ZM202.079 99.91L201.115 99.6431L201.064 99.8271L201.085 100.017L202.079 99.91ZM206.209 92.98L205.571 92.2102L206.209 92.98ZM215.309 90.88H216.309V90.2301L215.715 89.9662L215.309 90.88ZM215.309 100.68L214.938 101.608L216.309 102.157V100.68H215.309ZM214.329 100.54L214.219 101.534L214.274 101.54H214.329V100.54ZM205.369 102.29L205.961 103.096L205.969 103.09L205.977 103.084L205.369 102.29ZM192.489 127H193.489V91.3H192.489H191.489V127H192.489ZM192.489 91.3V92.3H202.779V91.3V90.3H192.489V91.3ZM202.779 91.3H201.779V99.7H202.779H203.779V91.3H202.779ZM202.779 99.7V100.7H202.989V99.7V98.7H202.779V99.7ZM202.989 99.7H201.989V127H202.989H203.989V99.7H202.989ZM202.989 127V126H192.489V127V128H202.989V127ZM202.989 108.38L203.983 108.273L203.073 99.8032L202.079 99.91L201.085 100.017L201.995 108.487L202.989 108.38ZM202.079 99.91L203.043 100.177C203.843 97.2879 205.129 95.175 206.847 93.7498L206.209 92.98L205.571 92.2102C203.463 93.9583 201.995 96.4654 201.115 99.6431L202.079 99.91ZM206.209 92.98L206.847 93.7498C208.556 92.3332 210.7 91.6 213.349 91.6V90.6V89.6C210.305 89.6 207.689 90.4534 205.571 92.2102L206.209 92.98ZM213.349 90.6V91.6C214.202 91.6 214.681 91.6953 214.903 91.7938L215.309 90.88L215.715 89.9662C215.097 89.6914 214.27 89.6 213.349 89.6V90.6ZM215.309 90.88H214.309V100.68H215.309H216.309V90.88H215.309ZM215.309 100.68L215.68 99.7515C215.276 99.5896 214.802 99.54 214.329 99.54V100.54V101.54C214.696 101.54 214.876 101.584 214.938 101.608L215.309 100.68ZM214.329 100.54L214.439 99.5461C213.971 99.494 213.418 99.47 212.789 99.47V100.47V101.47C213.373 101.47 213.847 101.493 214.219 101.534L214.329 100.54ZM212.789 100.47V99.47C209.346 99.47 206.606 100.085 204.762 101.496L205.369 102.29L205.977 103.084C207.305 102.068 209.513 101.47 212.789 101.47V100.47ZM205.369 102.29L204.777 101.484C202.829 102.916 201.989 105.325 201.989 108.38H202.989H203.989C203.989 105.648 204.735 103.997 205.961 103.096L205.369 102.29ZM226.273 125.39L225.798 126.27L225.809 126.276L226.273 125.39ZM219.413 118.81L218.543 119.303L218.549 119.314L219.413 118.81ZM219.413 99.49L218.549 98.9861L218.546 98.9907L219.413 99.49ZM226.203 92.98L226.673 93.8628L226.684 93.8568L226.203 92.98ZM254.343 110.55L255.34 110.627L255.34 110.621L254.343 110.55ZM254.133 112.3V113.3H254.98L255.119 112.464L254.133 112.3ZM223.193 112.3H222.193V113.3H223.193V112.3ZM223.193 105.37V104.37H222.193V105.37H223.193ZM245.663 105.37L246.232 106.192L248.864 104.37H245.663V105.37ZM243.843 106.63H242.843V108.539L244.412 107.452L243.843 106.63ZM241.743 100.26L241.024 100.955L241.036 100.967L241.048 100.979L241.743 100.26ZM229.703 100.96L228.931 100.324L228.927 100.329L228.922 100.335L229.703 100.96ZM229.703 117.48L228.938 118.124L228.943 118.13L228.948 118.136L229.703 117.48ZM240.903 119.3L241.322 120.208L241.322 120.208L240.903 119.3ZM243.633 116.57V115.57H243.004L242.732 116.136L243.633 116.57ZM253.503 116.57L254.45 116.89L254.896 115.57H253.503V116.57ZM247.483 124.76L248.056 125.579L248.059 125.577L247.483 124.76ZM236.633 127.7V126.7C232.796 126.7 229.508 125.956 226.737 124.504L226.273 125.39L225.809 126.276C228.917 127.904 232.536 128.7 236.633 128.7V127.7ZM226.273 125.39L226.748 124.51C223.964 123.008 221.814 120.942 220.277 118.306L219.413 118.81L218.549 119.314C220.278 122.278 222.701 124.599 225.798 126.27L226.273 125.39ZM219.413 118.81L220.283 118.317C218.792 115.686 218.033 112.64 218.033 109.15H217.033H216.033C216.033 112.94 216.86 116.334 218.543 119.303L219.413 118.81ZM217.033 109.15H218.033C218.033 105.61 218.793 102.568 220.279 99.9893L219.413 99.49L218.546 98.9907C216.859 101.919 216.033 105.316 216.033 109.15H217.033ZM219.413 99.49L220.277 99.9939C221.815 97.3562 223.941 95.3165 226.673 93.8627L226.203 92.98L225.733 92.0973C222.678 93.7235 220.277 96.0238 218.549 98.9861L219.413 99.49ZM226.203 92.98L226.684 93.8568C229.408 92.363 232.597 91.6 236.283 91.6V90.6V89.6C232.315 89.6 228.785 90.4236 225.722 92.1032L226.203 92.98ZM236.283 90.6V91.6C239.833 91.6 242.857 92.3182 245.39 93.7156L245.873 92.84L246.356 91.9644C243.475 90.3751 240.106 89.6 236.283 89.6V90.6ZM245.873 92.84L245.39 93.7156C247.936 95.1202 249.9 97.0642 251.301 99.5595L252.173 99.07L253.045 98.5805C251.459 95.7558 249.223 93.5464 246.356 91.9644L245.873 92.84ZM252.173 99.07L251.301 99.5595C252.696 102.045 253.413 104.997 253.413 108.45H254.413H255.413C255.413 104.716 254.636 101.415 253.045 98.5805L252.173 99.07ZM254.413 108.45H253.413C253.413 109.176 253.39 109.852 253.345 110.479L254.343 110.55L255.34 110.621C255.389 109.941 255.413 109.217 255.413 108.45H254.413ZM254.343 110.55L253.346 110.473C253.301 111.053 253.235 111.607 253.146 112.136L254.133 112.3L255.119 112.464C255.218 111.873 255.291 111.261 255.34 110.627L254.343 110.55ZM254.133 112.3V111.3H223.193V112.3V113.3H254.133V112.3ZM223.193 112.3H224.193V105.37H223.193H222.193V112.3H223.193ZM223.193 105.37V106.37H245.663V105.37V104.37H223.193V105.37ZM245.663 105.37L245.094 104.548L243.274 105.808L243.843 106.63L244.412 107.452L246.232 106.192L245.663 105.37ZM243.843 106.63H244.843C244.843 103.597 244.11 101.158 242.438 99.541L241.743 100.26L241.048 100.979C242.175 102.069 242.843 103.876 242.843 106.63H243.843ZM241.743 100.26L242.462 99.565C240.88 97.9281 238.729 97.16 236.143 97.16V98.16V99.16C238.316 99.16 239.899 99.7919 241.024 100.955L241.743 100.26ZM236.143 98.16V97.16C233.137 97.16 230.689 98.1933 228.931 100.324L229.703 100.96L230.474 101.596C231.797 99.9934 233.642 99.16 236.143 99.16V98.16ZM229.703 100.96L228.922 100.335C227.226 102.455 226.463 105.52 226.463 109.36H227.463H228.463C228.463 105.734 229.192 103.199 230.484 101.585L229.703 100.96ZM227.463 109.36H226.463C226.463 113.108 227.227 116.093 228.938 118.124L229.703 117.48L230.468 116.836C229.192 115.321 228.463 112.892 228.463 109.36H227.463ZM229.703 117.48L228.948 118.136C230.73 120.188 233.33 121.14 236.563 121.14V120.14V119.14C233.729 119.14 231.756 118.319 230.458 116.824L229.703 117.48ZM236.563 120.14V121.14C238.351 121.14 239.948 120.842 241.322 120.208L240.903 119.3L240.484 118.392C239.431 118.878 238.134 119.14 236.563 119.14V120.14ZM240.903 119.3L241.322 120.208C242.756 119.546 243.831 118.462 244.534 117.004L243.633 116.57L242.732 116.136C242.221 117.198 241.476 117.934 240.484 118.392L240.903 119.3ZM243.633 116.57V117.57H253.503V116.57V115.57H243.633V116.57ZM253.503 116.57L252.555 116.25C251.453 119.512 249.572 122.064 246.907 123.943L247.483 124.76L248.059 125.577C251.087 123.443 253.219 120.534 254.45 116.89L253.503 116.57ZM247.483 124.76L246.909 123.941C244.321 125.753 240.922 126.7 236.633 126.7V127.7V128.7C241.211 128.7 245.045 127.687 248.056 125.579L247.483 124.76ZM267.152 125.39L266.677 126.27L266.688 126.276L267.152 125.39ZM260.292 118.81L259.422 119.303L259.428 119.314L260.292 118.81ZM260.292 99.49L259.428 98.9861L259.425 98.9907L260.292 99.49ZM267.082 92.98L267.552 93.8628L267.563 93.8568L267.082 92.98ZM295.222 110.55L296.219 110.627L296.219 110.621L295.222 110.55ZM295.012 112.3V113.3H295.859L295.998 112.464L295.012 112.3ZM264.072 112.3H263.072V113.3H264.072V112.3ZM264.072 105.37V104.37H263.072V105.37H264.072ZM286.542 105.37L287.111 106.192L289.743 104.37H286.542V105.37ZM284.722 106.63H283.722V108.539L285.291 107.452L284.722 106.63ZM282.622 100.26L281.903 100.955L281.915 100.967L281.927 100.979L282.622 100.26ZM270.582 100.96L269.81 100.324L269.806 100.329L269.801 100.335L270.582 100.96ZM270.582 117.48L269.817 118.124L269.822 118.13L269.827 118.136L270.582 117.48ZM281.782 119.3L282.201 120.208L282.201 120.208L281.782 119.3ZM284.512 116.57V115.57H283.883L283.611 116.136L284.512 116.57ZM294.382 116.57L295.329 116.89L295.775 115.57H294.382V116.57ZM288.362 124.76L288.935 125.579L288.938 125.577L288.362 124.76ZM277.512 127.7V126.7C273.675 126.7 270.387 125.956 267.616 124.504L267.152 125.39L266.688 126.276C269.796 127.904 273.415 128.7 277.512 128.7V127.7ZM267.152 125.39L267.627 124.51C264.843 123.008 262.693 120.942 261.155 118.306L260.292 118.81L259.428 119.314C261.157 122.278 263.58 124.599 266.677 126.27L267.152 125.39ZM260.292 118.81L261.162 118.317C259.671 115.686 258.912 112.64 258.912 109.15H257.912H256.912C256.912 112.94 257.739 116.334 259.422 119.303L260.292 118.81ZM257.912 109.15H258.912C258.912 105.61 259.672 102.568 261.158 99.9893L260.292 99.49L259.425 98.9907C257.738 101.919 256.912 105.316 256.912 109.15H257.912ZM260.292 99.49L261.155 99.9939C262.694 97.3562 264.82 95.3165 267.552 93.8627L267.082 92.98L266.612 92.0973C263.557 93.7235 261.156 96.0238 259.428 98.9861L260.292 99.49ZM267.082 92.98L267.563 93.8568C270.286 92.363 273.476 91.6 277.162 91.6V90.6V89.6C273.194 89.6 269.664 90.4236 266.601 92.1032L267.082 92.98ZM277.162 90.6V91.6C280.712 91.6 283.736 92.3182 286.269 93.7156L286.752 92.84L287.235 91.9644C284.354 90.3751 280.985 89.6 277.162 89.6V90.6ZM286.752 92.84L286.269 93.7156C288.815 95.1202 290.779 97.0642 292.18 99.5595L293.052 99.07L293.924 98.5805C292.338 95.7558 290.102 93.5464 287.235 91.9644L286.752 92.84ZM293.052 99.07L292.18 99.5595C293.575 102.045 294.292 104.997 294.292 108.45H295.292H296.292C296.292 104.716 295.515 101.415 293.924 98.5805L293.052 99.07ZM295.292 108.45H294.292C294.292 109.176 294.269 109.852 294.224 110.479L295.222 110.55L296.219 110.621C296.268 109.941 296.292 109.217 296.292 108.45H295.292ZM295.222 110.55L294.225 110.473C294.18 111.053 294.113 111.607 294.025 112.136L295.012 112.3L295.998 112.464C296.097 111.873 296.17 111.261 296.219 110.627L295.222 110.55ZM295.012 112.3V111.3H264.072V112.3V113.3H295.012V112.3ZM264.072 112.3H265.072V105.37H264.072H263.072V112.3H264.072ZM264.072 105.37V106.37H286.542V105.37V104.37H264.072V105.37ZM286.542 105.37L285.973 104.548L284.153 105.808L284.722 106.63L285.291 107.452L287.111 106.192L286.542 105.37ZM284.722 106.63H285.722C285.722 103.597 284.989 101.158 283.317 99.541L282.622 100.26L281.927 100.979C283.054 102.069 283.722 103.876 283.722 106.63H284.722ZM282.622 100.26L283.341 99.565C281.758 97.9281 279.608 97.16 277.022 97.16V98.16V99.16C279.195 99.16 280.778 99.7919 281.903 100.955L282.622 100.26ZM277.022 98.16V97.16C274.016 97.16 271.568 98.1933 269.81 100.324L270.582 100.96L271.353 101.596C272.676 99.9934 274.521 99.16 277.022 99.16V98.16ZM270.582 100.96L269.801 100.335C268.105 102.455 267.342 105.52 267.342 109.36H268.342H269.342C269.342 105.734 270.071 103.199 271.363 101.585L270.582 100.96ZM268.342 109.36H267.342C267.342 113.108 268.106 116.093 269.817 118.124L270.582 117.48L271.347 116.836C270.071 115.321 269.342 112.892 269.342 109.36H268.342ZM270.582 117.48L269.827 118.136C271.609 120.188 274.209 121.14 277.442 121.14V120.14V119.14C274.608 119.14 272.635 118.319 271.337 116.824L270.582 117.48ZM277.442 120.14V121.14C279.23 121.14 280.827 120.842 282.201 120.208L281.782 119.3L281.363 118.392C280.31 118.878 279.013 119.14 277.442 119.14V120.14ZM281.782 119.3L282.201 120.208C283.635 119.546 284.71 118.462 285.413 117.004L284.512 116.57L283.611 116.136C283.1 117.198 282.355 117.934 281.363 118.392L281.782 119.3ZM284.512 116.57V117.57H294.382V116.57V115.57H284.512V116.57ZM294.382 116.57L293.434 116.25C292.332 119.512 290.45 122.064 287.786 123.943L288.362 124.76L288.938 125.577C291.966 123.443 294.098 120.534 295.329 116.89L294.382 116.57ZM288.362 124.76L287.788 123.941C285.2 125.753 281.801 126.7 277.512 126.7V127.7V128.7C282.09 128.7 285.923 127.687 288.935 125.579L288.362 124.76ZM300.207 127H299.207V128H300.207V127ZM300.207 76.6V75.6H299.207V76.6H300.207ZM333.737 78.56L333.296 79.4576L333.302 79.4605L333.737 78.56ZM339.967 84.02L339.117 84.5469L339.121 84.553L339.125 84.5591L339.967 84.02ZM333.667 106.07L334.108 106.968L334.114 106.964L333.667 106.07ZM308.747 108.03H307.747V109.03H308.747V108.03ZM308.747 99.77V98.77H307.747V99.77H308.747ZM329.327 97.74L330.034 98.4471L330.034 98.4471L329.327 97.74ZM329.327 86.89L328.62 87.5971L328.626 87.6031L328.632 87.609L329.327 86.89ZM310.987 84.86V83.86H309.987V84.86H310.987ZM310.987 127V128H311.987V127H310.987ZM300.207 127H301.207V76.6H300.207H299.207V127H300.207ZM300.207 76.6V77.6H324.147V76.6V75.6H300.207V76.6ZM324.147 76.6V77.6C327.766 77.6 330.804 78.2335 333.296 79.4576L333.737 78.56L334.178 77.6624C331.35 76.2732 327.995 75.6 324.147 75.6V76.6ZM333.737 78.56L333.302 79.4605C335.855 80.6928 337.78 82.3902 339.117 84.5469L339.967 84.02L340.817 83.4931C339.261 80.9831 337.033 79.0406 334.172 77.6594L333.737 78.56ZM339.967 84.02L339.125 84.5591C340.502 86.7114 341.207 89.2491 341.207 92.21H342.207H343.207C343.207 88.9176 342.418 85.9953 340.809 83.4809L339.967 84.02ZM342.207 92.21H341.207C341.207 95.1705 340.502 97.7353 339.12 99.9385L339.967 100.47L340.814 101.001C342.418 98.4447 343.207 95.5028 343.207 92.21H342.207ZM339.967 100.47L339.12 99.9385C337.732 102.151 335.776 103.898 333.22 105.176L333.667 106.07L334.114 106.964C336.972 105.536 339.216 103.549 340.814 101.001L339.967 100.47ZM333.667 106.07L333.226 105.172C330.733 106.397 327.717 107.03 324.147 107.03V108.03V109.03C327.95 109.03 331.281 108.356 334.108 106.968L333.667 106.07ZM324.147 108.03V107.03H308.747V108.03V109.03H324.147V108.03ZM308.747 108.03H309.747V99.77H308.747H307.747V108.03H308.747ZM308.747 99.77V100.77H323.587V99.77V98.77H308.747V99.77ZM323.587 99.77V100.77C326.245 100.77 328.443 100.038 330.034 98.4471L329.327 97.74L328.62 97.0329C327.505 98.1483 325.876 98.77 323.587 98.77V99.77ZM329.327 97.74L330.034 98.4471C331.647 96.8343 332.427 94.7472 332.427 92.28H331.427H330.427C330.427 94.2928 329.807 95.8457 328.62 97.0329L329.327 97.74ZM331.427 92.28H332.427C332.427 89.8133 331.647 87.7416 330.022 86.171L329.327 86.89L328.632 87.609C329.807 88.7451 330.427 90.2666 330.427 92.28H331.427ZM329.327 86.89L330.034 86.1829C328.443 84.5916 326.245 83.86 323.587 83.86V84.86V85.86C325.876 85.86 327.505 86.4817 328.62 87.5971L329.327 86.89ZM323.587 84.86V83.86H310.987V84.86V85.86H323.587V84.86ZM310.987 84.86H309.987V127H310.987H311.987V84.86H310.987ZM310.987 127V126H300.207V127V128H310.987V127ZM368.084 127L367.119 127.263L367.32 128H368.084V127ZM367.454 123.71L366.457 123.79L366.459 123.809L366.461 123.829L367.454 123.71ZM367.314 119.65H368.314V118.65H367.314V119.65ZM367.034 119.65H366.034V120.65H367.034V119.65ZM365.564 99.42L364.895 100.163L364.915 100.181L364.935 100.197L365.564 99.42ZM357.094 99.07L356.602 98.1994L356.594 98.2042L356.585 98.2091L357.094 99.07ZM355.064 101.73V102.73H355.823L356.027 102L355.064 101.73ZM345.054 101.73L344.064 101.587L343.899 102.73H345.054V101.73ZM350.024 93.75L349.43 92.9453L349.43 92.9453L350.024 93.75ZM373.474 94.03L372.829 94.7939L372.829 94.7939L373.474 94.03ZM377.744 123.22L376.751 123.335L376.753 123.356L376.757 123.378L377.744 123.22ZM378.584 127V128H379.897L379.548 126.734L378.584 127ZM347.154 125.04L346.499 125.796L346.509 125.804L347.154 125.04ZM347.714 109.85L348.344 110.627L348.346 110.625L347.714 109.85ZM358.214 105.86L358.348 106.851L358.354 106.85L358.214 105.86ZM368.644 104.39H369.644V103.239L368.505 103.4L368.644 104.39ZM368.644 110.48L368.796 111.468L369.644 111.338V110.48H368.644ZM359.964 111.81L360.112 112.799L360.116 112.798L359.964 111.81ZM355.834 113.35L356.478 114.115L356.478 114.115L355.834 113.35ZM355.764 119.09L356.35 118.279L356.35 118.279L355.764 119.09ZM364.724 118.25L365.328 119.047L365.335 119.041L365.343 119.035L364.724 118.25ZM367.034 114.05L368.019 113.878L366.034 114.05H367.034ZM368.014 119.65L368.947 120.01L369.047 119.751L368.999 119.478L368.014 119.65ZM363.324 125.67L363.866 126.511L363.866 126.511L363.324 125.67ZM368.084 127L369.049 126.737C368.783 125.762 368.582 124.714 368.447 123.591L367.454 123.71L366.461 123.829C366.606 125.039 366.825 126.185 367.119 127.263L368.084 127ZM367.454 123.71L368.451 123.63C368.36 122.497 368.314 121.171 368.314 119.65H367.314H366.314C366.314 121.209 366.361 122.59 366.457 123.79L367.454 123.71ZM367.314 119.65V118.65H367.034V119.65V120.65H367.314V119.65ZM367.034 119.65H368.034V102.78H367.034H366.034V119.65H367.034ZM367.034 102.78H368.034C368.034 101.082 367.444 99.6553 366.193 98.6428L365.564 99.42L364.935 100.197C365.644 100.771 366.034 101.585 366.034 102.78H367.034ZM365.564 99.42L366.233 98.6767C365.044 97.6069 363.36 97.16 361.364 97.16V98.16V99.16C363.101 99.16 364.217 99.5531 364.895 100.163L365.564 99.42ZM361.364 98.16V97.16C359.489 97.16 357.877 97.4788 356.602 98.1994L357.094 99.07L357.586 99.9406C358.458 99.4479 359.692 99.16 361.364 99.16V98.16ZM357.094 99.07L356.585 98.2091C355.333 98.9492 354.496 100.05 354.101 101.46L355.064 101.73L356.027 102C356.285 101.077 356.802 100.404 357.603 99.9309L357.094 99.07ZM355.064 101.73V100.73H345.054V101.73V102.73H355.064V101.73ZM345.054 101.73L346.044 101.873C346.469 98.9424 347.965 96.5113 350.618 94.5547L350.024 93.75L349.43 92.9453C346.389 95.1886 344.573 98.0776 344.064 101.587L345.054 101.73ZM350.024 93.75L350.618 94.5547C353.236 92.6232 356.898 91.6 361.714 91.6V90.6V89.6C356.637 89.6 352.506 90.6767 349.43 92.9453L350.024 93.75ZM361.714 90.6V91.6C366.715 91.6 370.368 92.7154 372.829 94.7939L373.474 94.03L374.119 93.2661C371.166 90.7713 366.98 89.6 361.714 89.6V90.6ZM373.474 94.03L372.829 94.7939C375.263 96.8504 376.534 99.8327 376.534 103.9H377.534H378.534C378.534 99.3806 377.098 95.7829 374.119 93.2661L373.474 94.03ZM377.534 103.9H376.534V119.65H377.534H378.534V103.9H377.534ZM377.534 119.65H376.534C376.534 120.857 376.606 122.085 376.751 123.335L377.744 123.22L378.737 123.105C378.602 121.928 378.534 120.777 378.534 119.65H377.534ZM377.744 123.22L376.757 123.378C376.95 124.587 377.239 125.883 377.62 127.266L378.584 127L379.548 126.734C379.183 125.41 378.911 124.186 378.732 123.062L377.744 123.22ZM378.584 127V126H368.084V127V128H378.584V127ZM355.624 127.7V126.7C352.244 126.7 349.672 125.857 347.799 124.276L347.154 125.04L346.509 125.804C348.836 127.769 351.911 128.7 355.624 128.7V127.7ZM347.154 125.04L347.809 124.284C345.946 122.67 345.004 120.551 345.004 117.83H344.004H343.004C343.004 121.082 344.162 123.77 346.499 125.796L347.154 125.04ZM344.004 117.83H345.004C345.004 114.804 346.115 112.435 348.344 110.627L347.714 109.85L347.084 109.073C344.366 111.279 343.004 114.229 343.004 117.83H344.004ZM347.714 109.85L348.346 110.625C350.678 108.725 353.982 107.442 358.348 106.851L358.214 105.86L358.08 104.869C353.486 105.491 349.791 106.868 347.082 109.075L347.714 109.85ZM358.214 105.86L358.354 106.85L368.784 105.38L368.644 104.39L368.505 103.4L358.075 104.87L358.214 105.86ZM368.644 104.39H367.644V110.48H368.644H369.644V104.39H368.644ZM368.644 110.48L368.493 109.492L359.813 110.822L359.964 111.81L360.116 112.798L368.796 111.468L368.644 110.48ZM359.964 111.81L359.816 110.821C357.87 111.113 356.281 111.666 355.19 112.585L355.834 113.35L356.478 114.115C357.161 113.54 358.325 113.067 360.112 112.799L359.964 111.81ZM355.834 113.35L355.19 112.585C354.047 113.547 353.504 114.87 353.504 116.43H354.504H355.504C355.504 115.376 355.848 114.646 356.478 114.115L355.834 113.35ZM354.504 116.43H353.504C353.504 117.871 354.043 119.08 355.179 119.901L355.764 119.09L356.35 118.279C355.806 117.886 355.504 117.322 355.504 116.43H354.504ZM355.764 119.09L355.179 119.901C356.24 120.667 357.586 121 359.124 121V120V119C357.862 119 356.968 118.726 356.35 118.279L355.764 119.09ZM359.124 120V121C361.505 121 363.591 120.363 365.328 119.047L364.724 118.25L364.12 117.453C362.777 118.47 361.13 119 359.124 119V120ZM364.724 118.25L365.343 119.035C367.061 117.682 368.034 116.015 368.034 114.05H367.034H366.034C366.034 115.259 365.467 116.391 364.105 117.465L364.724 118.25ZM367.034 114.05L366.049 114.222L367.029 119.822L368.014 119.65L368.999 119.478L368.019 113.878L367.034 114.05ZM368.014 119.65L367.081 119.29C366.12 121.781 364.68 123.607 362.782 124.829L363.324 125.67L363.866 126.511C366.168 125.027 367.855 122.839 368.947 120.01L368.014 119.65ZM363.324 125.67L362.782 124.829C360.876 126.058 358.507 126.7 355.624 126.7V127.7V128.7C358.808 128.7 361.573 127.988 363.866 126.511L363.324 125.67ZM389.863 124.48L389.149 125.18L389.156 125.187L389.164 125.195L389.863 124.48ZM386.573 83.32L386.224 82.3832L385.573 82.6259V83.32H386.573ZM397.073 79.4H398.073V77.9592L396.724 78.4632L397.073 79.4ZM398.403 118.25L399.07 117.505L399.07 117.505L398.403 118.25ZM404.493 119.23L404.269 118.256L404.268 118.256L404.493 119.23ZM406.313 118.74H407.313V117.386L406.019 117.784L406.313 118.74ZM406.313 126.72L406.787 127.6L407.313 127.317V126.72H406.313ZM403.723 127.49L403.559 126.504L403.552 126.505L403.723 127.49ZM379.923 99.28H378.923V100.28H379.923V99.28ZM379.923 91.3V90.3H378.923V91.3H379.923ZM406.313 91.3H407.313V90.3H406.313V91.3ZM406.313 99.28V100.28H407.313V99.28H406.313ZM400.083 127.77V126.77C395.652 126.77 392.545 125.706 390.563 123.765L389.863 124.48L389.164 125.195C391.661 127.64 395.368 128.77 400.083 128.77V127.77ZM389.863 124.48L390.578 123.78C388.635 121.796 387.573 118.711 387.573 114.33H386.573H385.573C385.573 119.002 386.705 122.684 389.149 125.18L389.863 124.48ZM386.573 114.33H387.573V83.32H386.573H385.573V114.33H386.573ZM386.573 83.32L386.923 84.2568L397.423 80.3368L397.073 79.4L396.724 78.4632L386.224 82.3832L386.573 83.32ZM397.073 79.4H396.073V114.68H397.073H398.073V79.4H397.073ZM397.073 114.68H396.073C396.073 116.451 396.573 117.955 397.737 118.995L398.403 118.25L399.07 117.505C398.46 116.959 398.073 116.082 398.073 114.68H397.073ZM398.403 118.25L397.737 118.995C398.886 120.024 400.554 120.44 402.533 120.44V119.44V118.44C400.779 118.44 399.694 118.063 399.07 117.505L398.403 118.25ZM402.533 119.44V120.44C403.3 120.44 404.029 120.363 404.718 120.204L404.493 119.23L404.268 118.256C403.744 118.377 403.167 118.44 402.533 118.44V119.44ZM404.493 119.23L404.718 120.204C405.349 120.059 405.978 119.889 406.607 119.696L406.313 118.74L406.019 117.784C405.435 117.964 404.851 118.121 404.269 118.256L404.493 119.23ZM406.313 118.74H405.313V126.72H406.313H407.313V118.74H406.313ZM406.313 126.72L405.839 125.84C405.372 126.091 404.631 126.325 403.559 126.504L403.723 127.49L403.888 128.476C405.055 128.282 406.042 128.002 406.787 127.6L406.313 126.72ZM403.723 127.49L403.552 126.505C402.547 126.68 401.392 126.77 400.083 126.77V127.77V128.77C401.481 128.77 402.753 128.674 403.895 128.475L403.723 127.49ZM379.923 99.28H380.923V91.3H379.923H378.923V99.28H379.923ZM379.923 91.3V92.3H406.313V91.3V90.3H379.923V91.3ZM406.313 91.3H405.313V99.28H406.313H407.313V91.3H406.313ZM406.313 99.28V98.28H379.923V99.28V100.28H406.313V99.28ZM412.606 127H411.606V128H412.606V127ZM412.606 76.6V75.6H411.606V76.6H412.606ZM423.106 76.6H424.106V75.6H423.106V76.6ZM423.106 127V128H424.106V127H423.106ZM437.456 127H436.456V128H437.456V127ZM435.916 100.47L435.209 101.177L435.217 101.185L435.226 101.193L435.916 100.47ZM427.166 100.12L426.67 99.2518L426.663 99.2557L426.656 99.2597L427.166 100.12ZM424.156 103.2L423.288 102.704L423.281 102.716L423.275 102.728L424.156 103.2ZM423.106 107.82L422.112 107.925L424.106 107.82H423.106ZM422.196 99.21L421.283 98.8023L421.174 99.0478L421.202 99.3151L422.196 99.21ZM427.306 92.98L427.873 93.804L427.876 93.8016L427.306 92.98ZM444.806 93.96L444.077 94.644L444.084 94.6516L444.806 93.96ZM447.956 127V128H448.956V127H447.956ZM412.606 127H413.606V76.6H412.606H411.606V127H412.606ZM412.606 76.6V77.6H423.106V76.6V75.6H412.606V76.6ZM423.106 76.6H422.106V127H423.106H424.106V76.6H423.106ZM423.106 127V126H412.606V127V128H423.106V127ZM437.456 127H438.456V104.88H437.456H436.456V127H437.456ZM437.456 104.88H438.456C438.456 102.754 437.897 100.978 436.607 99.7466L435.916 100.47L435.226 101.193C435.989 101.922 436.456 103.086 436.456 104.88H437.456ZM435.916 100.47L436.623 99.7629C435.394 98.5333 433.652 98 431.576 98V99V100C433.327 100 434.479 100.447 435.209 101.177L435.916 100.47ZM431.576 99V98C429.784 98 428.141 98.4115 426.67 99.2518L427.166 100.12L427.662 100.988C428.805 100.335 430.102 100 431.576 100V99ZM427.166 100.12L426.656 99.2597C425.243 100.097 424.118 101.251 423.288 102.704L424.156 103.2L425.024 103.696C425.688 102.536 426.569 101.636 427.676 100.98L427.166 100.12ZM424.156 103.2L423.275 102.728C422.483 104.206 422.106 105.914 422.106 107.82H423.106H424.106C424.106 106.179 424.429 104.808 425.038 103.672L424.156 103.2ZM423.106 107.82L424.101 107.715L423.191 99.1049L422.196 99.21L421.202 99.3151L422.112 107.925L423.106 107.82ZM422.196 99.21L423.109 99.6176C424.205 97.1631 425.793 95.2342 427.873 93.804L427.306 92.98L426.74 92.156C424.34 93.8058 422.521 96.0302 421.283 98.8023L422.196 99.21ZM427.306 92.98L427.876 93.8016C429.966 92.3518 432.557 91.6 435.706 91.6V90.6V89.6C432.229 89.6 429.22 90.4349 426.736 92.1584L427.306 92.98ZM435.706 90.6V91.6C439.482 91.6 442.217 92.6603 444.077 94.6439L444.806 93.96L445.536 93.2761C443.195 90.7797 439.864 89.6 435.706 89.6V90.6ZM444.806 93.96L444.084 94.6516C445.967 96.6181 446.956 99.312 446.956 102.85H447.956H448.956C448.956 98.9214 447.846 95.6885 445.529 93.2684L444.806 93.96ZM447.956 102.85H446.956V127H447.956H448.956V102.85H447.956ZM447.956 127V126H437.456V127V128H447.956V127Z" fill="black" mask="url(#path-3-outside-1_1_4)"/>
</g>
<defs>
<filter id="filter0_dii_1_4" x="45" y="36" width="100" height="128" filterUnits="userSpaceOnUse" color-interpolation-filters="sRGB">
<feFlood flood-opacity="0" result="BackgroundImageFix"/>
<feColorMatrix in="SourceAlpha" type="matrix" values="0 0 0 0 0 0 0 0 0 0 0 0 0 0 0 0 0 0 127 0" result="hardAlpha"/>
<feOffset dy="4"/>
<feGaussianBlur stdDeviation="6"/>
<feComposite in2="hardAlpha" operator="out"/>
<feColorMatrix type="matrix" values="0 0 0 0 0 0 0 0 0 0 0 0 0 0 0 0 0 0 0.5 0"/>
<feBlend mode="normal" in2="BackgroundImageFix" result="effect1_dropShadow_1_4"/>
<feBlend mode="normal" in="SourceGraphic" in2="effect1_dropShadow_1_4" result="shape"/>
<feColorMatrix in="SourceAlpha" type="matrix" values="0 0 0 0 0 0 0 0 0 0 0 0 0 0 0 0 0 0 127 0" result="hardAlpha"/>
<feOffset dy="-8"/>
<feGaussianBlur stdDeviation="6"/>
<feComposite in2="hardAlpha" operator="arithmetic" k2="-1" k3="1"/>
<feColorMatrix type="matrix" values="0 0 0 0 0 0 0 0 0 0 0 0 0 0 0 0 0 0 0.25 0"/>
<feBlend mode="normal" in2="shape" result="effect2_innerShadow_1_4"/>
<feColorMatrix in="SourceAlpha" type="matrix" values="0 0 0 0 0 0 0 0 0 0 0 0 0 0 0 0 0 0 127 0" result="hardAlpha"/>
<feOffset dy="8"/>
<feGaussianBlur stdDeviation="4"/>
<feComposite in2="hardAlpha" operator="arithmetic" k2="-1" k3="1"/>
<feColorMatrix type="matrix" values="0 0 0 0 1 0 0 0 0 1 0 0 0 0 1 0 0 0 0.1 0"/>
<feBlend mode="normal" in2="effect2_innerShadow_1_4" result="effect3_innerShadow_1_4"/>
</filter>
<filter id="filter1_i_1_4" x="77" y="65" width="36" height="38" filterUnits="userSpaceOnUse" color-interpolation-filters="sRGB">
<feFlood flood-opacity="0" result="BackgroundImageFix"/>
<feBlend mode="normal" in="SourceGraphic" in2="BackgroundImageFix" result="shape"/>
<feColorMatrix in="SourceAlpha" type="matrix" values="0 0 0 0 0 0 0 0 0 0 0 0 0 0 0 0 0 0 127 0" result="hardAlpha"/>
<feOffset dy="2"/>
<feGaussianBlur stdDeviation="3"/>
<feComposite in2="hardAlpha" operator="arithmetic" k2="-1" k3="1"/>
<feColorMatrix type="matrix" values="0 0 0 0 0 0 0 0 0 0 0 0 0 0 0 0 0 0 0.5 0"/>
<feBlend mode="normal" in2="shape" result="effect1_innerShadow_1_4"/>
</filter>
<filter id="filter2_d_1_4" x="141.5" y="69.6" width="315.456" height="69.17" filterUnits="userSpaceOnUse" color-interpolation-filters="sRGB">
<feFlood flood-opacity="0" result="BackgroundImageFix"/>
<feColorMatrix in="SourceAlpha" type="matrix" values="0 0 0 0 0 0 0 0 0 0 0 0 0 0 0 0 0 0 127 0" result="hardAlpha"/>
<feOffset dy="2"/>
<feGaussianBlur stdDeviation="4"/>
<feComposite in2="hardAlpha" operator="out"/>
<feColorMatrix type="matrix" values="0 0 0 0 0 0 0 0 0 0 0 0 0 0 0 0 0 0 0.5 0"/>
<feBlend mode="normal" in2="BackgroundImageFix" result="effect1_dropShadow_1_4"/>
<feBlend mode="normal" in="SourceGraphic" in2="effect1_dropShadow_1_4" result="shape"/>
</filter>
<linearGradient id="paint0_linear_1_4" x1="95" y1="44" x2="95" y2="148" gradientUnits="userSpaceOnUse">
<stop stop-color="#4FB57C"/>
<stop offset="1" stop-color="#44A970"/>
</linearGradient>
</defs>
</svg>
