<svg width="128" height="128" viewBox="0 0 128 128" fill="none" xmlns="http://www.w3.org/2000/svg">
<path d="M63.6531 107.38C86.6574 107.38 105.306 87.8195 105.306 63.6901C105.306 39.5607 86.6574 20 63.6531 20C40.6487 20 22 39.5607 22 63.6901C22 87.8195 40.6487 107.38 63.6531 107.38Z" stroke="#303030" stroke-width="9" stroke-miterlimit="10"/>
<path d="M86.7346 37.9523H40.5715V89.4279H86.7346V37.9523Z" fill="white" stroke="black" stroke-width="4" stroke-miterlimit="10"/>
<path d="M63.6531 37.9523C63.4479 55.1115 63.2446 72.2688 63.0394 89.4279Z" fill="white"/>
<path d="M63.6531 37.9523C63.4479 55.1115 63.2446 72.2688 63.0394 89.4279" stroke="black" stroke-width="4" stroke-miterlimit="10"/>
<path d="M38.3549 29.0183C55.1861 52.1732 72.0155 75.3298 88.8468 98.4847Z" fill="white"/>
<path d="M38.3549 29.0183C55.1861 52.1732 72.0155 75.3298 88.8468 98.4847" stroke="#303030" stroke-width="7" stroke-miterlimit="10"/>
</svg>
