<svg width="128" height="128" viewBox="0 0 128 128" fill="none" xmlns="http://www.w3.org/2000/svg">
<path d="M104 10H24V118H104V10Z" stroke="black" stroke-width="7" stroke-miterlimit="10"/>
<path d="M61.9354 47.1618C60.9276 47.5205 60.2198 48.4258 60.0445 49.2285C59.7547 50.554 60.9276 51.5549 62.1814 52.7643C64.2307 54.7354 65.4576 56.2931 67.9113 59.4052C70.4426 62.613 70.8942 64.0102 70.6954 65.2093C70.6448 65.5167 70.2538 67.6074 70.2538 67.6074C69.4955 67.095 71.693 68.844 72.6739 68.9773C73.5536 69.0968 74.3119 68.7347 75.586 68.1232C76.8129 67.5357 77.8914 67.0164 77.9925 66.2819C78.0633 65.7695 77.6252 65.3767 76.8702 64.7208C75.9601 63.9282 75.0905 63.4944 74.9153 63.4021C73.4761 62.6574 73.0177 61.4208 71.9054 59.1798C70.1392 55.6167 70.2774 56.6757 68.6528 53.3245C66.9811 49.8708 66.6474 48.3677 64.7262 47.4795C64.2206 47.2369 63.1117 46.745 61.9354 47.1618Z" fill="white" stroke="black" stroke-width="3" stroke-miterlimit="10"/>
<path d="M60.8003 40.3365C60.554 41.036 60.7684 41.455 60.525 43.1061C60.2874 44.7146 59.986 44.9845 60.0005 45.6378C60.0556 47.8428 63.5937 48.6915 63.9733 47.3741C64.0834 46.9907 63.8342 46.7492 63.5618 44.8424C63.4546 44.0932 63.3503 43.3404 63.3329 42.3462C63.3068 40.6845 63.5647 40.2655 63.4025 39.7222C63.0489 38.5362 61.319 38.8594 60.8003 40.3365Z" fill="white" stroke="black" stroke-width="3" stroke-miterlimit="10"/>
<path d="M56.2847 71.6751C55.6671 73.0911 55.5852 74.3096 55.5272 75.6887C55.36 79.7525 55.5204 82.8723 55.5272 82.9861C55.8684 89.5639 56.039 92.8544 55.1484 96.1215C54.4284 98.7727 53.4423 100.446 54.3909 101.595C54.6366 101.893 55.0461 102.197 58.9327 102.689C62.925 103.198 63.4539 102.997 63.8532 102.689C64.9758 101.819 65.3648 99.8439 64.6107 98.6756C63.686 97.2463 61.6352 97.9392 60.4477 96.4864C59.5742 95.4152 59.8403 93.9992 60.069 92.4728C60.069 92.4728 60.3556 90.548 60.8265 83.351C61.0073 80.5793 60.6695 81.7978 60.4477 73.1346C60.359 69.6867 60.3795 68.2406 59.6902 68.0264C58.7689 67.7419 57.0969 69.8106 56.2847 71.6751Z" fill="white" stroke="black" stroke-width="3" stroke-miterlimit="10"/>
<path d="M58.287 35.4556C58.9425 37.9321 60.982 40.4223 63.9153 40.9135C67.3718 41.49 71.0997 39.1295 71.8612 35.4556C72.4936 32.4094 70.8912 29.3734 68.5504 27.951C65.0609 25.8326 60.2404 27.4768 58.6181 30.6799C57.5686 32.7471 58.1413 34.9064 58.287 35.4556Z" fill="white" stroke="black" stroke-width="3" stroke-miterlimit="10"/>
<path d="M66.5175 48.4794C66.583 49.4783 66.6354 50.4109 66.6747 51.2705C66.6747 51.2804 66.678 51.3202 66.678 51.3302C66.678 51.3302 66.7435 52.7108 66.7861 54.0914C66.8909 57.5894 66.845 61.0908 66.845 61.0908C66.8025 64.373 66.642 68.641 66.1899 73.7021C73.1995 82.321 74.454 86.4662 74.0511 88.6367C73.2453 92.9843 73.4812 94.1392 73.9528 96.4491C73.9954 96.6615 74.0118 96.771 74.0511 96.9337C74.9977 100.946 78.2732 101.872 77.9817 102.907C77.6574 104.059 73.0783 104.769 71.1032 102.576C70.3138 101.699 70.1271 100.545 70.1205 98.2612C70.1107 94.6603 70.1009 91.0196 69.4654 87.9729C69.0265 85.8688 68.3649 82.7127 65.8624 80.3397C64.2279 78.7898 63.5171 79.1981 60.9492 77.0209C59.0035 75.3715 57.2282 73.8681 57.0186 71.7109C56.8646 70.1378 57.6999 69.8291 58.3288 67.0646C58.4532 66.5236 58.5908 65.7902 58.6563 61.4226C58.7218 57.1547 58.7546 55.0207 58.6563 53.4575C58.5908 52.4387 58.5187 51.4165 58.3877 50.4009C58.3091 49.7936 58.1683 48.8046 58.6563 47.8156C58.6563 47.8156 58.748 47.6264 58.8758 47.4373C59.4228 46.6142 61.5912 44.3873 63.8971 45.1606C65.941 45.8442 66.4913 48.3499 66.5175 48.4794Z" fill="white" stroke="black" stroke-width="3" stroke-miterlimit="10"/>
<path d="M63.9699 33.8105C63.2444 34.4341 63.7682 34.9245 63.478 37.1385C63.2196 39.1107 62.6958 39.5346 63.2338 40.1161C64.0478 41.0024 66.4332 41.3037 67.6542 40.6416C68.3302 40.2737 68.2771 39.8183 68.6381 37.1385C69.0204 34.315 69.2115 33.8666 68.6381 33.4602C67.5799 32.714 65.0282 32.9067 63.9699 33.8105Z" fill="white" stroke="black" stroke-width="3" stroke-miterlimit="10"/>
<path d="M61.5112 47.0377C61.0542 47.2144 59.9086 47.714 59.9086 47.714C59.8988 47.731 59.0372 48.5908 59.0013 49.4608C58.9686 50.2221 59.5627 51.0412 60.1958 51.4898C61.1978 52.1967 62.3467 52.0098 63.254 51.8602C64.021 51.7345 64.5661 51.517 66.4591 50.5076C68.4892 49.4235 69.5108 48.8763 69.7425 48.5194C69.9612 48.1864 70.1015 47.8193 69.909 43.8736C69.7393 40.3731 69.6903 41.9874 69.4977 38.8982C69.377 37.0086 69.3933 36.3663 68.9494 36.1046C67.9376 35.5132 65.7476 37.6271 65.6693 37.5353C65.617 37.4742 66.5603 36.5566 66.6484 36.6347C66.7235 36.6993 66.2796 37.5421 65.6693 37.5353C65.542 37.5353 65.5093 37.498 65.4636 37.5252C65.1797 37.6917 65.9532 39.2176 66.8867 41.0359C67.2849 41.8107 67.8887 42.956 67.8887 42.956C67.8887 42.956 69.1028 45.7394 68.2673 46.5551C67.905 46.9051 67.4774 46.5857 65.79 46.5109C64.9186 46.4735 63.1594 46.3988 61.5112 47.0377Z" fill="white"/>
<path d="M65.6693 37.5353C65.7476 37.6271 67.9376 35.5132 68.9494 36.1046C69.3933 36.3663 69.377 37.0086 69.4977 38.8982C69.6903 41.9874 69.7393 40.3731 69.909 43.8736C70.1015 47.8193 69.9612 48.1864 69.7425 48.5194C69.5108 48.8763 68.4892 49.4235 66.4591 50.5076C64.5661 51.517 64.021 51.7345 63.254 51.8602C62.3467 52.0098 61.1978 52.1967 60.1958 51.4898C59.5627 51.0412 58.9686 50.2221 59.0013 49.4608C59.0372 48.5908 59.8988 47.731 59.9086 47.714C59.9086 47.714 61.0542 47.2144 61.5112 47.0377C63.1594 46.3988 64.9186 46.4735 65.79 46.5109C67.4774 46.5857 67.905 46.9051 68.2673 46.5551C69.1028 45.7394 67.8887 42.956 67.8887 42.956C67.8887 42.956 67.2849 41.8107 66.8867 41.0359C65.9532 39.2176 65.1797 37.6917 65.4636 37.5252C65.5093 37.498 65.542 37.5353 65.6693 37.5353ZM65.6693 37.5353C65.617 37.4742 66.5603 36.5566 66.6484 36.6347C66.7235 36.6993 66.2796 37.5421 65.6693 37.5353Z" stroke="black" stroke-width="3" stroke-miterlimit="10"/>
<path d="M24 10C50.6655 45.9989 77.3345 82.0011 104 118Z" fill="white"/>
<path d="M24 10C50.6655 45.9989 77.3345 82.0011 104 118" stroke="black" stroke-width="7" stroke-miterlimit="10"/>
<path d="M104 10C77.3345 45.9989 50.6655 82.0011 24 118Z" fill="white"/>
<path d="M104 10C77.3345 45.9989 50.6655 82.0011 24 118" stroke="black" stroke-width="7" stroke-miterlimit="10"/>
</svg>
