<?xml version="1.0" encoding="utf-8"?>
<!-- Generator: Adobe Adobe Illustrator 29.2.0, SVG Export Plug-In . SVG Version: 6.00 Build 0)  -->
<svg version="1.1" xmlns="http://www.w3.org/2000/svg" xmlns:xlink="http://www.w3.org/1999/xlink" x="0px" y="0px"
	 viewBox="0 0 595.28 841.89" style="enable-background:new 0 0 595.28 841.89;" xml:space="preserve">
<style type="text/css">
	.st0{display:none;}
	.st1{display:inline;fill:#FFFFFF;stroke:#000000;stroke-miterlimit:10;}
	.st2{fill:#FFFFFF;stroke:#000000;stroke-miterlimit:10;}
</style>
<g id="Layer_4" class="st0">
	<path class="st1" d="M291.24,371.01c-2.99,1.05-5.09,3.7-5.61,6.05c-0.86,3.88,2.62,6.81,6.34,10.35c6.08,5.77,9.72,10.33,17,19.44
		c7.51,9.39,8.85,13.48,8.26,16.99c-0.15,0.9-1.31,7.02-1.31,7.02l0,0c-2.25-1.5,4.27,3.62,7.18,4.01c2.61,0.35,4.86-0.71,8.64-2.5
		c3.64-1.72,6.84-3.24,7.14-5.39c0.21-1.5-1.09-2.65-3.33-4.57c-2.7-2.32-5.28-3.59-5.8-3.86c-4.27-2.18-5.63-5.8-8.93-12.36
		c-5.24-10.43-4.83-7.33-9.65-17.14c-4.96-10.11-5.95-14.51-11.65-17.11C298.02,371.24,294.73,369.79,291.24,371.01z"/>
	<path class="st1" d="M286.76,349.31c-0.85,1.97-0.11,3.15-0.95,7.8c-0.82,4.53-1.86,5.29-1.81,7.13c0.19,6.21,12.4,8.6,13.71,4.89
		c0.38-1.08-0.48-1.76-1.42-7.13c-0.37-2.11-0.73-4.23-0.79-7.03c-0.09-4.68,0.8-5.86,0.24-7.39
		C294.51,344.24,288.55,345.14,286.76,349.31z"/>
	<path class="st1" d="M272.9,444.21c-1.81,4.23-2.05,7.87-2.22,11.99c-0.49,12.14-0.02,21.46,0,21.8c1,19.65,1.49,29.48-1.11,39.24
		c-2.11,7.92-5,12.92-2.22,16.35c0.72,0.89,1.92,1.8,13.31,3.27c11.7,1.52,13.25,0.92,14.42,0c3.29-2.6,4.43-8.5,2.22-11.99
		c-2.71-4.27-8.72-2.2-12.2-6.54c-2.56-3.2-1.78-7.43-1.11-11.99c0,0,0.84-5.75,2.22-27.25c0.53-8.28-0.46-4.64-1.11-30.52
		c-0.26-10.3-0.2-14.62-2.22-15.26C280.18,432.45,275.28,438.63,272.9,444.21z"/>
	<path class="st1" d="M278.16,334.3c1.98,7.26,8.14,14.56,17,16c10.44,1.69,21.7-5.23,24-16c1.91-8.93-2.93-17.83-10-22
		c-10.54-6.21-25.1-1.39-30,8C276,326.37,277.72,332.7,278.16,334.3z"/>
	<path class="st1" d="M296.16,404.3"/>
	<path class="st1" d="M303.16,373.3c0.2,3.01,0.36,5.82,0.48,8.41c0,0.03,0.01,0.15,0.01,0.18c0,0,0.2,4.16,0.33,8.32
		c0.32,10.54,0.18,21.09,0.18,21.09c-0.13,9.89-0.62,22.75-2,38c21.4,25.97,25.23,38.46,24,45c-2.46,13.1-1.74,16.58-0.3,23.54
		c0.13,0.64,0.18,0.97,0.3,1.46c2.89,12.09,12.89,14.88,12,18c-0.99,3.47-14.97,5.61-21-1c-2.41-2.64-2.98-6.12-3-13
		c-0.03-10.85-0.06-21.82-2-31c-1.34-6.34-3.36-15.85-11-23c-4.99-4.67-7.16-3.44-15-10c-5.94-4.97-11.36-9.5-12-16
		c-0.47-4.74,2.08-5.67,4-14c0.38-1.63,0.8-3.84,1-17c0.2-12.86,0.3-19.29,0-24c-0.2-3.07-0.42-6.15-0.82-9.21
		c-0.24-1.83-0.67-4.81,0.82-7.79c0,0,0.28-0.57,0.67-1.14c1.67-2.48,8.29-9.19,15.33-6.86C301.4,365.37,303.08,372.91,303.16,373.3
		z"/>
	<path class="st1" d="M296.96,330.43c-2.05,1.78-0.57,3.18-1.39,9.5c-0.73,5.63-2.21,6.84-0.69,8.5c2.3,2.53,9.04,3.39,12.49,1.5
		c1.91-1.05,1.76-2.35,2.78-10c1.08-8.06,1.62-9.34,0-10.5C307.16,327.29,299.95,327.84,296.96,330.43z"/>
	<path class="st1" d="M288.44,370.36c-1.4,0.52-4.91,1.99-4.91,1.99l0,0c-0.03,0.05-2.67,2.58-2.78,5.14
		c-0.1,2.24,1.72,4.65,3.66,5.97c3.07,2.08,6.59,1.53,9.37,1.09c2.35-0.37,4.02-1.01,9.82-3.98c6.22-3.19,9.35-4.8,10.06-5.85
		c0.67-0.98,1.1-2.06,0.51-13.67c-0.52-10.3-0.67-5.55-1.26-14.64c-0.37-5.56-0.32-7.45-1.68-8.22c-3.1-1.74-9.81,4.48-10.05,4.21
		c-0.16-0.18,2.73-2.88,3-2.65c0.23,0.19-1.13,2.67-3,2.65c-0.39,0-0.49-0.11-0.63-0.03c-0.87,0.49,1.5,4.98,4.36,10.33
		c1.22,2.28,3.07,5.65,3.07,5.65l0,0c0,0,3.72,8.19,1.16,10.59c-1.11,1.03-2.42,0.09-7.59-0.13
		C298.88,368.7,293.5,368.48,288.44,370.36z"/>
</g>
<g id="Layer_1">
	<rect x="91" y="196" class="st2" width="416" height="309"/>
	<path class="st2" d="M158.06,353.92L158.06,353.92L158.06,353.92c-1.66,2.25-2.48,3.4-2.21,4.46c0.25,0.96,1.24,2.22,2.46,2.25
		c1.38,0.03,3.25-1.5,3.17-2.96C161.44,356.85,160.79,356.3,158.06,353.92z"/>
	<path class="st2" d="M158.06,354.76c-1.06,2.11,3.85,2.89,3.64,5.3c-0.18,2.05-3.85,2.92-2.42,3.86c1.17,0.77,4.82,0.95,7.27,0.48
		c3.55-0.68,4.01-2.61,4.24-3.62c0.43-1.83-1.03-3.2-3.03-5.06c-1.87-1.74-3.37-3.14-5.45-3.13
		C160.45,352.6,158.59,353.71,158.06,354.76z"/>
	<path class="st2" d="M258.8,287.47c-1.89,0.57-3.22,2.01-3.55,3.29c-0.54,2.11,1.66,3.69,4.01,5.62
		c3.84,3.13,6.15,5.61,10.76,10.55c4.75,5.1,5.6,7.32,5.23,9.22c-0.1,0.49-0.83,3.81-0.83,3.81l0,0c-1.43-0.81,2.7,1.96,4.55,2.18
		c1.65,0.19,3.07-0.39,5.47-1.36c2.31-0.94,4.33-1.76,4.52-2.93c0.13-0.81-0.69-1.44-2.11-2.48c-1.71-1.26-3.34-1.95-3.67-2.09
		c-2.7-1.18-3.56-3.15-5.65-6.71c-3.32-5.66-3.05-3.98-6.1-9.3c-3.14-5.49-3.77-7.88-7.37-9.29
		C263.08,287.59,261,286.81,258.8,287.47z"/>
	<path class="st2" d="M432.85,312.21c-1.93,0.57-3.29,2.01-3.62,3.29c-0.55,2.11,1.69,3.69,4.09,5.62
		c3.92,3.13,6.27,5.61,10.98,10.55c4.85,5.1,5.71,7.32,5.33,9.22c-0.1,0.49-0.85,3.81-0.85,3.81l0,0c-1.45-0.81,2.76,1.96,4.64,2.18
		c1.68,0.19,3.14-0.39,5.58-1.36c2.35-0.94,4.42-1.76,4.61-2.93c0.13-0.81-0.7-1.44-2.15-2.48c-1.75-1.26-3.4-1.95-3.74-2.09
		c-2.75-1.18-3.64-3.15-5.77-6.71c-3.38-5.66-3.12-3.98-6.23-9.3c-3.2-5.49-3.84-7.88-7.52-9.29
		C437.23,312.33,435.1,311.55,432.85,312.21z"/>
	<path class="st2" d="M429.96,300.43c-0.55,1.07-0.07,1.71-0.61,4.24c-0.53,2.46-1.2,2.87-1.17,3.87c0.12,3.37,8,4.67,8.85,2.65
		c0.25-0.59-0.31-0.96-0.91-3.87c-0.24-1.15-0.47-2.29-0.51-3.81c-0.06-2.54,0.52-3.18,0.15-4.01
		C434.96,297.68,431.11,298.17,429.96,300.43z"/>
	<path class="st2" d="M421.01,351.94c-1.17,2.3-1.32,4.27-1.43,6.51c-0.32,6.59-0.01,11.65,0,11.83c0.64,10.67,0.96,16-0.72,21.3
		c-1.36,4.3-3.23,7.01-1.43,8.87c0.46,0.48,1.24,0.97,8.59,1.77c7.55,0.82,8.55,0.5,9.3,0c2.12-1.41,2.86-4.61,1.43-6.51
		c-1.75-2.32-5.63-1.19-7.87-3.55c-1.65-1.74-1.15-4.03-0.72-6.51c0,0,0.54-3.12,1.43-14.79c0.34-4.5-0.29-2.52-0.72-16.56
		c-0.17-5.59-0.13-7.93-1.43-8.28C425.71,345.56,422.55,348.91,421.01,351.94z"/>
	<path class="st2" d="M424.41,292.29c1.28,3.94,5.26,7.9,10.97,8.68c6.74,0.92,14.01-2.84,15.49-8.68
		c1.23-4.85-1.89-9.68-6.45-11.94c-6.8-3.37-16.2-0.75-19.36,4.34C423.01,287.98,424.13,291.42,424.41,292.29z"/>
	<path class="st2" d="M436.03,330.28"/>
	<path class="st2" d="M440.55,313.45c0.13,1.64,0.23,3.16,0.31,4.57c0,0.02,0,0.08,0.01,0.1c0,0,0.13,2.26,0.21,4.51
		c0.21,5.72,0.12,11.45,0.12,11.45c-0.08,5.37-0.4,12.35-1.29,20.63c13.81,14.09,16.28,20.87,15.49,24.43
		c-1.59,7.11-1.12,9-0.19,12.78c0.09,0.35,0.12,0.53,0.19,0.79c1.86,6.56,8.32,8.07,7.75,9.77c-0.64,1.89-9.66,3.05-13.56-0.54
		c-1.55-1.43-1.93-3.32-1.94-7.06c-0.02-5.89-0.04-11.84-1.29-16.83c-0.87-3.44-2.17-8.6-7.1-12.48c-3.22-2.54-4.62-1.87-9.68-5.43
		c-3.84-2.7-7.33-5.16-7.75-8.68c-0.3-2.57,1.34-3.08,2.58-7.6c0.24-0.88,0.51-2.08,0.65-9.23c0.13-6.98,0.19-10.47,0-13.03
		c-0.13-1.67-0.27-3.34-0.53-5c-0.15-0.99-0.43-2.61,0.53-4.23c0,0,0.18-0.31,0.43-0.62c1.08-1.35,5.35-4.99,9.9-3.73
		C439.41,309.15,440.49,313.24,440.55,313.45z"/>
	<path class="st2" d="M436.54,290.18c-1.33,0.96-0.37,1.73-0.9,5.16c-0.47,3.06-1.43,3.71-0.45,4.61c1.49,1.37,5.83,1.84,8.06,0.81
		c1.24-0.57,1.13-1.28,1.79-5.43c0.69-4.37,1.04-5.07,0-5.7C443.13,288.48,438.47,288.78,436.54,290.18z"/>
	<path class="st2" d="M431.04,311.86c-0.9,0.28-3.17,1.08-3.17,1.08l0,0c-0.02,0.02-1.72,1.4-1.8,2.79
		c-0.07,1.22,1.11,2.53,2.36,3.24c1.98,1.13,4.25,0.83,6.05,0.59c1.52-0.2,2.59-0.55,6.34-2.16c4.02-1.73,6.03-2.61,6.49-3.17
		c0.43-0.53,0.71-1.12,0.33-7.42c-0.34-5.59-0.43-3.01-0.82-7.94c-0.24-3.02-0.21-4.05-1.08-4.46c-2-0.94-6.33,2.43-6.49,2.28
		c-0.1-0.1,1.76-1.56,1.93-1.44c0.15,0.1-0.73,1.45-1.93,1.44c-0.25,0-0.31-0.06-0.41-0.02c-0.56,0.27,0.97,2.7,2.81,5.61
		c0.78,1.24,1.98,3.07,1.98,3.07l0,0c0,0,2.4,4.45,0.75,5.75c-0.71,0.56-1.56,0.05-4.9-0.07
		C437.78,310.96,434.31,310.84,431.04,311.86z"/>
	<path class="st2" d="M255.96,275.69c-0.54,1.07-0.07,1.71-0.6,4.24c-0.52,2.46-1.18,2.87-1.14,3.87c0.12,3.37,7.84,4.67,8.67,2.65
		c0.24-0.59-0.31-0.96-0.9-3.87c-0.23-1.15-0.46-2.29-0.5-3.81c-0.06-2.54,0.51-3.18,0.15-4.01
		C260.87,272.94,257.09,273.43,255.96,275.69z"/>
	<path class="st2" d="M250.52,267.54c1.25,3.94,5.15,7.9,10.76,8.68c6.6,0.92,13.73-2.84,15.18-8.68c1.21-4.85-1.85-9.68-6.33-11.94
		c-6.67-3.37-15.88-0.75-18.98,4.34C249.15,263.24,250.24,266.67,250.52,267.54z"/>
	<path class="st2" d="M261.91,305.54"/>
	<path class="st2" d="M262.41,265.44c-1.3,0.96-0.36,1.73-0.88,5.16c-0.46,3.06-1.4,3.71-0.44,4.61c1.46,1.37,5.72,1.84,7.9,0.81
		c1.21-0.57,1.11-1.28,1.76-5.43c0.68-4.37,1.02-5.07,0-5.7C268.87,263.74,264.3,264.04,262.41,265.44z"/>
	<path class="st2" d="M257.02,287.12c-0.88,0.28-3.11,1.08-3.11,1.08l0,0c-0.02,0.02-1.69,1.4-1.76,2.79
		c-0.06,1.22,1.09,2.53,2.32,3.24c1.94,1.13,4.17,0.83,5.93,0.59c1.49-0.2,2.54-0.55,6.21-2.16c3.94-1.73,5.91-2.61,6.36-3.17
		c0.42-0.53,0.7-1.12,0.32-7.42c-0.33-5.59-0.42-3.01-0.8-7.94c-0.23-3.02-0.2-4.05-1.06-4.46c-1.96-0.94-6.21,2.43-6.36,2.28
		c-0.1-0.1,1.73-1.56,1.9-1.44c0.14,0.1-0.71,1.45-1.9,1.44c-0.25,0-0.31-0.06-0.4-0.02c-0.55,0.27,0.95,2.7,2.76,5.61
		c0.77,1.24,1.94,3.07,1.94,3.07l0,0c0,0,2.35,4.45,0.73,5.75c-0.7,0.56-1.53,0.05-4.8-0.07
		C263.63,286.22,260.22,286.1,257.02,287.12z"/>
	<path class="st2" d="M172,326.49c-1.89,0.57-3.22,2.01-3.55,3.29c-0.54,2.11,1.66,3.69,4.01,5.62c3.84,3.13,6.15,5.61,10.76,10.55
		c4.75,5.1,5.6,7.32,5.23,9.22c-0.1,0.49-0.83,3.81-0.83,3.81l0,0c-1.43-0.81,2.7,1.96,4.55,2.18c1.65,0.19,3.07-0.39,5.47-1.36
		c2.31-0.94,4.33-1.76,4.52-2.93c0.13-0.81-0.69-1.44-2.11-2.48c-1.71-1.26-3.34-1.95-3.67-2.09c-2.7-1.18-3.56-3.15-5.65-6.71
		c-3.32-5.66-3.05-3.98-6.1-9.3c-3.14-5.49-3.77-7.88-7.37-9.29C176.29,326.61,174.21,325.82,172,326.49z"/>
	<path class="st2" d="M169.16,314.7c-0.54,1.07-0.07,1.71-0.6,4.24c-0.52,2.46-1.18,2.87-1.14,3.87c0.12,3.37,7.84,4.67,8.67,2.65
		c0.24-0.59-0.31-0.96-0.9-3.87c-0.23-1.15-0.46-2.29-0.5-3.81c-0.06-2.54,0.51-3.18,0.15-4.01
		C174.07,311.95,170.29,312.45,169.16,314.7z"/>
	<path class="st2" d="M160.4,366.21c-1.14,2.3-1.3,4.27-1.4,6.51c-0.31,6.59-0.01,11.65,0,11.83c0.63,10.67,0.95,16-0.7,21.3
		c-1.34,4.3-3.16,7.01-1.4,8.87c0.45,0.48,1.21,0.97,8.42,1.77c7.4,0.82,8.38,0.5,9.12,0c2.08-1.41,2.8-4.61,1.4-6.51
		c-1.72-2.32-5.52-1.19-7.72-3.55c-1.62-1.74-1.12-4.03-0.7-6.51c0,0,0.53-3.12,1.4-14.79c0.33-4.5-0.29-2.52-0.7-16.56
		c-0.16-5.59-0.13-7.93-1.4-8.28C165,359.83,161.9,363.19,160.4,366.21z"/>
	<path class="st2" d="M163.72,306.56c1.25,3.94,5.15,7.9,10.76,8.68c6.6,0.92,13.73-2.84,15.18-8.68c1.21-4.85-1.85-9.68-6.33-11.94
		c-6.67-3.37-15.88-0.75-18.98,4.34C162.35,302.25,163.45,305.69,163.72,306.56z"/>
	<path class="st2" d="M175.11,344.55"/>
	<path class="st2" d="M179.54,327.73c0.13,1.64,0.22,3.16,0.3,4.57c0,0.02,0,0.08,0.01,0.1c0,0,0.13,2.26,0.21,4.51
		c0.2,5.72,0.12,11.45,0.12,11.45c-0.08,5.37-0.39,12.35-1.27,20.63c13.54,14.09,15.96,20.87,15.18,24.43
		c-1.56,7.11-1.1,9-0.19,12.78c0.08,0.35,0.12,0.53,0.19,0.79c1.83,6.56,8.16,8.07,7.59,9.77c-0.63,1.89-9.47,3.05-13.29-0.54
		c-1.52-1.43-1.89-3.32-1.9-7.06c-0.02-5.89-0.03-11.84-1.27-16.83c-0.85-3.44-2.12-8.6-6.96-12.48c-3.16-2.54-4.53-1.87-9.49-5.43
		c-3.76-2.7-7.19-5.16-7.59-8.68c-0.3-2.57,1.32-3.08,2.53-7.6c0.24-0.88,0.5-2.08,0.63-9.23c0.13-6.98,0.19-10.47,0-13.03
		c-0.12-1.67-0.27-3.34-0.52-5c-0.15-0.99-0.43-2.61,0.52-4.23c0,0,0.18-0.31,0.42-0.62c1.06-1.35,5.25-4.99,9.7-3.73
		C178.43,323.42,179.49,327.52,179.54,327.73z"/>
	<path class="st2" d="M175.62,304.46c-1.3,0.96-0.36,1.73-0.88,5.16c-0.46,3.06-1.4,3.71-0.44,4.61c1.46,1.37,5.72,1.84,7.9,0.81
		c1.21-0.57,1.11-1.28,1.76-5.43c0.68-4.37,1.02-5.07,0-5.7C182.07,302.76,177.51,303.05,175.62,304.46z"/>
	<path class="st2" d="M170.23,326.13c-0.88,0.28-3.11,1.08-3.11,1.08l0,0c-0.02,0.02-1.69,1.4-1.76,2.79
		c-0.06,1.22,1.09,2.53,2.32,3.24c1.94,1.13,4.17,0.83,5.93,0.59c1.49-0.2,2.54-0.55,6.21-2.16c3.94-1.73,5.91-2.61,6.36-3.17
		c0.42-0.53,0.7-1.12,0.32-7.42c-0.33-5.59-0.42-3.01-0.8-7.94c-0.23-3.02-0.2-4.05-1.06-4.46c-1.96-0.94-6.21,2.43-6.36,2.28
		c-0.1-0.1,1.73-1.56,1.9-1.44c0.14,0.1-0.71,1.45-1.9,1.44c-0.25,0-0.31-0.06-0.4-0.02c-0.55,0.27,0.95,2.7,2.76,5.61
		c0.77,1.24,1.94,3.07,1.94,3.07l0,0c0,0,2.35,4.45,0.73,5.75c-0.7,0.56-1.53,0.05-4.8-0.07
		C176.83,325.23,173.43,325.11,170.23,326.13z"/>
	<g id="Layer_2">
		<g id="Layer_3">
		</g>
	</g>
	<g>
		<path class="st2" d="M247.19,327.2c-1.14,2.3-1.3,4.27-1.4,6.51c-0.31,6.59-0.01,11.65,0,11.83c0.63,10.67,0.95,16-0.7,21.3
			c-1.34,4.3-3.16,7.01-1.4,8.87c0.45,0.48,1.21,0.97,8.42,1.77c7.4,0.82,8.38,0.5,9.12,0c2.08-1.41,2.8-4.61,1.4-6.51
			c-1.72-2.32-5.52-1.19-7.72-3.55c-1.62-1.74-1.12-4.03-0.7-6.51c0,0,0.53-3.12,1.4-14.79c0.33-4.5-0.29-2.52-0.7-16.56
			c-0.16-5.59-0.13-7.93-1.4-8.28C251.8,320.82,248.7,324.17,247.19,327.2z"/>
		<path class="st2" d="M266.34,288.71c0.13,1.64,0.22,3.16,0.3,4.57c0,0.02,0,0.08,0.01,0.1c0,0,0.13,2.26,0.21,4.51
			c0.2,5.72,0.12,11.45,0.12,11.45c-0.08,5.37-0.39,12.35-1.27,20.63c13.54,14.09,15.96,20.87,15.18,24.43
			c-1.56,7.11-1.1,9-0.19,12.78c0.08,0.35,0.12,0.53,0.19,0.79c1.83,6.56,8.16,8.07,7.59,9.77c-0.63,1.89-9.47,3.05-13.29-0.54
			c-1.52-1.43-1.89-3.32-1.9-7.06c-0.02-5.89-0.03-11.84-1.27-16.83c-0.85-3.44-2.12-8.6-6.96-12.48c-3.16-2.54-4.53-1.87-9.49-5.43
			c-3.76-2.7-7.19-5.16-7.59-8.68c-0.3-2.57,1.32-3.08,2.53-7.6c0.24-0.88,0.5-2.08,0.63-9.23c0.13-6.98,0.19-10.47,0-13.03
			c-0.12-1.67-0.27-3.34-0.52-5c-0.15-0.99-0.43-2.61,0.52-4.23c0,0,0.18-0.31,0.42-0.62c1.06-1.35,5.25-4.99,9.7-3.73
			C265.22,284.41,266.29,288.5,266.34,288.71z"/>
		<path class="st2" d="M258.8,389.2c-1.89,0.57-3.22,2.01-3.55,3.29c-0.54,2.11,1.66,3.69,4.01,5.62
			c3.84,3.13,6.15,5.61,10.76,10.55c4.75,5.1,5.6,7.32,5.23,9.22c-0.1,0.49-0.83,3.81-0.83,3.81l0,0c-1.43-0.81,2.7,1.96,4.55,2.18
			c1.65,0.19,3.07-0.39,5.47-1.36c2.31-0.94,4.33-1.76,4.52-2.93c0.13-0.81-0.69-1.44-2.11-2.48c-1.71-1.26-3.34-1.95-3.67-2.09
			c-2.7-1.18-3.56-3.15-5.65-6.71c-3.32-5.66-3.05-3.98-6.1-9.3c-3.14-5.49-3.77-7.88-7.37-9.29
			C263.08,389.32,261,388.54,258.8,389.2z"/>
		<path class="st2" d="M255.96,377.42c-0.54,1.07-0.07,1.71-0.6,4.24c-0.52,2.46-1.18,2.87-1.14,3.87c0.12,3.37,7.84,4.67,8.67,2.65
			c0.24-0.59-0.31-0.96-0.9-3.87c-0.23-1.15-0.46-2.29-0.5-3.81c-0.06-2.54,0.51-3.18,0.15-4.01
			C260.87,374.67,257.09,375.16,255.96,377.42z"/>
		<path class="st2" d="M247.19,428.93c-1.14,2.3-1.3,4.27-1.4,6.51c-0.31,6.59-0.01,11.65,0,11.83c0.63,10.67,0.95,16-0.7,21.3
			c-1.34,4.3-3.16,7.01-1.4,8.87c0.45,0.48,1.21,0.97,8.42,1.77c7.4,0.82,8.38,0.5,9.12,0c2.08-1.41,2.8-4.61,1.4-6.51
			c-1.72-2.32-5.52-1.19-7.72-3.55c-1.62-1.74-1.12-4.03-0.7-6.51c0,0,0.53-3.12,1.4-14.79c0.33-4.5-0.29-2.52-0.7-16.56
			c-0.16-5.59-0.13-7.93-1.4-8.28C251.8,422.55,248.7,425.9,247.19,428.93z"/>
		<path class="st2" d="M250.52,369.27c1.25,3.94,5.15,7.9,10.76,8.68c6.6,0.92,13.73-2.84,15.18-8.68
			c1.21-4.85-1.85-9.68-6.33-11.94c-6.67-3.37-15.88-0.75-18.98,4.34C249.15,364.97,250.24,368.4,250.52,369.27z"/>
		<path class="st2" d="M261.91,407.27"/>
		<path class="st2" d="M266.34,390.44c0.13,1.64,0.22,3.16,0.3,4.57c0,0.02,0,0.08,0.01,0.1c0,0,0.13,2.26,0.21,4.51
			c0.2,5.72,0.12,11.45,0.12,11.45c-0.08,5.37-0.39,12.35-1.27,20.63c13.54,14.09,15.96,20.87,15.18,24.43
			c-1.56,7.11-1.1,9-0.19,12.78c0.08,0.35,0.12,0.53,0.19,0.79c1.83,6.56,8.16,8.07,7.59,9.77c-0.63,1.89-9.47,3.05-13.29-0.54
			c-1.52-1.43-1.89-3.32-1.9-7.06c-0.02-5.89-0.03-11.84-1.27-16.83c-0.85-3.44-2.12-8.6-6.96-12.48c-3.16-2.54-4.53-1.87-9.49-5.43
			c-3.76-2.7-7.19-5.16-7.59-8.68c-0.3-2.57,1.32-3.08,2.53-7.6c0.24-0.88,0.5-2.08,0.63-9.23c0.13-6.98,0.19-10.47,0-13.03
			c-0.12-1.67-0.27-3.34-0.52-5c-0.15-0.99-0.43-2.61,0.52-4.23c0,0,0.18-0.31,0.42-0.62c1.06-1.35,5.25-4.99,9.7-3.73
			C265.22,386.13,266.29,390.23,266.34,390.44z"/>
		<path class="st2" d="M262.41,367.17c-1.3,0.96-0.36,1.73-0.88,5.16c-0.46,3.06-1.4,3.71-0.44,4.61c1.46,1.37,5.72,1.84,7.9,0.81
			c1.21-0.57,1.11-1.28,1.76-5.43c0.68-4.37,1.02-5.07,0-5.7C268.87,365.47,264.3,365.77,262.41,367.17z"/>
		<path class="st2" d="M257.02,388.85c-0.88,0.28-3.11,1.08-3.11,1.08l0,0c-0.02,0.02-1.69,1.4-1.76,2.79
			c-0.06,1.22,1.09,2.53,2.32,3.24c1.94,1.13,4.17,0.83,5.93,0.59c1.49-0.2,2.54-0.55,6.21-2.16c3.94-1.73,5.91-2.61,6.36-3.17
			c0.42-0.53,0.7-1.12,0.32-7.42c-0.33-5.59-0.42-3.01-0.8-7.94c-0.23-3.02-0.2-4.05-1.06-4.46c-1.96-0.94-6.21,2.43-6.36,2.28
			c-0.1-0.1,1.73-1.56,1.9-1.44c0.14,0.1-0.71,1.45-1.9,1.44c-0.25,0-0.31-0.06-0.4-0.02c-0.55,0.27,0.95,2.7,2.76,5.61
			c0.77,1.24,1.94,3.07,1.94,3.07l0,0c0,0,2.35,4.45,0.73,5.75c-0.7,0.56-1.53,0.05-4.8-0.07
			C263.63,387.95,260.22,387.83,257.02,388.85z"/>
	</g>
	<path class="st2" d="M370.04,307.78c1.85,0.57,3.15,2.01,3.47,3.29c0.53,2.11-1.62,3.69-3.92,5.62
		c-3.76,3.13-6.01,5.61-10.51,10.55c-4.64,5.1-5.47,7.32-5.11,9.22c0.09,0.49,0.81,3.81,0.81,3.81l0,0
		c1.39-0.81-2.64,1.96-4.44,2.18c-1.61,0.19-3-0.39-5.34-1.36c-2.25-0.94-4.23-1.76-4.41-2.93c-0.13-0.81,0.67-1.44,2.06-2.48
		c1.67-1.26,3.26-1.95,3.59-2.09c2.64-1.18,3.48-3.15,5.52-6.71c3.24-5.66,2.98-3.98,5.96-9.3c3.07-5.49,3.68-7.88,7.2-9.29
		C365.85,307.9,367.88,307.11,370.04,307.78z"/>
	<path class="st2" d="M372.81,295.99c0.52,1.07,0.07,1.71,0.59,4.24c0.51,2.46,1.15,2.87,1.12,3.87c-0.12,3.37-7.66,4.67-8.47,2.65
		c-0.24-0.59,0.3-0.96,0.88-3.87c0.23-1.15,0.45-2.29,0.49-3.81c0.06-2.54-0.49-3.18-0.15-4.01
		C368.02,293.24,371.71,293.74,372.81,295.99z"/>
	<path class="st2" d="M381.38,347.5c1.12,2.3,1.27,4.27,1.37,6.51c0.3,6.59,0.01,11.65,0,11.83c-0.62,10.67-0.92,16,0.69,21.3
		c1.31,4.3,3.09,7.01,1.37,8.87c-0.44,0.48-1.18,0.97-8.23,1.77c-7.23,0.82-8.19,0.5-8.91,0c-2.03-1.41-2.74-4.61-1.37-6.51
		c1.68-2.32,5.39-1.19,7.54-3.55c1.58-1.74,1.1-4.03,0.69-6.51c0,0-0.52-3.12-1.37-14.79c-0.33-4.5,0.28-2.52,0.69-16.56
		c0.16-5.59,0.12-7.93,1.37-8.28C376.87,341.12,379.91,344.48,381.38,347.5z"/>
	<path class="st2" d="M378.12,287.85c-1.23,3.94-5.03,7.9-10.51,8.68c-6.45,0.92-13.41-2.84-14.84-8.68
		c-1.18-4.85,1.81-9.68,6.18-11.94c6.51-3.37,15.52-0.75,18.54,4.34C379.46,283.54,378.39,286.98,378.12,287.85z"/>
	<path class="st2" d="M367,325.84"/>
	<path class="st2" d="M362.67,309.02c-0.12,1.64-0.22,3.16-0.3,4.57c0,0.02,0,0.08-0.01,0.1c0,0-0.12,2.26-0.2,4.51
		c-0.2,5.72-0.11,11.45-0.11,11.45c0.08,5.37,0.38,12.35,1.24,20.63c-13.23,14.09-15.6,20.87-14.84,24.43
		c1.52,7.11,1.08,9,0.19,12.78c-0.08,0.35-0.11,0.53-0.19,0.79c-1.78,6.56-7.97,8.07-7.42,9.77c0.61,1.89,9.25,3.05,12.98-0.54
		c1.49-1.43,1.84-3.32,1.85-7.06c0.02-5.89,0.03-11.84,1.24-16.83c0.83-3.44,2.07-8.6,6.8-12.48c3.09-2.54,4.43-1.87,9.27-5.43
		c3.67-2.7,7.02-5.16,7.42-8.68c0.29-2.57-1.28-3.08-2.47-7.6c-0.23-0.88-0.49-2.08-0.62-9.23c-0.12-6.98-0.18-10.47,0-13.03
		c0.12-1.67,0.26-3.34,0.51-5c0.15-0.99,0.42-2.61-0.51-4.23c0,0-0.18-0.31-0.41-0.62c-1.03-1.35-5.12-4.99-9.48-3.73
		C363.76,304.71,362.72,308.81,362.67,309.02z"/>
	<path class="st2" d="M366.5,285.75c1.27,0.96,0.35,1.73,0.86,5.16c0.45,3.06,1.37,3.71,0.43,4.61c-1.42,1.37-5.59,1.84-7.72,0.81
		c-1.18-0.57-1.09-1.28-1.72-5.43c-0.67-4.37-1-5.07,0-5.7C360.2,284.05,364.66,284.34,366.5,285.75z"/>
	<path class="st2" d="M371.77,307.42c0.86,0.28,3.03,1.08,3.03,1.08l0,0c0.02,0.02,1.65,1.4,1.72,2.79
		c0.06,1.22-1.06,2.53-2.26,3.24c-1.9,1.13-4.07,0.83-5.79,0.59c-1.46-0.2-2.48-0.55-6.07-2.16c-3.85-1.73-5.78-2.61-6.22-3.17
		c-0.41-0.53-0.68-1.12-0.32-7.42c0.32-5.59,0.41-3.01,0.78-7.94c0.23-3.02,0.2-4.05,1.04-4.46c1.91-0.94,6.06,2.43,6.21,2.28
		c0.1-0.1-1.69-1.56-1.85-1.44c-0.14,0.1,0.7,1.45,1.85,1.44c0.24,0,0.3-0.06,0.39-0.02c0.54,0.27-0.93,2.7-2.69,5.61
		c-0.75,1.24-1.9,3.07-1.9,3.07l0,0c0,0-2.3,4.45-0.71,5.75c0.68,0.56,1.5,0.05,4.69-0.07C365.32,306.52,368.65,306.4,371.77,307.42
		z"/>
	<path class="st2" d="M155.65,355.42c1.85,0.57,3.15,2.01,3.47,3.29c0.53,2.11-1.62,3.69-3.92,5.62
		c-3.76,3.13-6.01,5.61-10.51,10.55c-4.64,5.1-5.47,7.32-5.11,9.22c0.09,0.49,0.81,3.81,0.81,3.81l0,0
		c1.39-0.81-2.64,1.96-4.44,2.18c-1.61,0.19-3-0.39-5.34-1.36c-2.25-0.94-4.23-1.76-4.41-2.93c-0.13-0.81,0.67-1.44,2.06-2.48
		c1.67-1.26,3.26-1.95,3.59-2.09c2.64-1.18,3.48-3.15,5.52-6.71c3.24-5.66,2.98-3.98,5.96-9.3c3.07-5.49,3.68-7.88,7.2-9.29
		C151.46,355.54,153.5,354.76,155.65,355.42z"/>
	<path class="st2" d="M158.42,343.64c0.52,1.07,0.07,1.71,0.59,4.24c0.51,2.46,1.15,2.87,1.12,3.87c-0.12,3.37-7.66,4.67-8.47,2.65
		c-0.24-0.59,0.3-0.96,0.88-3.87c0.23-1.15,0.45-2.29,0.49-3.81c0.06-2.54-0.49-3.18-0.15-4.01
		C153.63,340.89,157.32,341.38,158.42,343.64z"/>
	<path class="st2" d="M166.99,395.15c1.12,2.3,1.27,4.27,1.37,6.51c0.3,6.59,0.01,11.65,0,11.83c-0.62,10.67-0.92,16,0.69,21.3
		c1.31,4.3,3.09,7.01,1.37,8.87c-0.44,0.48-1.18,0.97-8.23,1.77c-7.23,0.82-8.19,0.5-8.91,0c-2.03-1.41-2.74-4.61-1.37-6.51
		c1.68-2.32,5.39-1.19,7.54-3.55c1.58-1.74,1.1-4.03,0.69-6.51c0,0-0.52-3.12-1.37-14.79c-0.33-4.5,0.28-2.52,0.69-16.56
		c0.16-5.59,0.12-7.93,1.37-8.28C162.49,388.77,165.52,392.12,166.99,395.15z"/>
	<path class="st2" d="M163.74,335.49c-1.23,3.94-5.03,7.9-10.51,8.68c-6.45,0.92-13.41-2.84-14.84-8.68
		c-1.18-4.85,1.81-9.68,6.18-11.94c6.51-3.37,15.52-0.75,18.54,4.34C165.08,331.19,164.01,334.62,163.74,335.49z"/>
	<path class="st2" d="M152.61,373.49"/>
	<path class="st2" d="M148.28,356.66c-0.12,1.64-0.22,3.16-0.3,4.57c0,0.02,0,0.08-0.01,0.1c0,0-0.12,2.26-0.2,4.51
		c-0.2,5.72-0.11,11.45-0.11,11.45c0.08,5.37,0.38,12.35,1.24,20.63c-13.23,14.09-15.6,20.87-14.84,24.43
		c1.52,7.11,1.08,9,0.19,12.78c-0.08,0.35-0.11,0.53-0.19,0.79c-1.78,6.56-7.97,8.07-7.42,9.77c0.61,1.89,9.25,3.05,12.98-0.54
		c1.49-1.43,1.84-3.32,1.85-7.06c0.02-5.89,0.03-11.84,1.24-16.83c0.83-3.44,2.07-8.6,6.8-12.48c3.09-2.54,4.43-1.87,9.27-5.43
		c3.67-2.7,7.02-5.16,7.42-8.68c0.29-2.57-1.28-3.08-2.47-7.6c-0.23-0.88-0.49-2.08-0.62-9.23c-0.12-6.98-0.18-10.47,0-13.03
		c0.12-1.67,0.26-3.34,0.51-5c0.15-0.99,0.42-2.61-0.51-4.23c0,0-0.18-0.31-0.41-0.62c-1.03-1.35-5.12-4.99-9.48-3.73
		C149.37,352.35,148.33,356.45,148.28,356.66z"/>
	<path class="st2" d="M152.12,333.39c1.27,0.96,0.35,1.73,0.86,5.16c0.45,3.06,1.37,3.71,0.43,4.61c-1.42,1.37-5.59,1.84-7.72,0.81
		c-1.18-0.57-1.09-1.28-1.72-5.43c-0.67-4.37-1-5.07,0-5.7C145.81,331.69,150.27,331.99,152.12,333.39z"/>
	<path class="st2" d="M157.38,355.06c0.86,0.28,3.03,1.08,3.03,1.08l0,0c0.02,0.02,1.65,1.4,1.72,2.79
		c0.06,1.22-1.06,2.53-2.26,3.24c-1.9,1.13-4.07,0.83-5.79,0.59c-1.46-0.2-2.48-0.55-6.07-2.16c-3.85-1.73-5.78-2.61-6.22-3.17
		c-0.41-0.53-0.68-1.12-0.32-7.42c0.32-5.59,0.41-3.01,0.78-7.94c0.23-3.02,0.2-4.05,1.04-4.46c1.91-0.94,6.06,2.43,6.21,2.28
		c0.1-0.1-1.69-1.56-1.85-1.44c-0.14,0.1,0.7,1.45,1.85,1.44c0.24,0,0.3-0.06,0.39-0.02c0.54,0.27-0.93,2.7-2.69,5.61
		c-0.75,1.24-1.9,3.07-1.9,3.07l0,0c0,0-2.3,4.45-0.71,5.75c0.68,0.56,1.5,0.05,4.69-0.07
		C150.93,354.17,154.26,354.05,157.38,355.06z"/>
	<path class="st2" d="M431.54,377.09c1.85,0.57,3.15,2.01,3.47,3.29c0.53,2.11-1.62,3.69-3.92,5.62
		c-3.76,3.13-6.01,5.61-10.51,10.55c-4.64,5.1-5.47,7.32-5.11,9.22c0.09,0.49,0.81,3.81,0.81,3.81l0,0
		c1.39-0.81-2.64,1.96-4.44,2.18c-1.61,0.19-3-0.39-5.34-1.36c-2.25-0.94-4.23-1.76-4.41-2.93c-0.13-0.81,0.67-1.44,2.06-2.48
		c1.67-1.26,3.26-1.95,3.59-2.09c2.64-1.18,3.48-3.15,5.52-6.71c3.24-5.66,2.98-3.98,5.96-9.3c3.07-5.49,3.68-7.88,7.2-9.29
		C427.35,377.21,429.39,376.42,431.54,377.09z"/>
	<path class="st2" d="M434.31,365.31c0.52,1.07,0.07,1.71,0.59,4.24c0.51,2.46,1.15,2.87,1.12,3.87c-0.12,3.37-7.66,4.67-8.47,2.65
		c-0.24-0.59,0.3-0.96,0.88-3.87c0.23-1.15,0.45-2.29,0.49-3.81c0.06-2.54-0.49-3.18-0.15-4.01
		C429.52,362.55,433.21,363.05,434.31,365.31z"/>
	<path class="st2" d="M442.88,416.82c1.12,2.3,1.27,4.27,1.37,6.51c0.3,6.59,0.01,11.65,0,11.83c-0.62,10.67-0.92,16,0.69,21.3
		c1.31,4.3,3.09,7.01,1.37,8.87c-0.44,0.48-1.18,0.97-8.23,1.77c-7.23,0.82-8.19,0.5-8.91,0c-2.04-1.41-2.74-4.61-1.37-6.51
		c1.68-2.32,5.39-1.19,7.54-3.55c1.58-1.74,1.1-4.03,0.69-6.51c0,0-0.52-3.12-1.37-14.79c-0.33-4.5,0.28-2.52,0.69-16.56
		c0.16-5.59,0.12-7.93,1.37-8.28C438.38,410.44,441.41,413.79,442.88,416.82z"/>
	<path class="st2" d="M439.63,357.16c-1.23,3.94-5.03,7.9-10.51,8.68c-6.45,0.92-13.41-2.84-14.84-8.68
		c-1.18-4.85,1.81-9.68,6.18-11.94c6.51-3.37,15.52-0.75,18.54,4.34C440.97,352.86,439.9,356.29,439.63,357.16z"/>
	<path class="st2" d="M428.5,395.16"/>
	<path class="st2" d="M424.17,378.33c-0.12,1.64-0.22,3.16-0.3,4.57c0,0.02,0,0.08-0.01,0.1c0,0-0.12,2.26-0.2,4.51
		c-0.2,5.72-0.11,11.45-0.11,11.45c0.08,5.37,0.38,12.35,1.24,20.63c-13.23,14.09-15.6,20.87-14.84,24.43
		c1.52,7.11,1.08,9,0.19,12.78c-0.08,0.35-0.11,0.53-0.19,0.79c-1.78,6.56-7.97,8.07-7.42,9.77c0.61,1.89,9.25,3.05,12.98-0.54
		c1.49-1.43,1.84-3.32,1.85-7.06c0.02-5.89,0.03-11.84,1.24-16.83c0.83-3.44,2.07-8.6,6.8-12.48c3.09-2.54,4.43-1.87,9.27-5.43
		c3.67-2.7,7.02-5.16,7.42-8.68c0.29-2.57-1.28-3.08-2.47-7.6c-0.23-0.88-0.49-2.08-0.62-9.23c-0.12-6.98-0.18-10.47,0-13.03
		c0.12-1.67,0.26-3.34,0.51-5c0.15-0.99,0.42-2.61-0.51-4.23c0,0-0.18-0.31-0.41-0.62c-1.03-1.35-5.12-4.99-9.48-3.73
		C425.26,374.02,424.22,378.12,424.17,378.33z"/>
	<path class="st2" d="M428.01,355.06c1.27,0.96,0.35,1.73,0.86,5.16c0.45,3.06,1.37,3.71,0.43,4.61c-1.42,1.37-5.59,1.84-7.72,0.81
		c-1.18-0.57-1.09-1.28-1.72-5.43c-0.67-4.37-1-5.07,0-5.7C421.7,353.36,426.16,353.66,428.01,355.06z"/>
	<path class="st2" d="M433.27,376.73c0.86,0.28,3.03,1.08,3.03,1.08l0,0c0.02,0.02,1.65,1.4,1.72,2.79
		c0.06,1.22-1.06,2.53-2.26,3.24c-1.9,1.13-4.07,0.83-5.79,0.59c-1.46-0.2-2.48-0.55-6.07-2.16c-3.85-1.73-5.78-2.61-6.22-3.17
		c-0.41-0.53-0.68-1.12-0.32-7.42c0.32-5.59,0.41-3.01,0.78-7.94c0.23-3.02,0.2-4.05,1.04-4.46c1.91-0.94,6.06,2.43,6.21,2.28
		c0.1-0.1-1.69-1.56-1.85-1.44c-0.14,0.1,0.7,1.45,1.85,1.44c0.24,0,0.3-0.06,0.39-0.02c0.54,0.27-0.93,2.7-2.69,5.61
		c-0.75,1.24-1.9,3.07-1.9,3.07l0,0c0,0-2.3,4.45-0.71,5.75c0.68,0.56,1.5,0.05,4.69-0.07
		C426.82,375.84,430.15,375.71,433.27,376.73z"/>
	<path class="st2" d="M253.3,268.48c2.42,0.59,11.04,2.71,18.73-3.46c4.49-3.6,9.43-10.66,7.85-13.83
		c-1.63-3.28-9.62-1.27-22.95,2.07c-0.49,0.12-3.22,0.83-6.48,2.67c-2.94,1.66-6.85,3.86-6.81,6.33
		C243.69,265.4,250.12,267.7,253.3,268.48z"/>
	<path class="st2" d="M248.66,248.67c1.24-5.83,6.45-10.77,10.66-9.65c3.05,0.81,4.59,4.56,5.68,7.24
		c1.23,2.99,3.74,9.14,0.71,13.67c-2.59,3.87-8.06,4.79-12.08,2.41C249.05,259.62,247.66,253.37,248.66,248.67z"/>
	<path class="st2" d="M260.15,355.5c-3.73,0.94-5.69,2.88-9,6.18c-2.63,2.62-4.99,4.97-6,8.49c-1.32,4.61,0,10.04,0,10.04l0,0
		c0.01,0,11.15,5,22,3.86c5.37-0.56,11.02-2.66,11-4.63c-0.02-2.12-6.58-2.08-8-5.4c-2.02-4.72,8-12.36,8-12.35l0,0
		c0,0-3.17-3.71-7-5.4C266.16,354.06,260.43,355.43,260.15,355.5z"/>
	<path class="st2" d="M375.07,265.59c-1.48-0.55-2.34,1.45-6.72,4.65c-4.92,3.6-6.97,3.38-6.93,5.11
		c0.13,4.69,15.41,13.79,19.34,12.54c1.61-0.51,0.18-2.4-2.41-13.15C376.89,268.7,376.58,266.15,375.07,265.59z"/>
	<path class="st2" d="M377.38,258.02c2.9-3.15,3.65-5.44,4.22-5.25c0.77,0.26,0.46,4.72-1.55,6.87c-1.17,1.25-3.25,2.08-3.22,2.34
		c0,0,0,0.02,0.02,0.03c0.39,0.29,6.25-1.86,8.08-0.17c1.02,0.94,1.01,3.27,0.38,3.96c-0.65,0.71-1.59-0.75-3.66-0.81
		c-3.25-0.09-4.97,3.38-7.09,2.7c-1.5-0.49-2.42-2.81-1.93-4.65C373.12,261.27,374.58,261.07,377.38,258.02z"/>
	<path class="st2" d="M151.07,349.89c-1.3,1.16,0.36,3.11-0.8,5.03c-0.03,0.05-0.11,0.18-0.05,0.33c0.39,1.05,6.47,2.08,10.2,0.89
		c3.88-1.24,5.38-4.93,1.7-6.7C158.77,347.82,152.61,348.52,151.07,349.89z"/>
	<path class="st2" d="M424.3,292.17c-1.63-0.93-1.05-3.5-3.05-9.36c-1.99-5.83-4.64-9.4-4.21-9.74c0.27-0.21,1.22,1.19,4.06,3.76
		c2.21,2,2.33,1.79,4.36,3.65c2.69,2.47,3.36,3.66,3.94,3.4c1-0.44,0.19-4.57-0.01-5.63c-0.38-1.93-0.77-2.74-1.38-4.73
		c-0.63-2.07-2.03-7.24-1.38-7.55c1.18-0.56,8.93,15.42,10.41,14.74c0.22-0.1,0.26-1.31,0.33-3.74c0.06-1.95-0.01-2.34,0.16-3.28
		c0.3-1.58,0.76-1.82,1.11-3.06c0.79-2.76-0.45-5.23-0.1-5.35c0.48-0.17,2.04,5.01,5.62,10.84c2.61,4.25,4.52,5.94,4.03,7.39
		c-0.4,1.19-2.01,1.02-5.2,1.48c0,0-5.27,0.76-10.11,2.86C427.29,290.27,426.12,293.21,424.3,292.17z"/>
</g>
</svg>
