<svg width="128" height="128" viewBox="0 0 128 128" fill="none" xmlns="http://www.w3.org/2000/svg">
<path d="M15 51.2127C47.9994 68.8218 81.0006 86.4309 114 104.04C109.4 91.894 104.799 79.7461 100.197 67.6001C82.6565 58.7473 65.1164 49.8946 47.5743 41.04C36.7175 44.4315 25.8587 47.8212 15 51.2127Z" fill="#222222" stroke="black" stroke-miterlimit="10"/>
<path d="M114 104.04C81.2789 98.0892 48.5558 92.1385 15.8347 86.1896C15.5565 74.4737 15.2782 62.7559 15 51.04C47.9994 68.7066 81.0006 86.3733 114 104.04Z" fill="#222222" stroke="black" stroke-miterlimit="10"/>
<path d="M49.8244 41.7921C49.2287 41.5678 48.635 41.3454 48.0394 41.1211C48.0394 35.9187 48.0394 30.7164 48.0394 25.5141C48.7375 25.928 49.4357 26.3419 50.1338 26.7538C50.0313 31.7666 49.9288 36.7794 49.8244 41.7921Z" fill="#929292" stroke="black" stroke-miterlimit="10"/>
<path d="M56.0807 44.8574C55.4851 44.6331 54.8914 44.4107 54.2957 44.1864C54.2957 38.9841 54.2957 33.7817 54.2957 28.5794C55.0867 29.003 55.8777 29.4265 56.6687 29.85C56.4733 34.8512 56.278 39.8543 56.0807 44.8574Z" fill="#929292" stroke="black" stroke-miterlimit="10"/>
<path d="M62.6368 48.2941C62.0411 48.0697 61.4474 47.8473 60.8517 47.623C60.8517 42.4207 60.8517 37.2184 60.8517 32.0161C61.7182 32.5866 62.5826 33.159 63.449 33.7295C63.1783 38.5857 62.9075 43.4399 62.6368 48.2941Z" fill="#929292" stroke="black" stroke-miterlimit="10"/>
<path d="M69.2953 51.5992C68.6997 51.3748 68.106 51.1524 67.5103 50.9281C67.5103 45.7258 67.5103 40.5235 67.5103 35.3212C68.3767 35.8762 69.2412 36.4313 70.1076 36.9863C69.8368 41.856 69.5661 46.7276 69.2953 51.5992Z" fill="#929292" stroke="black" stroke-miterlimit="10"/>
<path d="M77.0737 55.5367C76.478 55.3123 75.8843 55.0899 75.2886 54.8656C75.2886 49.6633 75.2886 44.461 75.2886 39.2587C76.0912 39.9491 76.8919 40.6376 77.6945 41.328C77.4875 46.0623 77.2806 50.7985 77.0737 55.5367Z" fill="#929292" stroke="black" stroke-miterlimit="10"/>
<path d="M84.9332 59.7372C84.3376 59.5129 83.7438 59.2905 83.1482 59.0661C83.1482 53.8638 83.1482 48.6615 83.1482 43.4592C83.9102 43.9369 84.6721 44.4146 85.4341 44.8923C85.2678 49.8412 85.0995 54.7882 84.9332 59.7372Z" fill="#929292" stroke="black" stroke-miterlimit="10"/>
<path d="M90.971 62.5569C90.3754 62.3325 89.7816 62.1101 89.186 61.8858C89.186 56.6835 89.186 51.4812 89.186 46.2789C90.0002 46.7991 90.8144 47.3174 91.6285 47.8376C91.4081 52.7441 91.1895 57.6505 90.971 62.5569Z" fill="#929292" stroke="black" stroke-miterlimit="10"/>
<path d="M100.534 67.208C99.9387 66.9837 99.345 66.7613 98.7493 66.5369C98.7493 61.3346 98.7493 56.1323 98.7493 50.93C99.6273 51.3458 100.503 51.7616 101.381 52.1793C101.099 57.1883 100.817 62.1991 100.534 67.208Z" fill="#929292" stroke="black" stroke-miterlimit="10"/>
<path d="M102.36 53.0574L47.4573 27.069L48.2173 25.458L103.12 51.4464L102.36 53.0574Z" fill="#929292" stroke="black" stroke-miterlimit="10"/>
<path d="M17.9104 51.7461C16.928 51.3516 15.9455 50.959 14.9631 50.5645C14.9631 41.4092 14.9631 32.2539 14.9631 23.0986C16.1157 23.8258 17.2684 24.553 18.421 25.2821C18.2527 34.1028 18.0826 42.9235 17.9104 51.7461Z" fill="#C0C0C0" stroke="black" stroke-miterlimit="10"/>
<path d="M28.2435 57.1399C27.2611 56.7454 26.2786 56.3528 25.2962 55.9583C25.2962 46.803 25.2962 37.6477 25.2962 28.4924C26.6016 29.237 27.9089 29.9835 29.2143 30.728C28.8914 39.5333 28.5684 48.3366 28.2435 57.1399Z" fill="#C0C0C0" stroke="black" stroke-miterlimit="10"/>
<path d="M39.0717 63.1893C38.0892 62.7948 37.1068 62.4022 36.1243 62.0077C36.1243 52.8524 36.1243 43.6971 36.1243 34.5418C37.5535 35.5474 38.9827 36.5511 40.4119 37.5568C39.9671 46.1029 39.5184 54.6451 39.0717 63.1893Z" fill="#C0C0C0" stroke="black" stroke-miterlimit="10"/>
<path d="M50.0681 69.0027C49.0856 68.6082 48.1032 68.2156 47.1207 67.8211C47.1207 58.6658 47.1207 49.5105 47.1207 40.3552C48.5499 41.3319 49.9791 42.3085 51.4083 43.2871C50.9615 51.8603 50.5148 60.4315 50.0681 69.0027Z" fill="#C0C0C0" stroke="black" stroke-miterlimit="10"/>
<path d="M62.9133 75.9321C61.9309 75.5375 60.9484 75.1449 59.966 74.7504C59.966 65.5951 59.966 56.4398 59.966 47.2845C61.2908 48.4991 62.6136 49.7116 63.9383 50.9262C63.596 59.2615 63.2556 67.5968 62.9133 75.9321Z" fill="#C0C0C0" stroke="black" stroke-miterlimit="10"/>
<path d="M75.8939 83.3274C74.9115 82.9329 73.929 82.5403 72.9466 82.1458C72.9466 72.9905 72.9466 63.8352 72.9466 54.6799C74.2056 55.5212 75.4646 56.3605 76.7236 57.2018C76.447 65.9103 76.1705 74.6189 75.8939 83.3274Z" fill="#C0C0C0" stroke="black" stroke-miterlimit="10"/>
<path d="M85.8654 88.2899C84.8829 87.8954 83.9005 87.5028 82.918 87.1083C82.918 77.953 82.918 68.7977 82.918 59.6424C84.2621 60.5572 85.6062 61.47 86.9503 62.3848C86.5906 71.0198 86.227 79.6549 85.8654 88.2899Z" fill="#C0C0C0" stroke="black" stroke-miterlimit="10"/>
<path d="M101.662 96.4744C100.679 96.0799 99.6969 95.6873 98.7145 95.2928C98.7145 86.1375 98.7145 76.9822 98.7145 67.8269C100.163 68.5599 101.612 69.2909 103.062 70.0239C102.594 78.8407 102.128 87.6576 101.662 96.4744Z" fill="#C0C0C0" stroke="black" stroke-miterlimit="10"/>
<path d="M104.675 71.5729L14 25.8371L15.2571 23L105.932 68.7358L104.675 71.5729Z" fill="#C0C0C0" stroke="black" stroke-miterlimit="10"/>
</svg>
