<?xml version="1.0" encoding="utf-8"?>
<!-- Generator: Adobe Adobe Illustrator 29.2.0, SVG Export Plug-In . SVG Version: 6.00 Build 0)  -->
<svg version="1.1" id="Layer_1" xmlns="http://www.w3.org/2000/svg" xmlns:xlink="http://www.w3.org/1999/xlink" x="0px" y="0px"
	 viewBox="0 0 595.28 841.89" style="enable-background:new 0 0 595.28 841.89;" xml:space="preserve">
<style type="text/css">
	.st0{fill:#222222;stroke:#000000;stroke-miterlimit:10;}
	.st1{fill:#929292;stroke:#000000;stroke-miterlimit:10;}
	.st2{fill:#C0C0C0;stroke:#000000;stroke-miterlimit:10;}
</style>
<path class="st0" d="M48.62,334.86C219.41,426.24,390.21,517.62,561,609c-23.81-63.03-47.62-126.07-71.44-189.1
	C398.78,373.96,308,328.02,217.21,282.07C161.02,299.67,104.82,317.26,48.62,334.86z"/>
<path class="st0" d="M561,609c-169.35-30.78-338.71-61.56-508.06-92.33c-1.44-60.6-2.88-121.21-4.32-181.81
	C219.41,426.24,390.21,517.62,561,609z"/>
<path class="st0" d="M-80,403"/>
<g>
	<path class="st1" d="M227.24,287.13c-3.08-1.16-6.15-2.31-9.23-3.47c0-26.9,0-53.8,0-80.7c3.61,2.14,7.22,4.28,10.83,6.41
		C228.31,235.29,227.78,261.21,227.24,287.13z"/>
	<path class="st1" d="M259.59,302.98c-3.08-1.16-6.15-2.31-9.23-3.47c0-26.9,0-53.8,0-80.7c4.09,2.19,8.18,4.38,12.27,6.57
		C261.62,251.24,260.61,277.11,259.59,302.98z"/>
	<path class="st1" d="M293.49,320.75c-3.08-1.16-6.15-2.31-9.23-3.47c0-26.9,0-53.8,0-80.7c4.48,2.95,8.95,5.91,13.43,8.86
		C296.29,270.55,294.89,295.65,293.49,320.75z"/>
	<path class="st1" d="M327.92,337.84c-3.08-1.16-6.15-2.31-9.23-3.47c0-26.9,0-53.8,0-80.7c4.48,2.87,8.95,5.74,13.43,8.61
		C330.72,287.46,329.32,312.65,327.92,337.84z"/>
	<path class="st1" d="M368.14,358.2c-3.08-1.16-6.15-2.31-9.23-3.47c0-26.9,0-53.8,0-80.7c4.15,3.57,8.29,7.13,12.44,10.7
		C370.28,309.21,369.21,333.7,368.14,358.2z"/>
	<path class="st1" d="M408.78,379.92c-3.08-1.16-6.15-2.31-9.23-3.47c0-26.9,0-53.8,0-80.7c3.94,2.47,7.88,4.94,11.82,7.41
		C410.51,328.75,409.64,354.33,408.78,379.92z"/>
	<path class="st1" d="M440,394.5c-3.08-1.16-6.15-2.31-9.23-3.47c0-26.9,0-53.8,0-80.7c4.21,2.69,8.42,5.37,12.63,8.06
		C442.26,343.76,441.13,369.13,440,394.5z"/>
	<path class="st1" d="M489.45,418.55c-3.08-1.16-6.15-2.31-9.23-3.47c0-26.9,0-53.8,0-80.7c4.54,2.15,9.07,4.3,13.61,6.46
		C492.37,366.74,490.91,392.65,489.45,418.55z"/>
	<polygon class="st1" points="498.89,345.38 215,211 218.93,202.67 502.82,337.05 	"/>
</g>
<g>
	<path class="st2" d="M62.22,338.6c-5.08-2.04-10.16-4.07-15.24-6.11c0-47.34,0-94.68,0-142.02c5.96,3.76,11.92,7.52,17.88,11.29
		C63.99,247.37,63.11,292.98,62.22,338.6z"/>
	<path class="st2" d="M115.65,366.49c-5.08-2.04-10.16-4.07-15.24-6.11c0-47.34,0-94.68,0-142.02c6.75,3.85,13.51,7.71,20.26,11.56
		C119,275.45,117.33,320.97,115.65,366.49z"/>
	<path class="st2" d="M171.64,397.77c-5.08-2.04-10.16-4.07-15.24-6.11c0-47.34,0-94.68,0-142.02c7.39,5.2,14.78,10.39,22.17,15.59
		C176.27,309.42,173.95,353.59,171.64,397.77z"/>
	<path class="st2" d="M228.5,427.83c-5.08-2.04-10.16-4.07-15.24-6.11c0-47.34,0-94.68,0-142.02c7.39,5.05,14.78,10.1,22.17,15.16
		C233.12,339.19,230.81,383.51,228.5,427.83z"/>
	<path class="st2" d="M294.92,463.66c-5.08-2.04-10.16-4.07-15.24-6.11c0-47.34,0-94.68,0-142.02c6.85,6.28,13.69,12.55,20.54,18.83
		C298.45,377.46,296.69,420.56,294.92,463.66z"/>
	<path class="st2" d="M362.04,501.9c-5.08-2.04-10.16-4.07-15.24-6.11c0-47.34,0-94.68,0-142.02c6.51,4.35,13.02,8.69,19.53,13.04
		C364.9,411.84,363.47,456.87,362.04,501.9z"/>
	<path class="st2" d="M413.6,527.56c-5.08-2.04-10.16-4.07-15.24-6.11c0-47.34,0-94.68,0-142.02c6.95,4.73,13.9,9.45,20.85,14.18
		C417.35,438.26,415.47,482.91,413.6,527.56z"/>
	<path class="st2" d="M495.28,569.88c-5.08-2.04-10.16-4.07-15.24-6.11c0-47.34,0-94.68,0-142.02c7.49,3.79,14.98,7.57,22.48,11.36
		C500.1,478.7,497.69,524.29,495.28,569.88z"/>
	<polygon class="st2" points="510.86,441.12 42,204.63 48.5,189.96 517.36,426.45 	"/>
</g>
</svg>
