<?xml version="1.0" encoding="utf-8"?>
<!-- Generator: Adobe Adobe Illustrator 29.2.0, SVG Export Plug-In . SVG Version: 6.00 Build 0)  -->
<svg version="1.1" id="Layer_1" xmlns="http://www.w3.org/2000/svg" xmlns:xlink="http://www.w3.org/1999/xlink" x="0px" y="0px"
	 viewBox="0 0 595.28 841.89" style="enable-background:new 0 0 595.28 841.89;" xml:space="preserve">
<style type="text/css">
	.st0{fill:#FFFFFF;stroke:#000000;stroke-miterlimit:10;}
	.st1{fill:none;stroke:#000000;stroke-miterlimit:10;}
</style>
<polygon class="st0" points="345,446 224.2,443.23 166.2,337.23 229,234 349.8,236.77 407.8,342.77 "/>
<polygon class="st0" points="330.54,419.57 239.86,417.49 196.33,337.92 243.46,260.43 334.14,262.51 377.67,342.08 "/>
<polygon class="st1" points="261.94,383.41 236.88,340 261.94,296.59 312.06,296.59 337.12,340 312.06,383.41 "/>
<path class="st0" d="M349.8,236.28c-40.27-0.92-80.53-1.85-120.8-2.77c20.33-48.5,40.67-97.01,61-145.51
	C309.93,137.43,329.87,186.86,349.8,236.28z"/>
<path class="st0" d="M229,235.72c-20.35,34.76-40.7,69.52-61.04,104.28c-32.54-41.32-65.09-82.63-97.63-123.95
	c22.91,2.84,45.82,5.68,68.73,8.52C169.04,228.29,199.02,232.01,229,235.72z"/>
<path class="st0" d="M347.62,233.53c20.24,36.67,40.48,73.34,60.72,110.01c40.41-37.93,80.82-75.86,121.24-113.79
	C468.92,231.01,408.27,232.27,347.62,233.53z"/>
<path class="st0" d="M223.18,445.03c40.94,0.65,81.89,1.3,122.83,1.95c-21.02,49.08-42.04,98.16-63.06,147.24
	C263.03,544.48,243.1,494.75,223.18,445.03z"/>
<path class="st0" d="M225.4,444.33c-20.46-35.81-40.93-71.62-61.39-107.43c-40.5,36.84-81.01,73.69-121.51,110.53
	C103.47,446.4,164.44,445.37,225.4,444.33z"/>
<path class="st0" d="M344.91,447.94c20.97-35.66,41.95-71.31,62.92-106.97C443.89,377.98,479.94,414.99,516,452
	C458.97,450.65,401.94,449.29,344.91,447.94z"/>
<path class="st0" d="M139,198"/>
<polygon class="st0" points="133.95,178 139.05,224.57 158.99,227.04 "/>
<polygon class="st0" points="115.98,274.01 65,292 133.77,296.59 113.17,270.44 "/>
<polygon class="st0" points="158.99,445.46 133.77,501 133.77,445.89 "/>
<polygon class="st0" points="122.66,374.53 58,374.53 98.52,396.49 "/>
<polygon class="st0" points="236.88,479.23 216,532 249.18,509.93 "/>
<polygon class="st0" points="332.2,479.23 355,541 318.97,510.11 "/>
<polygon class="st0" points="398.99,449.22 457,488 430.46,449.22 "/>
<polygon class="st0" points="449,383.41 516,385.51 473.13,408 "/>
<polygon class="st0" points="449,310 521,319 464.65,290.69 444.03,310.04 "/>
<polygon class="st0" points="406.99,232.29 465,198 449,232.29 "/>
<polygon class="st0" points="318.97,159.83 347.62,124 330.14,187.54 "/>
<polygon class="st0" points="245,198 216,140 254,178 "/>
<polygon class="st0" points="146.47,202.52 155,187.54 150.74,210.87 "/>
<polygon class="st0" points="80.18,286.64 70.33,270.44 90.33,283.06 "/>
<polygon class="st0" points="76.98,416.08 32,402 65,426.98 "/>
<polygon class="st0" points="149.66,466 183,468.61 146.38,473.23 "/>
<polygon class="st0" points="232.59,490.07 192,505.61 228.27,501 "/>
<polygon class="st0" points="265.07,549.57 254,565 271.25,565 "/>
<polygon class="st0" points="340.23,501 361,490.07 355.86,501 347.11,519.62 "/>
<polygon class="st0" points="370,510.11 350.62,512.15 355.86,501 "/>
<polygon class="st0" points="383,449.22 383,468.61 398.99,449.22 "/>
<polygon class="st0" points="413.5,458.92 413.5,469.62 424.09,466 "/>
<polygon class="st0" points="472,384.13 482.5,374.53 489,383.41 "/>
<polygon class="st0" points="489,399.67 521,399.67 473.13,408 "/>
<polygon class="st0" points="460.69,311.46 472,340.97 480.5,313.94 "/>
<polygon class="st0" points="489,267.83 511,270.44 504.34,253.43 "/>
<polygon class="st0" points="430.46,218.42 430.46,198 444.03,208.21 "/>
<polygon class="st0" points="455.47,218.42 473.13,218.42 457,232.29 449,232.29 "/>
<polygon class="st0" points="336.98,162.66 361,178 332.77,178 "/>
<polygon class="st0" points="329.14,147.11 329.14,119 337.12,133.06 "/>
<polygon class="st0" points="262.62,147.11 244,124 271.25,135.56 "/>
<path class="st0" d="M225.4,162.66"/>
<polygon class="st0" points="212.3,170.33 225.4,162.66 235,178 "/>
</svg>
