<svg width="128" height="128" viewBox="0 0 128 128" fill="none" xmlns="http://www.w3.org/2000/svg">
<path d="M77.2632 85L52.7632 84.4382L41 62.9382L53.7368 42L78.2368 42.5618L90 64.0618L77.2632 85Z" fill="white" stroke="black" stroke-miterlimit="10"/>
<path d="M73.6437 79L55.6417 78.5948L47 63.0948L56.3563 48L74.3583 48.4052L83 63.9052L73.6437 79Z" fill="white" stroke="black" stroke-miterlimit="10"/>
<path d="M60 72L55 63.5L60 55H70L75 63.5L70 72H60Z" stroke="black" stroke-miterlimit="10"/>
<path d="M78 42C69.9993 41.8201 62.0007 41.6382 54 41.4583C58.0391 31.9728 62.0801 22.4854 66.1192 13C70.0788 22.6673 74.0404 32.3346 78 42Z" fill="white" stroke="black" stroke-miterlimit="10"/>
<path d="M54 42.126C49.7676 49.4173 45.5353 56.7087 41.305 64C34.5373 55.3326 27.7676 46.6674 21 38C25.7648 38.5957 30.5296 39.1914 35.2944 39.7872C41.5296 40.5675 47.7648 41.3478 54 42.126Z" fill="white" stroke="black" stroke-miterlimit="10"/>
<path d="M77 41.7973C81.1156 49.5315 85.2313 57.2658 89.3469 65C97.5639 57 105.781 49 114 41C101.665 41.2658 89.3327 41.5315 77 41.7973Z" fill="white" stroke="black" stroke-miterlimit="10"/>
<path d="M53 85C60.9993 85.1307 69.0007 85.2614 77 85.3921C72.8929 95.2614 68.7857 105.131 64.6786 115C60.7864 104.998 56.8922 94.998 53 85Z" fill="white" stroke="black" stroke-miterlimit="10"/>
<path d="M53 85.383C48.861 78.2553 44.72 71.1277 40.581 64C32.388 71.3327 24.193 78.6673 16 86C28.334 85.795 40.668 85.59 53 85.383Z" fill="white" stroke="black" stroke-miterlimit="10"/>
<path d="M77 85.1955C81.1673 78.1297 85.3365 71.0658 89.5038 64C96.6699 71.3333 103.834 78.6667 111 86C99.6667 85.7325 88.3333 85.463 77 85.1955Z" fill="white" stroke="black" stroke-miterlimit="10"/>
<path d="M34 31L35.0184 40.4963L39 41L34 31Z" fill="white" stroke="black" stroke-miterlimit="10"/>
<path d="M30.3784 50.6826L20 54.1224L34 55L29.8063 50L30.3784 50.6826Z" fill="white" stroke="black" stroke-miterlimit="10"/>
<path d="M39 85L34 96V85.0852L39 85Z" fill="white" stroke="black" stroke-miterlimit="10"/>
<path d="M32 71H19L27.1466 75L32 71Z" fill="white" stroke="black" stroke-miterlimit="10"/>
<path d="M54.7758 92L51 102L57 97.8177L54.7758 92Z" fill="white" stroke="black" stroke-miterlimit="10"/>
<path d="M74.5704 92L79 104L72 97.999L74.5704 92Z" fill="white" stroke="black" stroke-miterlimit="10"/>
<path d="M88 86L99 93L93.9674 86H88Z" fill="white" stroke="black" stroke-miterlimit="10"/>
<path d="M98 72L111 72.427L102.682 77L98 72Z" fill="white" stroke="black" stroke-miterlimit="10"/>
<path d="M97.9686 57.4105L112 59L101.018 54L97 57.4175L97.9686 57.4105Z" fill="white" stroke="black" stroke-miterlimit="10"/>
<path d="M90 42L101 35L97.966 42H90Z" fill="white" stroke="black" stroke-miterlimit="10"/>
<path d="M72 27.3307L77 20L73.9494 33L72 27.3307Z" fill="white" stroke="black" stroke-miterlimit="10"/>
<path d="M56.3421 35L51 24L58 31.2069L56.3421 35Z" fill="white" stroke="black" stroke-miterlimit="10"/>
<path d="M37 35.5684L38 33L37.5006 37L37 35.5684Z" fill="white" stroke="black" stroke-miterlimit="10"/>
<path d="M23.4625 53L21 50L26 52.337L23.4625 53Z" fill="white" stroke="black" stroke-miterlimit="10"/>
<path d="M23 78.8183L14 76L20.6029 81L23 78.8183Z" fill="white" stroke="black" stroke-miterlimit="10"/>
<path d="M37.7165 89L45 89.722L37 91L37.7165 89Z" fill="white" stroke="black" stroke-miterlimit="10"/>
<path d="M54 94L47 97L53.255 96.11L54 94Z" fill="white" stroke="black" stroke-miterlimit="10"/>
<path d="M60.567 106L58 109H62L60.567 106Z" fill="white" stroke="black" stroke-miterlimit="10"/>
<path d="M76 95.8494L80 94L79.0101 95.8494L77.325 99L76 95.8494Z" fill="white" stroke="black" stroke-miterlimit="10"/>
<path d="M82 97.6341L78 98L79.0815 96L82 97.6341Z" fill="white" stroke="black" stroke-miterlimit="10"/>
<path d="M85 86V90L88 86H85Z" fill="white" stroke="black" stroke-miterlimit="10"/>
<path d="M91 88V90L93 89.3234L91 88Z" fill="white" stroke="black" stroke-miterlimit="10"/>
<path d="M102 73L104.471 71L106 72.85L102 73Z" fill="white" stroke="black" stroke-miterlimit="10"/>
<path d="M105.315 76H112L102 77L105.315 76Z" fill="white" stroke="black" stroke-miterlimit="10"/>
<path d="M100 58L102.855 64L105 58.5042L100 58Z" fill="white" stroke="black" stroke-miterlimit="10"/>
<path d="M106 49.5397L110 50L108.789 47L106 49.5397Z" fill="white" stroke="black" stroke-miterlimit="10"/>
<path d="M94 39V35L97 37L94 39Z" fill="white" stroke="black" stroke-miterlimit="10"/>
<path d="M99.0725 39H102L99.3261 42H98L99.0725 39Z" fill="white" stroke="black" stroke-miterlimit="10"/>
<path d="M74.8948 28L80 31H74L74.8948 28Z" fill="white" stroke="black" stroke-miterlimit="10"/>
<path d="M74 25V19L75 22.0011L74 25Z" fill="white" stroke="black" stroke-miterlimit="10"/>
<path d="M60.0998 25L56 20L62 22.5011L60.0998 25Z" fill="white" stroke="black" stroke-miterlimit="10"/>
<path d="M50 29.5L52.8855 28L55 31L50 29.5Z" fill="white" stroke="black" stroke-miterlimit="10"/>
</svg>
