<?xml version="1.0" encoding="utf-8"?>
<!-- Generator: Adobe Adobe Illustrator 29.2.0, SVG Export Plug-In . SVG Version: 6.00 Build 0)  -->
<svg version="1.1" id="Layer_1" xmlns="http://www.w3.org/2000/svg" xmlns:xlink="http://www.w3.org/1999/xlink" x="0px" y="0px"
	 viewBox="0 0 595.28 841.89" style="enable-background:new 0 0 595.28 841.89;" xml:space="preserve">
<style type="text/css">
	.st0{fill:#EBEBEB;stroke:#000000;stroke-miterlimit:10;}
	.st1{fill:#5F5F5F;stroke:#000000;stroke-miterlimit:10;}
	.st2{fill:#929292;stroke:#000000;stroke-miterlimit:10;}
</style>
<path class="st0" d="M-70,310"/>
<path class="st0" d="M-62,257"/>
<rect x="80.07" y="288.51" class="st0" width="149.87" height="107.13"/>
<path class="st1" d="M229.93,289.54H80.07c44.13-8.38,88.27-16.76,132.4-25.13c33.24,0,66.47,0,99.71,0
	C284.76,272.79,257.35,281.16,229.93,289.54z"/>
<path class="st2" d="M305.38,344.76c-25.15,16.96-50.3,33.93-75.45,50.89c0-35.71,0-71.42,0-107.13
	c27.41-8.04,54.83-16.07,82.24-24.11C309.91,291.19,307.65,317.98,305.38,344.76z"/>
<rect x="181.87" y="364.72" class="st0" width="149.87" height="107.13"/>
<path class="st1" d="M331.73,365.75H181.87c44.13-8.38,88.27-16.76,132.4-25.13c33.24,0,66.47,0,99.71,0
	C386.56,348.99,359.15,357.37,331.73,365.75z"/>
<path class="st2" d="M407.18,420.97c-25.15,16.96-50.3,33.93-75.45,50.89c0-35.71,0-71.42,0-107.13
	c27.41-8.04,54.83-16.07,82.24-24.11C411.71,367.4,409.44,394.18,407.18,420.97z"/>
<rect x="297.92" y="440.93" class="st0" width="149.87" height="107.13"/>
<path class="st1" d="M447.79,441.96H297.92c44.13-8.38,88.27-16.76,132.4-25.13c33.24,0,66.47,0,99.71,0
	C502.62,425.2,475.2,433.58,447.79,441.96z"/>
<path class="st2" d="M523.23,497.17c-25.15,16.96-50.3,33.93-75.45,50.89c0-35.71,0-71.42,0-107.13
	c27.41-8.04,54.83-16.07,82.24-24.11C527.77,443.61,525.5,470.39,523.23,497.17z"/>
<path class="st0" d="M447.79,548.06c-121.82,0.13-243.65,0.27-365.47,0.4c-1.66-64.09-2.14-116.03-2.25-152.81
	c-0.11-37.37,0-107.13,0-107.13l0,0c0,0,149.85,0,149.87,0l0,0l0,0c-5.09,64.25,1.94,72.46,1.94,72.46
	c2.7,3.15,5.44,4.33,42.39,4.77c28.52,0.34,57.47,0,57.47,0l0,0c0,0,2.97,24.3,8.91,72.9l0,0l0,0l113.06,2.28
	C451.73,476.64,449.76,512.35,447.79,548.06z"/>
</svg>
