<svg width="128" height="128" viewBox="0 0 128 128" fill="none" xmlns="http://www.w3.org/2000/svg">
<path d="M119 26H8V101H119V26Z" fill="white" stroke="black" stroke-width="7" stroke-miterlimit="10"/>
<path d="M48 37H15V60H48V37Z" fill="#EBEBEB" stroke="black" stroke-miterlimit="10"/>
<path d="M47.9299 37H15C24.6964 35.3327 34.395 33.6653 44.0914 32C51.395 32 58.6964 32 66 32C59.9774 33.6653 53.9526 35.3327 47.9299 37Z" fill="#C0C0C0" stroke="black" stroke-miterlimit="10"/>
<path d="M64.5139 49.1426C59.0092 52.761 53.5046 56.3816 48 60C48 52.3813 48 44.7626 48 37.1439C53.9993 35.4285 60.0007 33.7153 66 32C65.5054 37.7135 65.0107 43.427 64.5139 49.1426Z" fill="#EBEBEB" stroke="black" stroke-miterlimit="10"/>
<path d="M70 54H37V78H70V54Z" fill="#EBEBEB" stroke="black" stroke-miterlimit="10"/>
<path d="M69.9299 54H37C46.6964 51.9992 56.395 49.9984 66.0914 48C73.395 48 80.6964 48 88 48C81.9752 49.9984 75.9526 51.9992 69.9299 54Z" fill="#C0C0C0" stroke="black" stroke-miterlimit="10"/>
<path d="M86.5139 66.3671C81.0092 70.244 75.5046 74.1231 70 78C70 69.8371 70 61.6742 70 53.5113C75.9993 51.6734 82.0007 49.8379 88 48C87.5054 54.1239 87.0107 60.2455 86.5139 66.3671Z" fill="#D6D6D6" stroke="black" stroke-miterlimit="10"/>
<path d="M95 71H63V94H95V71Z" fill="#EBEBEB" stroke="black" stroke-miterlimit="10"/>
<path d="M95.2843 71H63C72.5063 68.9992 82.0147 66.9984 91.521 65C98.6814 65 105.84 65 113 65C107.095 67.0008 101.189 69.0016 95.2843 71Z" fill="#C0C0C0" stroke="black" stroke-miterlimit="10"/>
<path d="M111.514 82.7549C106.009 86.5025 100.505 90.2524 95 94C95 86.1092 95 78.2184 95 70.3276C100.999 68.551 107.001 66.7766 113 65C112.505 70.9176 112.009 76.8373 111.514 82.7549Z" fill="#D6D6D6" stroke="black" stroke-miterlimit="10"/>
<path d="M95.7009 94.9108C68.9695 94.9398 42.2359 94.971 15.5045 95C15.1402 80.6997 15.0349 69.1104 15.0107 60.9038C14.9866 52.5654 15.0107 37 15.0107 37C15.0107 37 47.8929 37 47.8973 37C46.7804 51.336 48.323 53.1679 48.323 53.1679C48.9155 53.8707 49.5167 54.134 57.6248 54.2322C63.883 54.3081 70.2357 54.2322 70.2357 54.2322C70.2357 54.2322 70.8874 59.6542 72.1908 70.4983L97 71.007C96.5677 78.9749 96.1332 86.9428 95.7009 94.9108Z" fill="#F5F5F5" stroke="black" stroke-miterlimit="10"/>
<path d="M8 26C45.0015 51 82.0007 76 119 101Z" fill="white"/>
<path d="M8 26C45.0015 51 82.0007 76 119 101" stroke="black" stroke-width="7" stroke-miterlimit="10"/>
<path d="M119 26C82.0007 51 45.0015 76 8 101Z" fill="white"/>
<path d="M119 26C82.0007 51 45.0015 76 8 101" stroke="black" stroke-width="7" stroke-miterlimit="10"/>
</svg>
