<svg width="24" height="24" viewBox="0 0 24 24" fill="none" xmlns="http://www.w3.org/2000/svg">
<path d="M12 16.1193L8.523 18.7751C8.35 18.8983 8.17217 18.9515 7.9895 18.9348C7.80683 18.9182 7.64558 18.8668 7.50575 18.7808C7.36608 18.695 7.2645 18.571 7.201 18.4088C7.1375 18.2467 7.1365 18.0649 7.198 17.8636L8.50375 13.5156L5.15375 11.0656C4.97258 10.9486 4.85517 10.8065 4.8015 10.6393C4.748 10.4722 4.75008 10.302 4.80775 10.1288C4.86542 9.95584 4.96108 9.81609 5.09475 9.70959C5.22842 9.60325 5.40392 9.55009 5.62125 9.55009H9.83925L11.1865 5.04809C11.2447 4.84292 11.3464 4.691 11.4917 4.59234C11.6369 4.49367 11.8063 4.44434 12 4.44434C12.1937 4.44434 12.3631 4.49367 12.5082 4.59234C12.6536 4.691 12.7553 4.84292 12.8135 5.04809L14.1607 9.55009H18.3787C18.5961 9.55009 18.7716 9.60325 18.9052 9.70959C19.0389 9.81609 19.1346 9.95584 19.1922 10.1288C19.2499 10.302 19.252 10.4722 19.1985 10.6393C19.1448 10.8065 19.0274 10.9486 18.8462 11.0656L15.4962 13.5156L16.802 17.8636C16.8635 18.0649 16.8625 18.2467 16.799 18.4088C16.7355 18.571 16.6339 18.695 16.4942 18.7808C16.3544 18.8668 16.1932 18.9182 16.0105 18.9348C15.8278 18.9515 15.65 18.8983 15.477 18.7751L12 16.1193Z" fill="white"/>
</svg>
