<svg width="128" height="128" viewBox="0 0 128 128" fill="none" xmlns="http://www.w3.org/2000/svg">
<path d="M46 37H12V61H46V37Z" fill="#EBEBEB" stroke="black" stroke-miterlimit="10"/>
<path d="M46.219 37H12C22.0766 34.9992 32.1556 32.9984 42.2322 31C49.8222 31 57.41 31 65 31C58.7389 33.0008 52.4801 34.9992 46.219 37Z" fill="#5F5F5F" stroke="black" stroke-miterlimit="10"/>
<path d="M63.4313 49.3671C57.6209 53.244 51.8104 57.1231 46 61C46 52.8371 46 44.6742 46 36.5113C52.3326 34.6734 58.6674 32.8379 65 31C64.4779 37.1216 63.9557 43.2455 63.4313 49.3671Z" fill="#929292" stroke="black" stroke-miterlimit="10"/>
<path d="M70 54H35V79H70V54Z" fill="#EBEBEB" stroke="black" stroke-miterlimit="10"/>
<path d="M69.219 55H35C45.0766 52.9992 55.1556 50.9984 65.2322 49C72.8222 49 80.41 49 88 49C81.7389 50.9984 75.4801 52.9992 69.219 55Z" fill="#5F5F5F" stroke="black" stroke-miterlimit="10"/>
<path d="M86.5139 67.3671C81.0092 71.244 75.5046 75.1231 70 79C70 70.8371 70 62.6742 70 54.5113C75.9993 52.6734 82.0007 50.8379 88 49C87.5054 55.1216 87.0085 61.2432 86.5139 67.3671Z" fill="#929292" stroke="black" stroke-miterlimit="10"/>
<path d="M96 72H62V96H96V72Z" fill="#EBEBEB" stroke="black" stroke-miterlimit="10"/>
<path d="M96.2213 72H62C72.0766 69.9992 82.1556 67.9984 92.2322 66C99.8222 66 107.41 66 115 66C108.741 67.9984 102.48 69.9992 96.2213 72Z" fill="#5F5F5F" stroke="black" stroke-miterlimit="10"/>
<path d="M113.431 84.3671C107.621 88.244 101.81 92.1231 96 96C96 87.8371 96 79.6742 96 71.5113C102.333 69.6734 108.667 67.8379 115 66C114.48 72.1239 113.956 78.2455 113.431 84.3671Z" fill="#929292" stroke="black" stroke-miterlimit="10"/>
<path d="M96.6376 95.9092C68.6022 95.9387 40.5645 95.9705 12.5291 96C12.147 81.4531 12.0366 69.664 12.0113 61.3159C11.9859 52.8338 12.0113 37 12.0113 37C12.0113 37 46.4974 37 46.502 37C45.3306 51.5832 46.9485 53.4466 46.9485 53.4466C47.5699 54.1616 48.2004 54.4294 56.704 54.5293C63.2676 54.6065 69.9301 54.5293 69.9301 54.5293C69.9301 54.5293 70.6136 60.0448 71.9806 71.0758L98 71.5933C97.5443 79.6986 97.091 87.8039 96.6376 95.9092Z" fill="#EBEBEB" stroke="black" stroke-miterlimit="10"/>
</svg>
